<svg xmlns="http://www.w3.org/2000/svg" xmlns:v="https://svgstorm.com"
viewBox = "0 0 36 32"
width="36"
height="32">
<g fill="None" fill-opacity="0.0" stroke="#000000" stroke-opacity="0.00" stroke-width="0.3"><path d="
M 0.00 32.00 
L 36.00 32.00
L 36.00 0.00
L 0.00 0.00
L 0.00 32.00
M 33.00 28.00 
C 22.49 27.28 13.57 27.64 3.00 28.00
C 5.22 23.84 -1.28 6.88 6.08 6.08 C 13.44 5.29 21.35 5.81 29.00 6.00 C 36.65 6.19 31.53 23.47 33.00 28.00 Z"/>
</g>
<g fill="None" fill-opacity="0.0" stroke="#030303" stroke-opacity="0.92" stroke-width="0.3"><path d="
M 33.00 28.00 
C 31.53 23.47 36.65 6.19 29.00 6.00 C 21.35 5.81 13.44 5.29 6.08 6.08 C -1.28 6.88 5.22 23.84 3.00 28.00
C 13.57 27.64 22.49 27.28 33.00 28.00
M 30.00 24.00 
C 25.81 23.67 21.92 24.23 18.00 25.00
C 19.65 18.54 13.97 10.85 23.07 9.07 C 32.18 7.30 30.08 17.46 30.00 24.00 Z"/>
</g>
<g fill="None" fill-opacity="0.0" stroke="#000000" stroke-opacity="0.02" stroke-width="0.3"><path d="
M 30.00 24.00 
C 30.08 17.46 32.18 7.30 23.07 9.07 C 13.97 10.85 19.65 18.54 18.00 25.00
C 21.92 24.23 25.81 23.67 30.00 24.00
M 23.00 14.00 
C 23.06 14.01 23.00 15.00 23.00 15.00
C 25.31 14.80 29.34 14.58 29.00 18.00
C 25.66 18.32 21.93 17.16 19.00 19.00
C 18.29 16.79 19.90 15.54 22.00 16.00
C 22.11 15.97 22.00 15.00 22.00 15.00
C 21.01 14.90 19.99 15.08 19.00 15.00
C 19.23 10.06 25.80 12.65 29.00 12.00
C 29.35 15.23 24.89 13.57 23.00 14.00
M 29.00 22.00 
C 25.83 19.74 22.05 21.76 19.00 23.00
C 17.77 18.02 29.92 16.75 29.00 22.00 Z"/>
</g>
<g fill="None" fill-opacity="0.0" stroke="#020202" stroke-opacity="0.82" stroke-width="0.3"><path d="
M 22.00 15.00 
C 22.03 14.65 22.67 13.99 23.00 14.00
C 24.89 13.57 29.35 15.23 29.00 12.00
C 25.80 12.65 19.23 10.06 19.00 15.00
C 19.99 15.08 21.01 14.90 22.00 15.00 Z"/>
</g>
<g fill="None" fill-opacity="0.0" stroke="#040404" stroke-opacity="0.24" stroke-width="0.3"><path d="
M 22.00 15.00 
C 22.00 15.00 22.11 15.97 22.00 16.00
C 22.35 15.90 22.97 15.35 23.00 15.00
C 23.00 15.00 23.06 14.01 23.00 14.00
C 22.67 13.99 22.03 14.65 22.00 15.00 Z"/>
</g>
<g fill="None" fill-opacity="0.0" stroke="#030303" stroke-opacity="0.69" stroke-width="0.3"><path d="
M 22.00 16.00 
C 19.90 15.54 18.29 16.79 19.00 19.00
C 21.93 17.16 25.66 18.32 29.00 18.00
C 29.34 14.58 25.31 14.80 23.00 15.00
C 22.97 15.35 22.35 15.90 22.00 16.00 Z"/>
</g>
<g fill="None" fill-opacity="0.0" stroke="#030303" stroke-opacity="0.76" stroke-width="0.3"><path d="
M 29.00 22.00 
C 29.92 16.75 17.77 18.02 19.00 23.00
C 22.05 21.76 25.83 19.74 29.00 22.00 Z"/>
</g>
<g fill="#000000" fill-opacity="0.00" stroke="None">
<path d="
M 0.00 32.00 
L 36.00 32.00
L 36.00 0.00
L 0.00 0.00
L 0.00 32.00
M 33.00 28.00 
C 22.49 27.28 13.57 27.64 3.00 28.00
C 5.22 23.84 -1.28 6.88 6.08 6.08 C 13.44 5.29 21.35 5.81 29.00 6.00 C 36.65 6.19 31.53 23.47 33.00 28.00 Z"/>
</g>
<g fill="#030303" fill-opacity="0.92" stroke="None">
<path d="
M 33.00 28.00 
C 31.53 23.47 36.65 6.19 29.00 6.00 C 21.35 5.81 13.44 5.29 6.08 6.08 C -1.28 6.88 5.22 23.84 3.00 28.00
C 13.57 27.64 22.49 27.28 33.00 28.00
M 30.00 24.00 
C 25.81 23.67 21.92 24.23 18.00 25.00
C 19.65 18.54 13.97 10.85 23.07 9.07 C 32.18 7.30 30.08 17.46 30.00 24.00 Z"/>
</g>
<g fill="#000000" fill-opacity="0.02" stroke="None">
<path d="
M 30.00 24.00 
C 30.08 17.46 32.18 7.30 23.07 9.07 C 13.97 10.85 19.65 18.54 18.00 25.00
C 21.92 24.23 25.81 23.67 30.00 24.00
M 23.00 14.00 
C 23.06 14.01 23.00 15.00 23.00 15.00
C 25.31 14.80 29.34 14.58 29.00 18.00
C 25.66 18.32 21.93 17.16 19.00 19.00
C 18.29 16.79 19.90 15.54 22.00 16.00
C 22.11 15.97 22.00 15.00 22.00 15.00
C 21.01 14.90 19.99 15.08 19.00 15.00
C 19.23 10.06 25.80 12.65 29.00 12.00
C 29.35 15.23 24.89 13.57 23.00 14.00
M 29.00 22.00 
C 25.83 19.74 22.05 21.76 19.00 23.00
C 17.77 18.02 29.92 16.75 29.00 22.00 Z"/>
</g>
<g fill="#020202" fill-opacity="0.82" stroke="None">
<path d="
M 22.00 15.00 
C 22.03 14.65 22.67 13.99 23.00 14.00
C 24.89 13.57 29.35 15.23 29.00 12.00
C 25.80 12.65 19.23 10.06 19.00 15.00
C 19.99 15.08 21.01 14.90 22.00 15.00 Z"/>
</g>
<g fill="#040404" fill-opacity="0.24" stroke="None">
<path d="
M 22.00 15.00 
C 22.00 15.00 22.11 15.97 22.00 16.00
C 22.35 15.90 22.97 15.35 23.00 15.00
C 23.00 15.00 23.06 14.01 23.00 14.00
C 22.67 13.99 22.03 14.65 22.00 15.00 Z"/>
</g>
<g fill="#030303" fill-opacity="0.69" stroke="None">
<path d="
M 22.00 16.00 
C 19.90 15.54 18.29 16.79 19.00 19.00
C 21.93 17.16 25.66 18.32 29.00 18.00
C 29.34 14.58 25.31 14.80 23.00 15.00
C 22.97 15.35 22.35 15.90 22.00 16.00 Z"/>
</g>
<g fill="#030303" fill-opacity="0.76" stroke="None">
<path d="
M 29.00 22.00 
C 29.92 16.75 17.77 18.02 19.00 23.00
C 22.05 21.76 25.83 19.74 29.00 22.00 Z"/>
</g>
</svg>