<svg xmlns="http://www.w3.org/2000/svg" xmlns:v="https://svgstorm.com"
viewBox = "0 0 44 22"
width="44"
height="22">
<g fill="None" fill-opacity="0.0" stroke="#000000" stroke-opacity="0.00" stroke-width="0.3"><path d="
M 0.00 22.00 
L 14.00 22.00
C 10.77 15.94 10.79 6.04 14.00 0.00
L 0.00 0.00
L 0.00 22.00 Z"/>
</g>
<g fill="None" fill-opacity="0.0" stroke="#0A71AA" stroke-opacity="0.91" stroke-width="0.3"><path d="
M 14.00 22.00 
L 32.00 22.00
C 32.00 14.67 32.00 7.33 32.00 0.00
L 14.00 0.00
C 10.79 6.04 10.77 15.94 14.00 22.00
M 27.00 7.00 
C 24.93 8.01 19.45 7.06 18.00 6.00
C 18.94 3.28 30.22 5.43 27.00 7.00
M 27.00 9.00 
C 25.04 10.52 19.89 10.72 18.00 9.00
C 19.96 7.48 25.11 7.28 27.00 9.00
M 28.00 18.00 
C 25.06 19.57 18.87 19.71 16.00 18.00
C 18.94 16.43 25.13 16.29 28.00 18.00 Z"/>
</g>
<g fill="None" fill-opacity="0.0" stroke="#000000" stroke-opacity="0.00" stroke-width="0.3"><path d="
M 32.00 22.00 
L 44.00 22.00
L 44.00 0.00
L 32.00 0.00
C 32.00 7.33 32.00 14.67 32.00 22.00 Z"/>
</g>
<g fill="None" fill-opacity="0.0" stroke="#0A72A9" stroke-opacity="0.52" stroke-width="0.3"><path d="
M 18.00 6.00 
C 20.84 6.59 24.98 4.78 27.00 7.00
C 30.22 5.43 18.94 3.28 18.00 6.00 Z"/>
</g>
<g fill="None" fill-opacity="0.0" stroke="#000000" stroke-opacity="0.00" stroke-width="0.3"><path d="
M 27.00 7.00 
C 24.98 4.78 20.84 6.59 18.00 6.00
C 19.45 7.06 24.93 8.01 27.00 7.00 Z"/>
</g>
<g fill="None" fill-opacity="0.0" stroke="#0C70AB" stroke-opacity="0.25" stroke-width="0.3"><path d="
M 27.00 9.00 
C 25.11 7.28 19.96 7.48 18.00 9.00
C 19.89 10.72 25.04 10.52 27.00 9.00 Z"/>
</g>
<g fill="None" fill-opacity="0.0" stroke="#000000" stroke-opacity="0.00" stroke-width="0.3"><path d="
M 28.00 18.00 
C 25.13 16.29 18.94 16.43 16.00 18.00
C 18.87 19.71 25.06 19.57 28.00 18.00 Z"/>
</g>
<g fill="#000000" fill-opacity="0.00" stroke="None">
<path d="
M 0.00 22.00 
L 14.00 22.00
C 10.77 15.94 10.79 6.04 14.00 0.00
L 0.00 0.00
L 0.00 22.00 Z"/>
</g>
<g fill="#0A71AA" fill-opacity="0.91" stroke="None">
<path d="
M 14.00 22.00 
L 32.00 22.00
C 32.00 14.67 32.00 7.33 32.00 0.00
L 14.00 0.00
C 10.79 6.04 10.77 15.94 14.00 22.00
M 27.00 7.00 
C 24.93 8.01 19.45 7.06 18.00 6.00
C 18.94 3.28 30.22 5.43 27.00 7.00
M 27.00 9.00 
C 25.04 10.52 19.89 10.72 18.00 9.00
C 19.96 7.48 25.11 7.28 27.00 9.00
M 28.00 18.00 
C 25.06 19.57 18.87 19.71 16.00 18.00
C 18.94 16.43 25.13 16.29 28.00 18.00 Z"/>
</g>
<g fill="#000000" fill-opacity="0.00" stroke="None">
<path d="
M 32.00 22.00 
L 44.00 22.00
L 44.00 0.00
L 32.00 0.00
C 32.00 7.33 32.00 14.67 32.00 22.00 Z"/>
</g>
<g fill="#0A72A9" fill-opacity="0.52" stroke="None">
<path d="
M 18.00 6.00 
C 20.84 6.59 24.98 4.78 27.00 7.00
C 30.22 5.43 18.94 3.28 18.00 6.00 Z"/>
</g>
<g fill="#000000" fill-opacity="0.00" stroke="None">
<path d="
M 27.00 7.00 
C 24.98 4.78 20.84 6.59 18.00 6.00
C 19.45 7.06 24.93 8.01 27.00 7.00 Z"/>
</g>
<g fill="#0C70AB" fill-opacity="0.25" stroke="None">
<path d="
M 27.00 9.00 
C 25.11 7.28 19.96 7.48 18.00 9.00
C 19.89 10.72 25.04 10.52 27.00 9.00 Z"/>
</g>
<g fill="#000000" fill-opacity="0.00" stroke="None">
<path d="
M 28.00 18.00 
C 25.13 16.29 18.94 16.43 16.00 18.00
C 18.87 19.71 25.06 19.57 28.00 18.00 Z"/>
</g>
</svg>