<svg xmlns="http://www.w3.org/2000/svg" xmlns:v="https://svgstorm.com"
viewBox = "0 0 42 22"
width="42"
height="22">
<g fill="None" fill-opacity="0.0" stroke="#000000" stroke-opacity="0.00" stroke-width="0.3"><path d="
M 0.00 22.00 
L 16.00 22.00
C 16.63 19.47 13.47 20.10 12.00 20.00
C 9.66 13.15 10.09 6.03 16.00 1.00
C 16.18 0.93 16.00 0.00 16.00 0.00
L 0.00 0.00
L 0.00 22.00 Z"/>
</g>
<g fill="None" fill-opacity="0.0" stroke="#020202" stroke-opacity="0.64" stroke-width="0.3"><path d="
M 16.00 1.00 
C 16.08 1.02 20.30 1.64 20.00 2.00
C 19.75 1.75 20.00 0.50 20.00 0.00
L 16.00 0.00
C 16.00 0.00 16.18 0.93 16.00 1.00 Z"/>
</g>
<g fill="None" fill-opacity="0.0" stroke="#000000" stroke-opacity="0.00" stroke-width="0.3"><path d="
M 20.00 2.00 
C 20.25 2.25 21.75 2.25 22.00 2.00
C 22.25 1.75 22.00 0.50 22.00 0.00
L 20.00 0.00
C 20.00 0.50 19.75 1.75 20.00 2.00 Z"/>
</g>
<g fill="None" fill-opacity="0.0" stroke="#020202" stroke-opacity="0.66" stroke-width="0.3"><path d="
M 22.00 2.00 
C 21.90 1.88 25.40 0.84 25.00 0.00
L 22.00 0.00
C 22.00 0.50 22.25 1.75 22.00 2.00 Z"/>
</g>
<g fill="None" fill-opacity="0.0" stroke="#030303" stroke-opacity="0.94" stroke-width="0.3"><path d="
M 22.00 2.00 
C 24.22 7.00 19.73 15.03 22.00 20.00
C 22.30 20.65 24.29 20.78 24.00 22.00
L 26.00 22.00
C 25.37 19.47 28.53 20.10 30.00 20.00
C 32.78 12.63 31.15 6.20 26.00 0.00
L 25.00 0.00
C 25.40 0.84 21.90 1.88 22.00 2.00 Z"/>
</g>
<g fill="None" fill-opacity="0.0" stroke="#000000" stroke-opacity="0.00" stroke-width="0.3"><path d="
M 26.00 22.00 
L 42.00 22.00
L 42.00 0.00
L 26.00 0.00
C 31.15 6.20 32.78 12.63 30.00 20.00
C 28.53 20.10 25.37 19.47 26.00 22.00 Z"/>
</g>
<g fill="None" fill-opacity="0.0" stroke="#030303" stroke-opacity="0.94" stroke-width="0.3"><path d="
M 16.00 22.00 
L 17.00 22.00
C 16.88 21.57 19.85 19.82 20.00 20.00
C 18.88 17.48 18.88 4.52 20.00 2.00
C 20.30 1.64 16.08 1.02 16.00 1.00
C 10.09 6.03 9.66 13.15 12.00 20.00
C 13.47 20.10 16.63 19.47 16.00 22.00 Z"/>
</g>
<g fill="None" fill-opacity="0.0" stroke="#040404" stroke-opacity="0.25" stroke-width="0.3"><path d="
M 20.00 20.00 
C 20.25 19.75 21.75 19.75 22.00 20.00
C 19.73 15.03 24.22 7.00 22.00 2.00
C 21.75 2.25 20.25 2.25 20.00 2.00
C 18.88 4.52 18.88 17.48 20.00 20.00 Z"/>
</g>
<g fill="None" fill-opacity="0.0" stroke="#030303" stroke-opacity="0.65" stroke-width="0.3"><path d="
M 17.00 22.00 
L 20.00 22.00
C 20.00 21.50 19.75 20.25 20.00 20.00
C 19.85 19.82 16.88 21.57 17.00 22.00 Z"/>
</g>
<g fill="None" fill-opacity="0.0" stroke="#000000" stroke-opacity="0.00" stroke-width="0.3"><path d="
M 20.00 22.00 
L 22.00 22.00
C 22.00 21.50 22.25 20.25 22.00 20.00
C 21.75 19.75 20.25 19.75 20.00 20.00
C 19.75 20.25 20.00 21.50 20.00 22.00 Z"/>
</g>
<g fill="None" fill-opacity="0.0" stroke="#030303" stroke-opacity="0.58" stroke-width="0.3"><path d="
M 22.00 22.00 
L 24.00 22.00
C 24.29 20.78 22.30 20.65 22.00 20.00
C 22.25 20.25 22.00 21.50 22.00 22.00 Z"/>
</g>
<g fill="#000000" fill-opacity="0.00" stroke="None">
<path d="
M 0.00 22.00 
L 16.00 22.00
C 16.63 19.47 13.47 20.10 12.00 20.00
C 9.66 13.15 10.09 6.03 16.00 1.00
C 16.18 0.93 16.00 0.00 16.00 0.00
L 0.00 0.00
L 0.00 22.00 Z"/>
</g>
<g fill="#020202" fill-opacity="0.64" stroke="None">
<path d="
M 16.00 1.00 
C 16.08 1.02 20.30 1.64 20.00 2.00
C 19.75 1.75 20.00 0.50 20.00 0.00
L 16.00 0.00
C 16.00 0.00 16.18 0.93 16.00 1.00 Z"/>
</g>
<g fill="#000000" fill-opacity="0.00" stroke="None">
<path d="
M 20.00 2.00 
C 20.25 2.25 21.75 2.25 22.00 2.00
C 22.25 1.75 22.00 0.50 22.00 0.00
L 20.00 0.00
C 20.00 0.50 19.75 1.75 20.00 2.00 Z"/>
</g>
<g fill="#020202" fill-opacity="0.66" stroke="None">
<path d="
M 22.00 2.00 
C 21.90 1.88 25.40 0.84 25.00 0.00
L 22.00 0.00
C 22.00 0.50 22.25 1.75 22.00 2.00 Z"/>
</g>
<g fill="#030303" fill-opacity="0.94" stroke="None">
<path d="
M 22.00 2.00 
C 24.22 7.00 19.73 15.03 22.00 20.00
C 22.30 20.65 24.29 20.78 24.00 22.00
L 26.00 22.00
C 25.37 19.47 28.53 20.10 30.00 20.00
C 32.78 12.63 31.15 6.20 26.00 0.00
L 25.00 0.00
C 25.40 0.84 21.90 1.88 22.00 2.00 Z"/>
</g>
<g fill="#000000" fill-opacity="0.00" stroke="None">
<path d="
M 26.00 22.00 
L 42.00 22.00
L 42.00 0.00
L 26.00 0.00
C 31.15 6.20 32.78 12.63 30.00 20.00
C 28.53 20.10 25.37 19.47 26.00 22.00 Z"/>
</g>
<g fill="#030303" fill-opacity="0.94" stroke="None">
<path d="
M 16.00 22.00 
L 17.00 22.00
C 16.88 21.57 19.85 19.82 20.00 20.00
C 18.88 17.48 18.88 4.52 20.00 2.00
C 20.30 1.64 16.08 1.02 16.00 1.00
C 10.09 6.03 9.66 13.15 12.00 20.00
C 13.47 20.10 16.63 19.47 16.00 22.00 Z"/>
</g>
<g fill="#040404" fill-opacity="0.25" stroke="None">
<path d="
M 20.00 20.00 
C 20.25 19.75 21.75 19.75 22.00 20.00
C 19.73 15.03 24.22 7.00 22.00 2.00
C 21.75 2.25 20.25 2.25 20.00 2.00
C 18.88 4.52 18.88 17.48 20.00 20.00 Z"/>
</g>
<g fill="#030303" fill-opacity="0.65" stroke="None">
<path d="
M 17.00 22.00 
L 20.00 22.00
C 20.00 21.50 19.75 20.25 20.00 20.00
C 19.85 19.82 16.88 21.57 17.00 22.00 Z"/>
</g>
<g fill="#000000" fill-opacity="0.00" stroke="None">
<path d="
M 20.00 22.00 
L 22.00 22.00
C 22.00 21.50 22.25 20.25 22.00 20.00
C 21.75 19.75 20.25 19.75 20.00 20.00
C 19.75 20.25 20.00 21.50 20.00 22.00 Z"/>
</g>
<g fill="#030303" fill-opacity="0.58" stroke="None">
<path d="
M 22.00 22.00 
L 24.00 22.00
C 24.29 20.78 22.30 20.65 22.00 20.00
C 22.25 20.25 22.00 21.50 22.00 22.00 Z"/>
</g>
</svg>