<svg xmlns="http://www.w3.org/2000/svg" xmlns:v="https://svgstorm.com"
viewBox = "0 0 40 40"
width="40"
height="40">
<g fill="None" fill-opacity="0.0" stroke="#000000" stroke-opacity="0.00" stroke-width="0.3"><path d="
M 0.00 40.00 
L 40.00 40.00
L 40.00 0.00
L 0.00 0.00
L 0.00 40.00
M 26.00 2.00 
C 27.22 6.33 31.08 8.16 35.00 9.00
C 34.53 12.88 34.89 17.36 39.00 19.00
C 37.32 22.92 33.33 25.82 35.00 31.00
C 30.01 29.34 28.93 36.97 25.75 37.75 C 22.57 38.53 17.42 33.96 14.00 38.00
C 12.78 33.67 8.92 31.84 5.00 31.00
C 5.47 27.12 5.11 22.64 1.00 21.00
C 2.68 17.08 6.67 14.18 5.00 9.00
C 8.89 8.18 12.84 6.29 14.00 2.00
C 18.01 4.18 21.95 4.13 26.00 2.00 Z"/>
</g>
<g fill="None" fill-opacity="0.0" stroke="#378E3C" stroke-opacity="0.89" stroke-width="0.3"><path d="
M 26.00 2.00 
C 21.95 4.13 18.01 4.18 14.00 2.00
C 12.84 6.29 8.89 8.18 5.00 9.00
C 6.67 14.18 2.68 17.08 1.00 21.00
C 5.11 22.64 5.47 27.12 5.00 31.00
C 8.92 31.84 12.78 33.67 14.00 38.00
C 17.42 33.96 22.57 38.53 25.75 37.75 C 28.93 36.97 30.01 29.34 35.00 31.00
C 33.33 25.82 37.32 22.92 39.00 19.00
C 34.89 17.36 34.53 12.88 35.00 9.00
C 31.08 8.16 27.22 6.33 26.00 2.00
M 29.00 7.00 
C 29.74 7.74 28.18 6.18 29.00 7.00
M 27.00 14.00 
C 29.80 17.42 17.64 23.48 17.00 27.00
C 14.72 25.43 12.43 23.33 11.00 21.00
C 13.33 18.59 14.65 21.76 16.00 23.00
C 20.13 21.73 23.20 17.18 26.00 14.00
C 26.14 13.85 27.67 13.13 27.00 14.00 Z"/>
</g>
<g fill="None" fill-opacity="0.0" stroke="#388E3C" stroke-opacity="0.68" stroke-width="0.3"><path d="
M 29.00 7.00 
C 28.18 6.18 29.74 7.74 29.00 7.00 Z"/>
</g>
<g fill="None" fill-opacity="0.0" stroke="#378F3B" stroke-opacity="0.49" stroke-width="0.3"><path d="
M 26.00 14.00 
C 26.16 13.77 27.00 14.00 27.00 14.00
C 27.67 13.13 26.14 13.85 26.00 14.00 Z"/>
</g>
<g fill="None" fill-opacity="0.0" stroke="#000000" stroke-opacity="0.00" stroke-width="0.3"><path d="
M 27.00 14.00 
C 27.00 14.00 26.16 13.77 26.00 14.00
C 23.20 17.18 20.13 21.73 16.00 23.00
C 14.65 21.76 13.33 18.59 11.00 21.00
C 12.43 23.33 14.72 25.43 17.00 27.00
C 17.64 23.48 29.80 17.42 27.00 14.00 Z"/>
</g>
<g fill="#000000" fill-opacity="0.00" stroke="None">
<path d="
M 0.00 40.00 
L 40.00 40.00
L 40.00 0.00
L 0.00 0.00
L 0.00 40.00
M 26.00 2.00 
C 27.22 6.33 31.08 8.16 35.00 9.00
C 34.53 12.88 34.89 17.36 39.00 19.00
C 37.32 22.92 33.33 25.82 35.00 31.00
C 30.01 29.34 28.93 36.97 25.75 37.75 C 22.57 38.53 17.42 33.96 14.00 38.00
C 12.78 33.67 8.92 31.84 5.00 31.00
C 5.47 27.12 5.11 22.64 1.00 21.00
C 2.68 17.08 6.67 14.18 5.00 9.00
C 8.89 8.18 12.84 6.29 14.00 2.00
C 18.01 4.18 21.95 4.13 26.00 2.00 Z"/>
</g>
<g fill="#378E3C" fill-opacity="0.89" stroke="None">
<path d="
M 26.00 2.00 
C 21.95 4.13 18.01 4.18 14.00 2.00
C 12.84 6.29 8.89 8.18 5.00 9.00
C 6.67 14.18 2.68 17.08 1.00 21.00
C 5.11 22.64 5.47 27.12 5.00 31.00
C 8.92 31.84 12.78 33.67 14.00 38.00
C 17.42 33.96 22.57 38.53 25.75 37.75 C 28.93 36.97 30.01 29.34 35.00 31.00
C 33.33 25.82 37.32 22.92 39.00 19.00
C 34.89 17.36 34.53 12.88 35.00 9.00
C 31.08 8.16 27.22 6.33 26.00 2.00
M 29.00 7.00 
C 29.74 7.74 28.18 6.18 29.00 7.00
M 27.00 14.00 
C 29.80 17.42 17.64 23.48 17.00 27.00
C 14.72 25.43 12.43 23.33 11.00 21.00
C 13.33 18.59 14.65 21.76 16.00 23.00
C 20.13 21.73 23.20 17.18 26.00 14.00
C 26.14 13.85 27.67 13.13 27.00 14.00 Z"/>
</g>
<g fill="#388E3C" fill-opacity="0.68" stroke="None">
<path d="
M 29.00 7.00 
C 28.18 6.18 29.74 7.74 29.00 7.00 Z"/>
</g>
<g fill="#378F3B" fill-opacity="0.49" stroke="None">
<path d="
M 26.00 14.00 
C 26.16 13.77 27.00 14.00 27.00 14.00
C 27.67 13.13 26.14 13.85 26.00 14.00 Z"/>
</g>
<g fill="#000000" fill-opacity="0.00" stroke="None">
<path d="
M 27.00 14.00 
C 27.00 14.00 26.16 13.77 26.00 14.00
C 23.20 17.18 20.13 21.73 16.00 23.00
C 14.65 21.76 13.33 18.59 11.00 21.00
C 12.43 23.33 14.72 25.43 17.00 27.00
C 17.64 23.48 29.80 17.42 27.00 14.00 Z"/>
</g>
</svg>