<svg xmlns="http://www.w3.org/2000/svg" xmlns:v="https://svgstorm.com"
viewBox = "0 0 28 18"
width="28"
height="18">
<g fill="None" fill-opacity="0.0" stroke="#000000" stroke-opacity="0.00" stroke-width="0.3"><path d="
M 0.00 18.00 
L 28.00 18.00
L 28.00 0.00
L 0.00 0.00
L 0.00 18.00
M 20.00 1.00 
C 19.52 3.66 23.53 4.32 23.00 7.00
C 17.00 7.00 11.00 7.00 5.00 7.00
C 4.52 4.34 8.53 3.68 8.00 1.00
C 12.00 1.00 16.00 1.00 20.00 1.00
M 23.00 8.00 
C 20.95 11.45 17.00 13.58 15.00 17.00
C 10.87 15.73 7.80 11.18 5.00 8.00
C 11.00 8.00 17.00 8.00 23.00 8.00 Z"/>
</g>
<g fill="None" fill-opacity="0.0" stroke="#FFDF00" stroke-opacity="0.73" stroke-width="0.3"><path d="
M 20.00 1.00 
C 16.00 1.00 12.00 1.00 8.00 1.00
C 8.53 3.68 4.52 4.34 5.00 7.00
C 11.00 7.00 17.00 7.00 23.00 7.00
C 23.53 4.32 19.52 3.66 20.00 1.00
M 12.00 4.00 
C 12.74 4.74 11.18 3.18 12.00 4.00
M 17.00 4.00 
C 17.74 4.74 16.18 3.18 17.00 4.00
M 13.00 5.00 
C 13.74 5.74 12.18 4.18 13.00 5.00
M 16.00 5.00 
C 16.74 5.74 15.18 4.18 16.00 5.00 Z"/>
</g>
<g fill="None" fill-opacity="0.0" stroke="#FED100" stroke-opacity="0.04" stroke-width="0.3"><path d="
M 12.00 4.00 
C 11.18 3.18 12.74 4.74 12.00 4.00 Z"/>
</g>
<g fill="None" fill-opacity="0.0" stroke="#FED100" stroke-opacity="0.04" stroke-width="0.3"><path d="
M 17.00 4.00 
C 16.18 3.18 17.74 4.74 17.00 4.00 Z"/>
</g>
<g fill="None" fill-opacity="0.0" stroke="#000000" stroke-opacity="0.00" stroke-width="0.3"><path d="
M 13.00 5.00 
C 12.18 4.18 13.74 5.74 13.00 5.00 Z"/>
</g>
<g fill="None" fill-opacity="0.0" stroke="#000000" stroke-opacity="0.00" stroke-width="0.3"><path d="
M 16.00 5.00 
C 15.18 4.18 16.74 5.74 16.00 5.00 Z"/>
</g>
<g fill="None" fill-opacity="0.0" stroke="#FEDF00" stroke-opacity="0.92" stroke-width="0.3"><path d="
M 23.00 8.00 
C 17.00 8.00 11.00 8.00 5.00 8.00
C 7.80 11.18 10.87 15.73 15.00 17.00
C 17.00 13.58 20.95 11.45 23.00 8.00 Z"/>
</g>
<g fill="#000000" fill-opacity="0.00" stroke="None">
<path d="
M 0.00 18.00 
L 28.00 18.00
L 28.00 0.00
L 0.00 0.00
L 0.00 18.00
M 20.00 1.00 
C 19.52 3.66 23.53 4.32 23.00 7.00
C 17.00 7.00 11.00 7.00 5.00 7.00
C 4.52 4.34 8.53 3.68 8.00 1.00
C 12.00 1.00 16.00 1.00 20.00 1.00
M 23.00 8.00 
C 20.95 11.45 17.00 13.58 15.00 17.00
C 10.87 15.73 7.80 11.18 5.00 8.00
C 11.00 8.00 17.00 8.00 23.00 8.00 Z"/>
</g>
<g fill="#FFDF00" fill-opacity="0.73" stroke="None">
<path d="
M 20.00 1.00 
C 16.00 1.00 12.00 1.00 8.00 1.00
C 8.53 3.68 4.52 4.34 5.00 7.00
C 11.00 7.00 17.00 7.00 23.00 7.00
C 23.53 4.32 19.52 3.66 20.00 1.00
M 12.00 4.00 
C 12.74 4.74 11.18 3.18 12.00 4.00
M 17.00 4.00 
C 17.74 4.74 16.18 3.18 17.00 4.00
M 13.00 5.00 
C 13.74 5.74 12.18 4.18 13.00 5.00
M 16.00 5.00 
C 16.74 5.74 15.18 4.18 16.00 5.00 Z"/>
</g>
<g fill="#FED100" fill-opacity="0.04" stroke="None">
<path d="
M 12.00 4.00 
C 11.18 3.18 12.74 4.74 12.00 4.00 Z"/>
</g>
<g fill="#FED100" fill-opacity="0.04" stroke="None">
<path d="
M 17.00 4.00 
C 16.18 3.18 17.74 4.74 17.00 4.00 Z"/>
</g>
<g fill="#000000" fill-opacity="0.00" stroke="None">
<path d="
M 13.00 5.00 
C 12.18 4.18 13.74 5.74 13.00 5.00 Z"/>
</g>
<g fill="#000000" fill-opacity="0.00" stroke="None">
<path d="
M 16.00 5.00 
C 15.18 4.18 16.74 5.74 16.00 5.00 Z"/>
</g>
<g fill="#FEDF00" fill-opacity="0.92" stroke="None">
<path d="
M 23.00 8.00 
C 17.00 8.00 11.00 8.00 5.00 8.00
C 7.80 11.18 10.87 15.73 15.00 17.00
C 17.00 13.58 20.95 11.45 23.00 8.00 Z"/>
</g>
</svg>