<svg xmlns="http://www.w3.org/2000/svg" xmlns:v="https://svgstorm.com"
viewBox = "0 0 42 43"
width="42"
height="43">
<g fill="None" fill-opacity="0.0" stroke="#000000" stroke-opacity="0.00" stroke-width="0.3"><path d="
M 0.00 17.00 
C 0.50 17.00 1.00 17.00 1.00 17.00
C 2.67 8.43 14.31 11.31 21.00 11.00 C 27.69 10.69 38.69 9.40 42.00 17.00
L 42.00 0.00
L 0.00 0.00
L 0.00 17.00 Z"/>
</g>
<g fill="None" fill-opacity="0.0" stroke="#B880D0" stroke-opacity="0.93" stroke-width="0.3"><path d="
M 1.00 17.00 
C 0.91 17.48 1.00 18.00 1.00 18.00
C 0.97 18.35 0.34 18.83 0.00 19.00
L 0.00 24.00
C 1.05 23.77 0.74 25.20 0.00 25.00
L 0.00 26.00
C 3.73 35.99 14.04 29.96 20.03 29.03 C 26.01 28.10 38.67 37.95 41.00 26.00
C 41.09 25.52 41.00 25.00 41.00 25.00
C 41.03 24.65 41.67 24.17 42.00 24.00
L 42.00 19.00
C 40.95 19.23 41.26 17.80 42.00 18.00
L 42.00 17.00
C 38.69 9.40 27.69 10.69 21.00 11.00 C 14.31 11.31 2.67 8.43 1.00 17.00
M 12.00 16.00 
C 10.57 20.01 14.17 19.45 16.00 21.00
C 15.91 24.11 10.09 22.24 12.00 27.00
C 7.57 28.19 10.23 20.90 5.00 23.00
C 6.23 19.99 8.85 17.23 12.00 16.00
M 37.00 19.00 
C 30.77 23.11 34.10 12.02 37.00 19.00
M 29.00 22.00 
C 29.74 22.74 28.18 21.18 29.00 22.00
M 31.00 22.00 
C 35.23 29.03 24.02 25.17 31.00 22.00
M 29.00 26.00 
C 29.74 26.74 28.18 25.18 29.00 26.00
M 33.00 26.00 
C 33.74 26.74 32.18 25.18 33.00 26.00 Z"/>
</g>
<g fill="None" fill-opacity="0.0" stroke="#000000" stroke-opacity="0.00" stroke-width="0.3"><path d="
M 12.00 16.00 
C 8.85 17.23 6.23 19.99 5.00 23.00
C 10.23 20.90 7.57 28.19 12.00 27.00
C 10.09 22.24 15.91 24.11 16.00 21.00
C 14.17 19.45 10.57 20.01 12.00 16.00 Z"/>
</g>
<g fill="None" fill-opacity="0.0" stroke="#000000" stroke-opacity="0.00" stroke-width="0.3"><path d="
M 37.00 19.00 
C 34.10 12.02 30.77 23.11 37.00 19.00 Z"/>
</g>
<g fill="None" fill-opacity="0.0" stroke="#B87FD1" stroke-opacity="0.28" stroke-width="0.3"><path d="
M 0.00 18.00 
C 0.50 18.00 1.00 18.00 1.00 18.00
C 1.00 18.00 0.91 17.48 1.00 17.00
C 1.00 17.00 0.50 17.00 0.00 17.00
L 0.00 18.00 Z"/>
</g>
<g fill="None" fill-opacity="0.0" stroke="#B780CF" stroke-opacity="0.58" stroke-width="0.3"><path d="
M 0.00 19.00 
C 0.34 18.83 0.97 18.35 1.00 18.00
C 1.00 18.00 0.50 18.00 0.00 18.00
L 0.00 19.00 Z"/>
</g>
<g fill="None" fill-opacity="0.0" stroke="#B780D0" stroke-opacity="0.60" stroke-width="0.3"><path d="
M 42.00 19.00 
L 42.00 18.00
C 41.26 17.80 40.95 19.23 42.00 19.00 Z"/>
</g>
<g fill="None" fill-opacity="0.0" stroke="#B780CF" stroke-opacity="0.69" stroke-width="0.3"><path d="
M 29.00 22.00 
C 28.18 21.18 29.74 22.74 29.00 22.00 Z"/>
</g>
<g fill="None" fill-opacity="0.0" stroke="#000000" stroke-opacity="0.00" stroke-width="0.3"><path d="
M 31.00 22.00 
C 24.02 25.17 35.23 29.03 31.00 22.00 Z"/>
</g>
<g fill="None" fill-opacity="0.0" stroke="#B880CF" stroke-opacity="0.52" stroke-width="0.3"><path d="
M 0.00 25.00 
C 0.74 25.20 1.05 23.77 0.00 24.00
L 0.00 25.00 Z"/>
</g>
<g fill="None" fill-opacity="0.0" stroke="#B781D0" stroke-opacity="0.57" stroke-width="0.3"><path d="
M 41.00 25.00 
C 41.25 24.75 42.00 25.00 42.00 25.00
L 42.00 24.00
C 41.67 24.17 41.03 24.65 41.00 25.00 Z"/>
</g>
<g fill="None" fill-opacity="0.0" stroke="#B981CE" stroke-opacity="0.29" stroke-width="0.3"><path d="
M 41.00 26.00 
C 41.25 26.25 42.00 26.00 42.00 26.00
L 42.00 25.00
C 42.00 25.00 41.25 24.75 41.00 25.00
C 41.00 25.00 41.09 25.52 41.00 26.00 Z"/>
</g>
<g fill="None" fill-opacity="0.0" stroke="#000000" stroke-opacity="0.00" stroke-width="0.3"><path d="
M 0.00 43.00 
L 42.00 43.00
L 42.00 26.00
C 42.00 26.00 41.25 26.25 41.00 26.00
C 38.67 37.95 26.01 28.10 20.03 29.03 C 14.04 29.96 3.73 35.99 0.00 26.00
L 0.00 43.00 Z"/>
</g>
<g fill="None" fill-opacity="0.0" stroke="#B77FCF" stroke-opacity="0.50" stroke-width="0.3"><path d="
M 29.00 26.00 
C 28.18 25.18 29.74 26.74 29.00 26.00 Z"/>
</g>
<g fill="None" fill-opacity="0.0" stroke="#B882D0" stroke-opacity="0.69" stroke-width="0.3"><path d="
M 33.00 26.00 
C 32.18 25.18 33.74 26.74 33.00 26.00 Z"/>
</g>
<g fill="#000000" fill-opacity="0.00" stroke="None">
<path d="
M 0.00 17.00 
C 0.50 17.00 1.00 17.00 1.00 17.00
C 2.67 8.43 14.31 11.31 21.00 11.00 C 27.69 10.69 38.69 9.40 42.00 17.00
L 42.00 0.00
L 0.00 0.00
L 0.00 17.00 Z"/>
</g>
<g fill="#B880D0" fill-opacity="0.93" stroke="None">
<path d="
M 1.00 17.00 
C 0.91 17.48 1.00 18.00 1.00 18.00
C 0.97 18.35 0.34 18.83 0.00 19.00
L 0.00 24.00
C 1.05 23.77 0.74 25.20 0.00 25.00
L 0.00 26.00
C 3.73 35.99 14.04 29.96 20.03 29.03 C 26.01 28.10 38.67 37.95 41.00 26.00
C 41.09 25.52 41.00 25.00 41.00 25.00
C 41.03 24.65 41.67 24.17 42.00 24.00
L 42.00 19.00
C 40.95 19.23 41.26 17.80 42.00 18.00
L 42.00 17.00
C 38.69 9.40 27.69 10.69 21.00 11.00 C 14.31 11.31 2.67 8.43 1.00 17.00
M 12.00 16.00 
C 10.57 20.01 14.17 19.45 16.00 21.00
C 15.91 24.11 10.09 22.24 12.00 27.00
C 7.57 28.19 10.23 20.90 5.00 23.00
C 6.23 19.99 8.85 17.23 12.00 16.00
M 37.00 19.00 
C 30.77 23.11 34.10 12.02 37.00 19.00
M 29.00 22.00 
C 29.74 22.74 28.18 21.18 29.00 22.00
M 31.00 22.00 
C 35.23 29.03 24.02 25.17 31.00 22.00
M 29.00 26.00 
C 29.74 26.74 28.18 25.18 29.00 26.00
M 33.00 26.00 
C 33.74 26.74 32.18 25.18 33.00 26.00 Z"/>
</g>
<g fill="#000000" fill-opacity="0.00" stroke="None">
<path d="
M 12.00 16.00 
C 8.85 17.23 6.23 19.99 5.00 23.00
C 10.23 20.90 7.57 28.19 12.00 27.00
C 10.09 22.24 15.91 24.11 16.00 21.00
C 14.17 19.45 10.57 20.01 12.00 16.00 Z"/>
</g>
<g fill="#000000" fill-opacity="0.00" stroke="None">
<path d="
M 37.00 19.00 
C 34.10 12.02 30.77 23.11 37.00 19.00 Z"/>
</g>
<g fill="#B87FD1" fill-opacity="0.28" stroke="None">
<path d="
M 0.00 18.00 
C 0.50 18.00 1.00 18.00 1.00 18.00
C 1.00 18.00 0.91 17.48 1.00 17.00
C 1.00 17.00 0.50 17.00 0.00 17.00
L 0.00 18.00 Z"/>
</g>
<g fill="#B780CF" fill-opacity="0.58" stroke="None">
<path d="
M 0.00 19.00 
C 0.34 18.83 0.97 18.35 1.00 18.00
C 1.00 18.00 0.50 18.00 0.00 18.00
L 0.00 19.00 Z"/>
</g>
<g fill="#B780D0" fill-opacity="0.60" stroke="None">
<path d="
M 42.00 19.00 
L 42.00 18.00
C 41.26 17.80 40.95 19.23 42.00 19.00 Z"/>
</g>
<g fill="#B780CF" fill-opacity="0.69" stroke="None">
<path d="
M 29.00 22.00 
C 28.18 21.18 29.74 22.74 29.00 22.00 Z"/>
</g>
<g fill="#000000" fill-opacity="0.00" stroke="None">
<path d="
M 31.00 22.00 
C 24.02 25.17 35.23 29.03 31.00 22.00 Z"/>
</g>
<g fill="#B880CF" fill-opacity="0.52" stroke="None">
<path d="
M 0.00 25.00 
C 0.74 25.20 1.05 23.77 0.00 24.00
L 0.00 25.00 Z"/>
</g>
<g fill="#B781D0" fill-opacity="0.57" stroke="None">
<path d="
M 41.00 25.00 
C 41.25 24.75 42.00 25.00 42.00 25.00
L 42.00 24.00
C 41.67 24.17 41.03 24.65 41.00 25.00 Z"/>
</g>
<g fill="#B981CE" fill-opacity="0.29" stroke="None">
<path d="
M 41.00 26.00 
C 41.25 26.25 42.00 26.00 42.00 26.00
L 42.00 25.00
C 42.00 25.00 41.25 24.75 41.00 25.00
C 41.00 25.00 41.09 25.52 41.00 26.00 Z"/>
</g>
<g fill="#000000" fill-opacity="0.00" stroke="None">
<path d="
M 0.00 43.00 
L 42.00 43.00
L 42.00 26.00
C 42.00 26.00 41.25 26.25 41.00 26.00
C 38.67 37.95 26.01 28.10 20.03 29.03 C 14.04 29.96 3.73 35.99 0.00 26.00
L 0.00 43.00 Z"/>
</g>
<g fill="#B77FCF" fill-opacity="0.50" stroke="None">
<path d="
M 29.00 26.00 
C 28.18 25.18 29.74 26.74 29.00 26.00 Z"/>
</g>
<g fill="#B882D0" fill-opacity="0.69" stroke="None">
<path d="
M 33.00 26.00 
C 32.18 25.18 33.74 26.74 33.00 26.00 Z"/>
</g>
</svg>