<svg xmlns="http://www.w3.org/2000/svg" xmlns:v="https://svgstorm.com"
viewBox = "0 0 42 38"
width="42"
height="38">
<g fill="None" fill-opacity="0.0" stroke="#000000" stroke-opacity="0.00" stroke-width="0.3"><path d="
M 0.00 38.00 
L 42.00 38.00
L 42.00 0.00
L 0.00 0.00
L 0.00 38.00
M 10.00 11.00 
C 10.17 10.67 10.79 10.27 11.00 10.00
C 17.60 -0.68 35.88 3.87 36.99 17.01 C 38.11 30.14 22.79 39.39 12.00 30.00
C 15.12 22.58 23.41 33.82 29.75 26.75 C 36.08 19.68 32.14 12.24 24.97 9.03 C 17.81 5.81 6.32 18.76 17.00 19.00
C 15.58 21.76 12.35 23.27 11.00 26.00
C 7.60 25.32 5.10 21.56 3.00 19.00
C 9.08 20.95 7.87 14.42 10.00 11.00
M 24.00 12.00 
C 20.55 18.98 29.72 20.09 28.00 25.00
C 21.60 24.89 17.19 13.19 24.00 12.00 Z"/>
</g>
<g fill="None" fill-opacity="0.0" stroke="#7293CC" stroke-opacity="0.73" stroke-width="0.3"><path d="
M 11.00 10.00 
C 10.80 10.32 10.18 10.73 10.00 11.00
C 7.87 14.42 9.08 20.95 3.00 19.00
C 5.10 21.56 7.60 25.32 11.00 26.00
C 12.35 23.27 15.58 21.76 17.00 19.00
C 6.32 18.76 17.81 5.81 24.97 9.03 C 32.14 12.24 36.08 19.68 29.75 26.75 C 23.41 33.82 15.12 22.58 12.00 30.00
C 22.79 39.39 38.11 30.14 36.99 17.01 C 35.88 3.87 17.60 -0.68 11.00 10.00 Z"/>
</g>
<g fill="None" fill-opacity="0.0" stroke="#55AAAA" stroke-opacity="0.01" stroke-width="0.3"><path d="
M 10.00 11.00 
C 10.18 10.73 10.80 10.32 11.00 10.00
C 10.79 10.27 10.17 10.67 10.00 11.00 Z"/>
</g>
<g fill="None" fill-opacity="0.0" stroke="#7293CD" stroke-opacity="0.70" stroke-width="0.3"><path d="
M 24.00 12.00 
C 17.19 13.19 21.60 24.89 28.00 25.00
C 29.72 20.09 20.55 18.98 24.00 12.00 Z"/>
</g>
<g fill="#000000" fill-opacity="0.00" stroke="None">
<path d="
M 0.00 38.00 
L 42.00 38.00
L 42.00 0.00
L 0.00 0.00
L 0.00 38.00
M 10.00 11.00 
C 10.17 10.67 10.79 10.27 11.00 10.00
C 17.60 -0.68 35.88 3.87 36.99 17.01 C 38.11 30.14 22.79 39.39 12.00 30.00
C 15.12 22.58 23.41 33.82 29.75 26.75 C 36.08 19.68 32.14 12.24 24.97 9.03 C 17.81 5.81 6.32 18.76 17.00 19.00
C 15.58 21.76 12.35 23.27 11.00 26.00
C 7.60 25.32 5.10 21.56 3.00 19.00
C 9.08 20.95 7.87 14.42 10.00 11.00
M 24.00 12.00 
C 20.55 18.98 29.72 20.09 28.00 25.00
C 21.60 24.89 17.19 13.19 24.00 12.00 Z"/>
</g>
<g fill="#7293CC" fill-opacity="0.73" stroke="None">
<path d="
M 11.00 10.00 
C 10.80 10.32 10.18 10.73 10.00 11.00
C 7.87 14.42 9.08 20.95 3.00 19.00
C 5.10 21.56 7.60 25.32 11.00 26.00
C 12.35 23.27 15.58 21.76 17.00 19.00
C 6.32 18.76 17.81 5.81 24.97 9.03 C 32.14 12.24 36.08 19.68 29.75 26.75 C 23.41 33.82 15.12 22.58 12.00 30.00
C 22.79 39.39 38.11 30.14 36.99 17.01 C 35.88 3.87 17.60 -0.68 11.00 10.00 Z"/>
</g>
<g fill="#55AAAA" fill-opacity="0.01" stroke="None">
<path d="
M 10.00 11.00 
C 10.18 10.73 10.80 10.32 11.00 10.00
C 10.79 10.27 10.17 10.67 10.00 11.00 Z"/>
</g>
<g fill="#7293CD" fill-opacity="0.70" stroke="None">
<path d="
M 24.00 12.00 
C 17.19 13.19 21.60 24.89 28.00 25.00
C 29.72 20.09 20.55 18.98 24.00 12.00 Z"/>
</g>
</svg>