<svg xmlns="http://www.w3.org/2000/svg" xmlns:v="https://svgstorm.com"
viewBox = "0 0 30 26"
width="30"
height="26">
<g fill="None" fill-opacity="0.0" stroke="#000000" stroke-opacity="0.00" stroke-width="0.3"><path d="
M 0.00 26.00 
L 5.00 26.00
C 5.00 17.33 5.00 8.67 5.00 0.00
L 0.00 0.00
L 0.00 26.00 Z"/>
</g>
<g fill="None" fill-opacity="0.0" stroke="#9DD6A0" stroke-opacity="0.95" stroke-width="0.3"><path d="
M 5.00 26.00 
L 7.00 26.00
C 11.35 20.45 18.68 20.48 23.00 26.00
L 25.00 26.00
C 25.00 17.33 25.00 8.67 25.00 0.00
L 5.00 0.00
C 5.00 8.67 5.00 17.33 5.00 26.00 Z"/>
</g>
<g fill="None" fill-opacity="0.0" stroke="#000000" stroke-opacity="0.00" stroke-width="0.3"><path d="
M 25.00 26.00 
L 30.00 26.00
L 30.00 0.00
L 25.00 0.00
C 25.00 8.67 25.00 17.33 25.00 26.00 Z"/>
</g>
<g fill="None" fill-opacity="0.0" stroke="#000000" stroke-opacity="0.00" stroke-width="0.3"><path d="
M 7.00 26.00 
L 23.00 26.00
C 18.68 20.48 11.35 20.45 7.00 26.00 Z"/>
</g>
<g fill="#000000" fill-opacity="0.00" stroke="None">
<path d="
M 0.00 26.00 
L 5.00 26.00
C 5.00 17.33 5.00 8.67 5.00 0.00
L 0.00 0.00
L 0.00 26.00 Z"/>
</g>
<g fill="#9DD6A0" fill-opacity="0.95" stroke="None">
<path d="
M 5.00 26.00 
L 7.00 26.00
C 11.35 20.45 18.68 20.48 23.00 26.00
L 25.00 26.00
C 25.00 17.33 25.00 8.67 25.00 0.00
L 5.00 0.00
C 5.00 8.67 5.00 17.33 5.00 26.00 Z"/>
</g>
<g fill="#000000" fill-opacity="0.00" stroke="None">
<path d="
M 25.00 26.00 
L 30.00 26.00
L 30.00 0.00
L 25.00 0.00
C 25.00 8.67 25.00 17.33 25.00 26.00 Z"/>
</g>
<g fill="#000000" fill-opacity="0.00" stroke="None">
<path d="
M 7.00 26.00 
L 23.00 26.00
C 18.68 20.48 11.35 20.45 7.00 26.00 Z"/>
</g>
</svg>