<svg xmlns="http://www.w3.org/2000/svg" xmlns:v="https://svgstorm.com"
viewBox = "0 0 161 150"
width="161"
height="150">
<g fill="None" fill-opacity="0.0" stroke="#000000" stroke-opacity="0.00" stroke-width="0.3"><path d="
M 0.00 150.00 
L 161.00 150.00
L 161.00 0.00
L 0.00 0.00
L 0.00 150.00
M 136.00 34.00 
C 135.95 35.94 136.74 38.85 135.00 40.00
C 134.86 42.84 132.19 41.82 130.00 42.00
C 126.62 42.28 110.50 43.88 111.00 39.00
C 110.62 37.18 111.00 34.86 111.00 33.00
C 111.00 26.67 111.00 20.33 111.00 14.00
C 111.00 13.50 110.88 12.47 111.00 12.00
C 112.32 6.91 121.34 11.58 126.00 10.00 C 130.66 8.42 137.48 10.56 136.00 17.00 C 134.52 23.44 136.18 27.73 136.00 34.00
M 107.00 41.00 
C 106.38 45.22 93.33 42.60 90.00 42.00
C 85.43 42.09 73.37 47.05 71.00 41.00
C 71.00 48.23 71.65 55.80 71.00 63.00
C 69.84 67.67 61.26 68.09 56.00 68.00 C 50.74 67.91 40.70 68.00 35.00 68.00
C 23.79 68.00 20.47 60.88 23.00 51.00 C 25.53 41.12 17.83 29.98 26.00 24.00
C 26.23 19.95 41.29 22.43 46.00 22.00 C 50.71 21.57 62.64 22.00 68.00 22.00
C 68.50 22.00 69.00 22.00 69.00 22.00
C 69.50 22.00 70.00 22.00 70.00 22.00
C 72.20 19.16 71.48 12.94 76.00 12.00
C 86.09 11.09 97.91 11.09 108.00 12.00
C 110.45 14.36 108.85 23.73 109.00 27.00 C 109.15 30.27 110.49 40.80 107.00 41.00
M 136.00 72.00 
C 135.17 75.86 121.19 74.00 118.00 74.00
C 117.50 74.00 117.00 74.00 117.00 74.00
C 115.10 74.28 111.53 74.46 111.00 72.00
C 110.70 69.76 111.00 67.26 111.00 65.00
C 111.00 60.22 108.10 46.56 112.26 43.26 C 116.42 39.96 130.88 45.20 136.00 43.00
C 136.00 52.67 136.00 62.33 136.00 72.00
M 108.00 76.00 
C 107.68 76.59 107.00 77.29 107.00 78.00
C 107.00 78.32 107.84 79.71 108.00 80.00
C 109.55 82.82 109.52 88.40 109.00 92.00 C 108.48 95.60 110.47 101.70 109.00 105.00
C 107.49 106.81 105.08 107.06 108.00 109.00
C 110.86 111.76 108.77 121.94 109.00 126.00
C 109.13 128.24 109.18 129.71 109.00 132.00
C 108.88 133.53 109.43 135.54 109.00 137.00
C 107.22 143.08 94.08 139.53 90.00 138.00
C 83.89 138.55 78.23 138.47 73.00 138.00
C 69.14 138.47 64.66 141.89 64.00 135.00
C 63.87 133.70 64.00 132.31 64.00 131.00
C 64.00 126.12 60.92 106.83 69.00 108.00
C 66.96 106.49 63.35 106.54 61.00 108.00
C 60.68 108.20 60.05 108.65 60.00 109.00
C 58.89 116.72 63.19 130.76 59.00 137.00
C 56.39 140.88 49.36 140.09 46.00 140.00
C 40.17 139.85 33.79 139.85 28.00 140.00 C 22.21 140.15 22.21 130.92 23.00 127.00 C 23.79 123.08 20.52 112.34 25.00 111.00
C 25.40 108.92 25.83 107.25 26.00 105.00
C 26.83 93.70 21.41 76.53 32.00 70.00
C 32.00 80.67 32.00 91.33 32.00 102.00
C 40.61 102.58 49.40 101.22 58.00 102.00
C 58.00 100.33 58.00 98.67 58.00 97.00
C 58.00 89.82 58.29 83.07 59.00 76.00
C 59.17 74.35 58.87 72.65 59.00 71.00
C 62.65 71.18 67.31 69.65 72.00 69.00
C 73.33 69.09 74.67 68.93 76.00 69.00
C 75.07 62.77 73.40 54.39 77.00 49.00
C 79.98 44.42 90.48 50.01 96.00 48.00 C 101.52 45.99 111.63 48.18 109.00 56.00 C 106.37 63.82 111.70 69.29 108.00 76.00
M 135.00 106.00 
C 134.43 106.94 134.11 106.86 133.00 107.00
C 125.78 107.89 118.25 106.33 111.00 107.00
C 112.09 104.25 109.22 100.77 111.00 99.00
C 110.77 96.41 111.71 89.08 111.00 87.00 C 110.29 84.92 111.84 76.03 113.00 77.00
C 116.04 75.61 129.81 75.88 133.00 77.00
C 137.38 78.48 136.54 85.61 136.00 90.00 C 135.46 94.39 137.88 102.38 135.00 106.00
M 135.00 109.00 
C 137.67 111.57 135.75 117.97 136.00 122.00 C 136.25 126.03 136.38 132.78 136.00 137.00
C 135.25 141.28 127.94 140.12 125.00 140.00
C 122.18 139.89 111.83 141.75 111.00 137.00
C 110.70 134.76 111.00 132.26 111.00 130.00
C 111.00 125.05 108.36 110.06 114.00 108.00
C 118.12 106.50 126.58 107.74 131.00 108.00
C 132.28 108.07 134.49 107.38 135.00 109.00 Z"/>
</g>
<g fill="None" fill-opacity="0.0" stroke="#F4DAB5" stroke-opacity="0.07" stroke-width="0.3"><path d="
M 111.00 12.00 
C 112.83 9.64 119.14 11.07 122.00 11.00 C 124.86 10.93 131.97 9.97 134.00 12.00
C 136.77 13.36 135.00 28.79 135.00 32.00
C 135.00 32.50 135.00 33.50 135.00 34.00
C 135.34 34.23 136.00 34.00 136.00 34.00
C 136.18 27.73 134.52 23.44 136.00 17.00 C 137.48 10.56 130.66 8.42 126.00 10.00 C 121.34 11.58 112.32 6.91 111.00 12.00 Z"/>
</g>
<g fill="None" fill-opacity="0.0" stroke="#F5E7BC" stroke-opacity="0.58" stroke-width="0.3"><path d="
M 111.00 12.00 
C 110.88 12.47 111.00 13.50 111.00 14.00
C 111.34 14.23 112.00 14.00 112.00 14.00
C 113.86 9.91 126.95 12.00 131.00 12.00
C 131.68 12.00 133.40 11.71 134.00 12.00
C 131.97 9.97 124.86 10.93 122.00 11.00 C 119.14 11.07 112.83 9.64 111.00 12.00 Z"/>
</g>
<g fill="None" fill-opacity="0.0" stroke="#EAE8EA" stroke-opacity="0.20" stroke-width="0.3"><path d="
M 70.00 22.00 
C 72.97 25.68 71.00 36.37 71.00 41.00
C 73.37 47.05 85.43 42.09 90.00 42.00
C 86.10 41.30 73.01 44.54 73.01 37.99 C 73.01 31.44 71.39 20.18 75.00 15.00
C 75.19 13.42 75.29 14.07 76.00 13.00
C 76.23 12.65 76.00 12.00 76.00 12.00
C 71.48 12.94 72.20 19.16 70.00 22.00 Z"/>
</g>
<g fill="None" fill-opacity="0.0" stroke="#C8C9DE" stroke-opacity="0.37" stroke-width="0.3"><path d="
M 76.00 13.00 
C 86.09 13.91 97.91 13.91 108.00 13.00
C 108.00 12.50 108.00 12.00 108.00 12.00
C 97.91 11.09 86.09 11.09 76.00 12.00
C 76.00 12.00 76.23 12.65 76.00 13.00 Z"/>
</g>
<g fill="None" fill-opacity="0.0" stroke="#ACACD0" stroke-opacity="0.04" stroke-width="0.3"><path d="
M 108.00 13.00 
C 108.00 21.37 109.19 30.73 108.00 39.00
C 107.95 39.35 107.12 39.74 107.00 40.00
C 106.81 40.41 107.00 41.00 107.00 41.00
C 110.49 40.80 109.15 30.27 109.00 27.00 C 108.85 23.73 110.45 14.36 108.00 12.00
C 108.00 12.00 108.00 12.50 108.00 13.00 Z"/>
</g>
<g fill="None" fill-opacity="0.0" stroke="#F8D06B" stroke-opacity="1.00" stroke-width="0.3"><path d="
M 112.00 14.00 
C 112.53 19.89 112.00 26.08 112.00 32.00
C 112.05 32.23 112.92 32.65 113.00 33.00
C 115.00 33.08 117.00 32.94 119.00 33.00
C 119.00 35.00 119.00 37.00 119.00 39.00
C 121.24 38.70 123.74 39.00 126.00 39.00
C 125.59 36.74 126.31 34.28 126.00 32.00
C 133.45 30.45 129.91 18.29 131.00 12.00
C 126.95 12.00 113.86 9.91 112.00 14.00 Z"/>
</g>
<g fill="None" fill-opacity="0.0" stroke="#F5BA64" stroke-opacity="0.99" stroke-width="0.3"><path d="
M 126.00 39.00 
C 126.50 39.00 127.00 39.00 127.00 39.00
C 126.65 34.89 129.98 29.88 135.00 32.00
C 135.00 28.79 136.77 13.36 134.00 12.00
C 133.40 11.71 131.68 12.00 131.00 12.00
C 129.91 18.29 133.45 30.45 126.00 32.00
C 126.31 34.28 125.59 36.74 126.00 39.00 Z"/>
</g>
<g fill="None" fill-opacity="0.0" stroke="#A8AAD4" stroke-opacity="0.99" stroke-width="0.3"><path d="
M 75.00 15.00 
C 74.40 19.83 75.00 25.13 75.00 30.00
C 75.16 28.93 76.90 26.74 76.00 25.00
C 86.12 25.73 96.60 26.15 107.00 25.00
C 107.64 29.50 105.70 35.33 108.00 39.00
C 109.19 30.73 108.00 21.37 108.00 13.00
C 97.91 13.91 86.09 13.91 76.00 13.00
C 75.29 14.07 75.19 13.42 75.00 15.00 Z"/>
</g>
<g fill="None" fill-opacity="0.0" stroke="#FADA9F" stroke-opacity="0.03" stroke-width="0.3"><path d="
M 111.00 33.00 
C 111.02 32.90 112.00 33.00 112.00 33.00
C 112.00 32.50 112.00 32.00 112.00 32.00
C 112.00 26.08 112.53 19.89 112.00 14.00
C 112.00 14.00 111.34 14.23 111.00 14.00
C 111.00 20.33 111.00 26.67 111.00 33.00 Z"/>
</g>
<g fill="None" fill-opacity="0.0" stroke="#D8D8DF" stroke-opacity="0.81" stroke-width="0.3"><path d="
M 90.00 42.00 
C 93.33 42.60 106.38 45.22 107.00 41.00
C 107.00 41.00 106.81 40.41 107.00 40.00
C 96.55 41.50 85.50 38.87 75.00 40.00
C 75.00 36.67 75.00 33.33 75.00 30.00
C 75.00 25.13 74.40 19.83 75.00 15.00
C 71.39 20.18 73.01 31.44 73.01 37.99 C 73.01 44.54 86.10 41.30 90.00 42.00 Z"/>
</g>
<g fill="None" fill-opacity="0.0" stroke="#F8EEC9" stroke-opacity="0.85" stroke-width="0.3"><path d="
M 26.00 24.00 
C 26.33 23.76 27.00 24.00 27.00 24.00
C 32.64 20.78 40.89 24.51 47.00 23.00 C 53.11 21.49 63.05 25.66 68.00 22.00
C 62.64 22.00 50.71 21.57 46.00 22.00 C 41.29 22.43 26.23 19.95 26.00 24.00 Z"/>
</g>
<g fill="None" fill-opacity="0.0" stroke="#FAD789" stroke-opacity="1.00" stroke-width="0.3"><path d="
M 27.00 24.00 
C 27.87 33.62 27.67 39.89 27.00 50.00 C 26.33 60.11 27.92 65.60 39.00 64.00 C 50.08 62.40 55.40 64.61 66.00 64.00
C 67.87 63.89 68.73 64.30 70.00 63.00
C 69.43 56.73 71.09 48.00 70.00 42.00 C 68.91 36.00 72.82 26.73 69.00 22.00
C 69.00 22.00 68.50 22.00 68.00 22.00
C 63.05 25.66 53.11 21.49 47.00 23.00 C 40.89 24.51 32.64 20.78 27.00 24.00 Z"/>
</g>
<g fill="None" fill-opacity="0.0" stroke="#F5E3B0" stroke-opacity="0.38" stroke-width="0.3"><path d="
M 70.00 63.00 
C 70.24 62.75 71.00 63.00 71.00 63.00
C 71.65 55.80 71.00 48.23 71.00 41.00
C 71.00 36.37 72.97 25.68 70.00 22.00
C 70.00 22.00 69.50 22.00 69.00 22.00
C 72.82 26.73 68.91 36.00 70.00 42.00 C 71.09 48.00 69.43 56.73 70.00 63.00 Z"/>
</g>
<g fill="None" fill-opacity="0.0" stroke="#E1DDD9" stroke-opacity="0.73" stroke-width="0.3"><path d="
M 35.00 68.00 
C 45.05 67.03 57.77 67.35 66.00 64.00
C 55.40 64.61 50.08 62.40 39.00 64.00 C 27.92 65.60 26.33 60.11 27.00 50.00 C 27.67 39.89 27.87 33.62 27.00 24.00
C 27.00 24.00 26.33 23.76 26.00 24.00
C 17.83 29.98 25.53 41.12 23.00 51.00 C 20.47 60.88 23.79 68.00 35.00 68.00 Z"/>
</g>
<g fill="None" fill-opacity="0.0" stroke="#9899CE" stroke-opacity="1.00" stroke-width="0.3"><path d="
M 75.00 30.00 
C 75.00 33.33 75.00 36.67 75.00 40.00
C 85.50 38.87 96.55 41.50 107.00 40.00
C 107.12 39.74 107.95 39.35 108.00 39.00
C 105.70 35.33 107.64 29.50 107.00 25.00
C 96.60 26.15 86.12 25.73 76.00 25.00
C 76.90 26.74 75.16 28.93 75.00 30.00 Z"/>
</g>
<g fill="None" fill-opacity="0.0" stroke="#9CCF9F" stroke-opacity="0.84" stroke-width="0.3"><path d="
M 112.00 33.00 
C 112.00 34.86 111.62 37.18 112.00 39.00
C 112.02 39.10 113.00 39.00 113.00 39.00
C 113.31 37.51 113.35 34.48 113.00 33.00
C 112.92 32.65 112.05 32.23 112.00 32.00
C 112.00 32.00 112.00 32.50 112.00 33.00 Z"/>
</g>
<g fill="None" fill-opacity="0.0" stroke="#F39855" stroke-opacity="0.98" stroke-width="0.3"><path d="
M 127.00 39.00 
C 129.33 39.00 131.67 39.00 134.00 39.00
C 134.50 39.00 135.00 39.00 135.00 39.00
C 135.00 37.33 135.00 35.67 135.00 34.00
C 135.00 33.50 135.00 32.50 135.00 32.00
C 129.98 29.88 126.65 34.89 127.00 39.00 Z"/>
</g>
<g fill="None" fill-opacity="0.0" stroke="#95D4AA" stroke-opacity="0.02" stroke-width="0.3"><path d="
M 111.00 39.00 
C 111.02 39.10 112.00 39.00 112.00 39.00
C 111.62 37.18 112.00 34.86 112.00 33.00
C 112.00 33.00 111.02 32.90 111.00 33.00
C 111.00 34.86 110.62 37.18 111.00 39.00 Z"/>
</g>
<g fill="None" fill-opacity="0.0" stroke="#76C277" stroke-opacity="1.00" stroke-width="0.3"><path d="
M 113.00 39.00 
C 114.94 39.30 117.08 38.60 119.00 39.00
C 119.00 37.00 119.00 35.00 119.00 33.00
C 117.00 32.94 115.00 33.08 113.00 33.00
C 113.35 34.48 113.31 37.51 113.00 39.00 Z"/>
</g>
<g fill="None" fill-opacity="0.0" stroke="#E8B3A2" stroke-opacity="0.07" stroke-width="0.3"><path d="
M 135.00 39.00 
C 135.00 39.50 135.00 40.00 135.00 40.00
C 136.74 38.85 135.95 35.94 136.00 34.00
C 136.00 34.00 135.34 34.23 135.00 34.00
C 135.00 35.67 135.00 37.33 135.00 39.00 Z"/>
</g>
<g fill="None" fill-opacity="0.0" stroke="#E3E3E3" stroke-opacity="0.02" stroke-width="0.3"><path d="
M 130.00 42.00 
C 127.07 41.97 121.60 41.33 118.00 41.00
C 115.44 41.69 112.65 41.43 112.00 39.00
C 112.00 39.00 111.02 39.10 111.00 39.00
C 110.50 43.88 126.62 42.28 130.00 42.00 Z"/>
</g>
<g fill="None" fill-opacity="0.0" stroke="#DDE3DD" stroke-opacity="0.71" stroke-width="0.3"><path d="
M 118.00 41.00 
C 117.96 41.00 118.00 40.00 118.00 40.00
C 116.05 40.24 114.29 40.24 113.00 39.00
C 113.00 39.00 112.02 39.10 112.00 39.00
C 112.65 41.43 115.44 41.69 118.00 41.00 Z"/>
</g>
<g fill="None" fill-opacity="0.0" stroke="#B8D3BA" stroke-opacity="0.99" stroke-width="0.3"><path d="
M 118.00 40.00 
C 118.49 39.94 119.00 40.00 119.00 40.00
C 119.25 39.75 119.00 39.00 119.00 39.00
C 117.08 38.60 114.94 39.30 113.00 39.00
C 114.29 40.24 116.05 40.24 118.00 40.00 Z"/>
</g>
<g fill="None" fill-opacity="0.0" stroke="#DDC8B7" stroke-opacity="0.98" stroke-width="0.3"><path d="
M 119.00 40.00 
C 123.19 40.00 130.85 41.33 134.00 39.00
C 131.67 39.00 129.33 39.00 127.00 39.00
C 127.00 39.00 126.50 39.00 126.00 39.00
C 123.74 39.00 121.24 38.70 119.00 39.00
C 119.00 39.00 119.25 39.75 119.00 40.00 Z"/>
</g>
<g fill="None" fill-opacity="0.0" stroke="#E2DAD8" stroke-opacity="0.48" stroke-width="0.3"><path d="
M 119.00 40.00 
C 119.00 40.00 118.49 39.94 118.00 40.00
C 118.00 40.00 117.96 41.00 118.00 41.00
C 121.60 41.33 127.07 41.97 130.00 42.00
C 132.19 41.82 134.86 42.84 135.00 40.00
C 135.00 40.00 135.00 39.50 135.00 39.00
C 135.00 39.00 134.50 39.00 134.00 39.00
C 130.85 41.33 123.19 40.00 119.00 40.00 Z"/>
</g>
<g fill="None" fill-opacity="0.0" stroke="#AEDEDF" stroke-opacity="0.10" stroke-width="0.3"><path d="
M 111.00 65.00 
C 111.01 64.93 112.00 65.00 112.00 65.00
C 111.62 60.82 110.26 47.74 113.00 45.00
C 114.61 43.39 133.82 40.75 134.92 46.08 C 136.01 51.42 134.44 65.82 135.00 72.00
C 135.50 72.00 136.00 72.00 136.00 72.00
C 136.00 62.33 136.00 52.67 136.00 43.00
C 130.88 45.20 116.42 39.96 112.26 43.26 C 108.10 46.56 111.00 60.22 111.00 65.00 Z"/>
</g>
<g fill="None" fill-opacity="0.0" stroke="#74D2D3" stroke-opacity="0.99" stroke-width="0.3"><path d="
M 113.00 45.00 
C 110.91 47.99 113.00 60.18 113.00 64.00
C 115.83 63.74 122.14 63.07 124.00 65.00
C 124.31 67.29 123.77 69.70 124.00 72.00
C 127.00 72.00 130.00 72.00 133.00 72.00
C 133.50 72.00 134.50 72.00 135.00 72.00
C 134.44 65.82 136.01 51.42 134.92 46.08 C 133.82 40.75 114.61 43.39 113.00 45.00 Z"/>
</g>
<g fill="None" fill-opacity="0.0" stroke="#A1D8D5" stroke-opacity="0.84" stroke-width="0.3"><path d="
M 112.00 65.00 
C 112.02 64.90 113.00 65.00 113.00 65.00
C 113.25 64.75 113.00 64.00 113.00 64.00
C 113.00 60.18 110.91 47.99 113.00 45.00
C 110.26 47.74 111.62 60.82 112.00 65.00 Z"/>
</g>
<g fill="None" fill-opacity="0.0" stroke="#F1D3B1" stroke-opacity="0.30" stroke-width="0.3"><path d="
M 77.00 49.00 
C 76.77 49.35 77.15 50.55 77.00 51.00
C 77.34 51.23 78.00 51.00 78.00 51.00
C 79.76 47.14 90.28 49.00 94.00 49.00
C 98.33 49.00 102.67 49.00 107.00 49.00
C 107.00 50.00 107.00 51.00 107.00 52.00
C 108.40 56.30 108.36 72.80 106.00 76.00
C 105.78 76.30 105.35 76.95 105.00 77.00
C 105.51 76.96 107.01 77.37 108.00 76.00
C 111.70 69.29 106.37 63.82 109.00 56.00 C 111.63 48.18 101.52 45.99 96.00 48.00 C 90.48 50.01 79.98 44.42 77.00 49.00 Z"/>
</g>
<g fill="None" fill-opacity="0.0" stroke="#F2F1F0" stroke-opacity="0.05" stroke-width="0.3"><path d="
M 72.00 69.00 
C 72.03 69.00 72.00 70.00 72.00 70.00
C 73.52 70.48 75.45 69.64 77.00 70.00
C 76.40 63.95 74.69 56.94 77.00 51.00
C 77.15 50.55 76.77 49.35 77.00 49.00
C 73.40 54.39 75.07 62.77 76.00 69.00
C 74.67 68.93 73.33 69.09 72.00 69.00 Z"/>
</g>
<g fill="None" fill-opacity="0.0" stroke="#F7C977" stroke-opacity="1.00" stroke-width="0.3"><path d="
M 78.00 51.00 
C 78.57 57.28 77.57 63.71 78.00 70.00
C 80.33 70.00 82.67 70.00 85.00 70.00
C 85.09 70.02 87.03 71.07 87.00 71.00
C 85.31 63.95 86.88 57.37 87.00 50.00
C 89.19 49.48 92.62 51.14 94.00 49.00
C 90.28 49.00 79.76 47.14 78.00 51.00 Z"/>
</g>
<g fill="None" fill-opacity="0.0" stroke="#F7B362" stroke-opacity="1.00" stroke-width="0.3"><path d="
M 87.00 71.00 
C 87.38 72.58 86.71 74.40 87.00 76.00
C 89.33 76.00 91.67 76.00 94.00 76.00
C 93.00 71.53 94.56 61.83 95.75 58.75 C 96.95 55.68 105.52 49.69 107.00 52.00
C 107.00 51.00 107.00 50.00 107.00 49.00
C 102.67 49.00 98.33 49.00 94.00 49.00
C 92.62 51.14 89.19 49.48 87.00 50.00
C 86.88 57.37 85.31 63.95 87.00 71.00 Z"/>
</g>
<g fill="None" fill-opacity="0.0" stroke="#E7E6E7" stroke-opacity="0.82" stroke-width="0.3"><path d="
M 72.00 70.00 
C 72.92 71.74 73.57 72.82 75.00 74.00
C 71.21 75.33 66.99 73.75 63.00 73.00
C 63.93 76.97 60.85 74.76 59.00 76.00
C 58.29 83.07 58.00 89.82 58.00 97.00
C 58.05 97.23 58.90 97.65 59.00 98.00
C 62.30 98.73 66.61 98.00 70.00 98.00
C 69.88 96.92 71.60 95.64 72.00 95.00
C 73.57 92.50 75.39 91.85 77.00 88.00
C 79.78 88.87 80.50 91.98 84.00 91.00
C 84.53 89.22 85.23 88.66 86.00 92.00
C 86.00 88.06 85.65 83.93 86.00 80.00
C 84.59 80.37 83.61 79.98 83.00 80.00
C 80.25 80.10 77.76 81.43 75.00 81.00
C 74.02 80.85 72.98 81.12 72.00 81.00
C 72.34 77.28 77.28 77.04 79.00 74.00
C 83.03 75.93 84.98 77.91 87.00 80.00
C 89.09 80.47 91.85 80.00 94.00 80.00
C 92.49 80.29 105.31 79.51 107.00 78.00
C 107.00 77.29 107.68 76.59 108.00 76.00
C 107.01 77.37 105.51 76.96 105.00 77.00
C 101.11 77.56 95.60 75.23 92.00 77.00 C 88.40 78.77 82.87 72.37 85.00 70.00
C 82.67 70.00 80.33 70.00 78.00 70.00
C 77.57 63.71 78.57 57.28 78.00 51.00
C 78.00 51.00 77.34 51.23 77.00 51.00
C 74.69 56.94 76.40 63.95 77.00 70.00
C 75.45 69.64 73.52 70.48 72.00 70.00 Z"/>
</g>
<g fill="None" fill-opacity="0.0" stroke="#F69D51" stroke-opacity="1.00" stroke-width="0.3"><path d="
M 94.00 76.00 
C 97.48 76.07 102.71 74.95 106.00 76.00
C 108.36 72.80 108.40 56.30 107.00 52.00
C 105.52 49.69 96.95 55.68 95.75 58.75 C 94.56 61.83 93.00 71.53 94.00 76.00 Z"/>
</g>
<g fill="None" fill-opacity="0.0" stroke="#ECEAE6" stroke-opacity="0.11" stroke-width="0.3"><path d="
M 66.00 64.00 
C 57.77 67.35 45.05 67.03 35.00 68.00
C 40.70 68.00 50.74 67.91 56.00 68.00 C 61.26 68.09 69.84 67.67 71.00 63.00
C 71.00 63.00 70.24 62.75 70.00 63.00
C 68.73 64.30 67.87 63.89 66.00 64.00 Z"/>
</g>
<g fill="None" fill-opacity="0.0" stroke="#8BCAAE" stroke-opacity="1.00" stroke-width="0.3"><path d="
M 113.00 65.00 
C 116.27 65.30 119.71 65.00 123.00 65.00
C 123.50 65.00 124.00 65.00 124.00 65.00
C 122.14 63.07 115.83 63.74 113.00 64.00
C 113.00 64.00 113.25 64.75 113.00 65.00 Z"/>
</g>
<g fill="None" fill-opacity="0.0" stroke="#EED4A0" stroke-opacity="0.03" stroke-width="0.3"><path d="
M 111.00 72.00 
C 111.01 72.07 112.00 72.00 112.00 72.00
C 112.25 71.75 112.00 71.00 112.00 71.00
C 112.00 69.14 112.38 66.82 112.00 65.00
C 112.00 65.00 111.01 64.93 111.00 65.00
C 111.00 67.26 110.70 69.76 111.00 72.00 Z"/>
</g>
<g fill="None" fill-opacity="0.0" stroke="#DBCFA2" stroke-opacity="0.99" stroke-width="0.3"><path d="
M 112.00 71.00 
C 115.46 72.76 120.11 72.00 124.00 72.00
C 123.77 69.70 124.31 67.29 124.00 65.00
C 124.00 65.00 123.50 65.00 123.00 65.00
C 123.25 66.97 122.81 69.02 123.00 71.00
C 119.67 71.00 116.33 71.00 113.00 71.00
C 113.00 69.00 113.00 67.00 113.00 65.00
C 113.00 65.00 112.02 64.90 112.00 65.00
C 112.38 66.82 112.00 69.14 112.00 71.00 Z"/>
</g>
<g fill="None" fill-opacity="0.0" stroke="#F2CA65" stroke-opacity="1.00" stroke-width="0.3"><path d="
M 123.00 65.00 
C 119.71 65.00 116.27 65.30 113.00 65.00
C 113.00 67.00 113.00 69.00 113.00 71.00
C 116.33 71.00 119.67 71.00 123.00 71.00
C 122.81 69.02 123.25 66.97 123.00 65.00 Z"/>
</g>
<g fill="None" fill-opacity="0.0" stroke="#EAEAEB" stroke-opacity="0.27" stroke-width="0.3"><path d="
M 59.00 76.00 
C 60.85 74.76 63.93 76.97 63.00 73.00
C 66.99 73.75 71.21 75.33 75.00 74.00
C 73.57 72.82 72.92 71.74 72.00 70.00
C 72.00 70.00 72.03 69.00 72.00 69.00
C 67.31 69.65 62.65 71.18 59.00 71.00
C 58.87 72.65 59.17 74.35 59.00 76.00 Z"/>
</g>
<g fill="None" fill-opacity="0.0" stroke="#DCDCDC" stroke-opacity="0.75" stroke-width="0.3"><path d="
M 26.00 105.00 
C 26.27 107.09 28.91 107.13 26.00 110.00
C 26.23 109.54 27.61 109.21 28.00 109.00
C 29.94 107.93 31.57 108.31 34.00 108.00
C 40.74 107.13 50.71 106.20 57.00 107.00
C 58.15 107.15 60.46 107.96 61.00 108.00
C 63.35 106.54 66.96 106.49 69.00 108.00
C 69.30 108.22 69.77 108.95 70.00 109.00
C 77.11 108.59 83.12 109.15 90.00 109.00
C 91.71 106.78 104.14 107.37 107.00 109.00
C 107.38 109.22 108.00 109.00 108.00 109.00
C 105.08 107.06 107.49 106.81 109.00 105.00
C 108.92 105.19 107.45 104.85 107.00 105.00
C 100.51 107.24 91.99 106.00 85.00 106.00
C 80.36 106.00 77.71 105.28 74.00 104.00
C 73.00 104.00 72.00 104.00 71.00 104.00
C 67.00 104.00 63.00 104.00 59.00 104.00
C 53.30 104.00 32.99 105.96 32.00 102.00
C 32.00 91.33 32.00 80.67 32.00 70.00
C 21.41 76.53 26.83 93.70 26.00 105.00 Z"/>
</g>
<g fill="None" fill-opacity="0.0" stroke="#DEC7B1" stroke-opacity="1.00" stroke-width="0.3"><path d="
M 105.00 77.00 
C 105.35 76.95 105.78 76.30 106.00 76.00
C 102.71 74.95 97.48 76.07 94.00 76.00
C 91.67 76.00 89.33 76.00 87.00 76.00
C 86.71 74.40 87.38 72.58 87.00 71.00
C 87.03 71.07 85.09 70.02 85.00 70.00
C 82.87 72.37 88.40 78.77 92.00 77.00 C 95.60 75.23 101.11 77.56 105.00 77.00 Z"/>
</g>
<g fill="None" fill-opacity="0.0" stroke="#DBDCDA" stroke-opacity="0.78" stroke-width="0.3"><path d="
M 112.00 72.00 
C 113.78 72.61 115.57 73.28 117.00 74.00
C 117.00 74.00 117.50 74.00 118.00 74.00
C 121.57 71.36 128.98 73.71 133.00 72.00
C 130.00 72.00 127.00 72.00 124.00 72.00
C 120.11 72.00 115.46 72.76 112.00 71.00
C 112.00 71.00 112.25 71.75 112.00 72.00 Z"/>
</g>
<g fill="None" fill-opacity="0.0" stroke="#EDE6E6" stroke-opacity="0.09" stroke-width="0.3"><path d="
M 117.00 74.00 
C 115.57 73.28 113.78 72.61 112.00 72.00
C 112.00 72.00 111.01 72.07 111.00 72.00
C 111.53 74.46 115.10 74.28 117.00 74.00 Z"/>
</g>
<g fill="None" fill-opacity="0.0" stroke="#DFE3E0" stroke-opacity="0.09" stroke-width="0.3"><path d="
M 118.00 74.00 
C 121.19 74.00 135.17 75.86 136.00 72.00
C 136.00 72.00 135.50 72.00 135.00 72.00
C 134.50 72.00 133.50 72.00 133.00 72.00
C 128.98 73.71 121.57 71.36 118.00 74.00 Z"/>
</g>
<g fill="None" fill-opacity="0.0" stroke="#E6E7E7" stroke-opacity="0.21" stroke-width="0.3"><path d="
M 75.00 81.00 
C 78.19 80.64 79.02 75.67 83.00 77.00
C 83.00 78.00 83.00 79.00 83.00 80.00
C 83.61 79.98 84.59 80.37 86.00 80.00
C 86.47 79.88 87.00 80.00 87.00 80.00
C 84.98 77.91 83.03 75.93 79.00 74.00
C 77.28 77.04 72.34 77.28 72.00 81.00
C 72.98 81.12 74.02 80.85 75.00 81.00 Z"/>
</g>
<g fill="None" fill-opacity="0.0" stroke="#010101" stroke-opacity="0.01" stroke-width="0.3"><path d="
M 75.00 81.00 
C 77.76 81.43 80.25 80.10 83.00 80.00
C 83.00 79.00 83.00 78.00 83.00 77.00
C 79.02 75.67 78.19 80.64 75.00 81.00 Z"/>
</g>
<g fill="None" fill-opacity="0.0" stroke="#F2A7B8" stroke-opacity="0.03" stroke-width="0.3"><path d="
M 111.00 99.00 
C 111.26 98.75 112.00 99.00 112.00 99.00
C 111.48 93.21 110.79 84.67 112.00 79.00
C 112.02 78.89 113.03 76.99 113.00 77.00
C 111.84 76.03 110.29 84.92 111.00 87.00 C 111.71 89.08 110.77 96.41 111.00 99.00 Z"/>
</g>
<g fill="None" fill-opacity="0.0" stroke="#E89FB2" stroke-opacity="0.51" stroke-width="0.3"><path d="
M 112.00 79.00 
C 112.00 78.96 113.00 79.00 113.00 79.00
C 120.00 79.00 127.00 79.00 134.00 79.00
C 134.50 79.00 135.00 79.00 135.00 79.00
C 135.03 78.90 133.05 77.02 133.00 77.00
C 129.81 75.88 116.04 75.61 113.00 77.00
C 113.03 76.99 112.02 78.89 112.00 79.00 Z"/>
</g>
<g fill="None" fill-opacity="0.0" stroke="#E5ADC3" stroke-opacity="0.08" stroke-width="0.3"><path d="
M 135.00 79.00 
C 135.56 85.22 135.00 91.75 135.00 98.00
C 135.00 99.96 135.22 102.06 135.00 104.00
C 135.04 103.65 134.31 107.14 135.00 106.00
C 137.88 102.38 135.46 94.39 136.00 90.00 C 136.54 85.61 137.38 78.48 133.00 77.00
C 133.05 77.02 135.03 78.90 135.00 79.00 Z"/>
</g>
<g fill="None" fill-opacity="0.0" stroke="#C4EBEC" stroke-opacity="0.31" stroke-width="0.3"><path d="
M 94.00 80.00 
C 98.33 80.00 102.67 80.00 107.00 80.00
C 107.50 80.00 108.00 80.00 108.00 80.00
C 107.84 79.71 107.00 78.32 107.00 78.00
C 105.31 79.51 92.49 80.29 94.00 80.00 Z"/>
</g>
<g fill="None" fill-opacity="0.0" stroke="#E898B0" stroke-opacity="0.91" stroke-width="0.3"><path d="
M 112.00 99.00 
C 112.50 99.00 113.00 99.00 113.00 99.00
C 112.75 98.75 113.00 98.00 113.00 98.00
C 113.00 91.75 113.56 85.22 113.00 79.00
C 113.00 79.00 112.00 78.96 112.00 79.00
C 110.79 84.67 111.48 93.21 112.00 99.00 Z"/>
</g>
<g fill="None" fill-opacity="0.0" stroke="#F26085" stroke-opacity="1.00" stroke-width="0.3"><path d="
M 113.00 98.00 
C 116.27 97.70 119.71 98.00 123.00 98.00
C 126.67 98.00 130.33 98.00 134.00 98.00
C 133.46 92.01 133.46 84.99 134.00 79.00
C 127.00 79.00 120.00 79.00 113.00 79.00
C 113.56 85.22 113.00 91.75 113.00 98.00 Z"/>
</g>
<g fill="None" fill-opacity="0.0" stroke="#E56E98" stroke-opacity="0.87" stroke-width="0.3"><path d="
M 134.00 98.00 
C 134.50 98.00 135.00 98.00 135.00 98.00
C 135.00 91.75 135.56 85.22 135.00 79.00
C 135.00 79.00 134.50 79.00 134.00 79.00
C 133.46 84.99 133.46 92.01 134.00 98.00 Z"/>
</g>
<g fill="None" fill-opacity="0.0" stroke="#9FD7D9" stroke-opacity="0.98" stroke-width="0.3"><path d="
M 86.00 92.00 
C 86.00 93.86 85.62 96.18 86.00 98.00
C 86.50 98.00 87.00 98.00 87.00 98.00
C 87.51 92.32 87.51 85.68 87.00 80.00
C 87.00 80.00 86.47 79.88 86.00 80.00
C 85.65 83.93 86.00 88.06 86.00 92.00 Z"/>
</g>
<g fill="None" fill-opacity="0.0" stroke="#22B4B7" stroke-opacity="1.00" stroke-width="0.3"><path d="
M 87.00 98.00 
C 88.46 104.17 83.67 104.29 79.00 104.00
C 78.50 103.97 77.50 104.00 77.00 104.00
C 78.95 104.43 83.12 105.82 85.00 106.00
C 91.99 106.00 100.51 107.24 107.00 105.00
C 104.68 99.77 106.48 85.80 107.00 80.00
C 102.67 80.00 98.33 80.00 94.00 80.00
C 91.85 80.00 89.09 80.47 87.00 80.00
C 87.51 85.68 87.51 92.32 87.00 98.00 Z"/>
</g>
<g fill="None" fill-opacity="0.0" stroke="#61CCCC" stroke-opacity="0.29" stroke-width="0.3"><path d="
M 107.00 105.00 
C 107.45 104.85 108.92 105.19 109.00 105.00
C 110.47 101.70 108.48 95.60 109.00 92.00 C 109.52 88.40 109.55 82.82 108.00 80.00
C 108.00 80.00 107.50 80.00 107.00 80.00
C 106.48 85.80 104.68 99.77 107.00 105.00 Z"/>
</g>
<g fill="None" fill-opacity="0.0" stroke="#000000" stroke-opacity="0.00" stroke-width="0.3"><path d="
M 72.00 95.00 
C 71.49 95.18 77.67 95.91 78.00 96.00
C 80.57 96.39 81.92 97.32 81.00 102.00
C 82.27 102.27 83.71 101.79 85.00 102.00
C 85.00 100.67 85.00 99.33 85.00 98.00
C 83.83 97.83 83.06 97.56 82.00 97.00
C 84.24 95.95 84.15 93.38 84.00 91.00
C 80.50 91.98 79.78 88.87 77.00 88.00
C 75.39 91.85 73.57 92.50 72.00 95.00 Z"/>
</g>
<g fill="None" fill-opacity="0.0" stroke="#E2E4E4" stroke-opacity="0.29" stroke-width="0.3"><path d="
M 84.00 91.00 
C 84.15 93.38 84.24 95.95 82.00 97.00
C 83.06 97.56 83.83 97.83 85.00 98.00
C 85.49 98.07 86.00 98.00 86.00 98.00
C 85.62 96.18 86.00 93.86 86.00 92.00
C 85.23 88.66 84.53 89.22 84.00 91.00 Z"/>
</g>
<g fill="None" fill-opacity="0.0" stroke="#EBE5E7" stroke-opacity="0.35" stroke-width="0.3"><path d="
M 70.00 98.00 
C 70.50 98.00 71.00 98.00 71.00 98.00
C 73.67 98.00 76.33 98.00 79.00 98.00
C 79.50 98.00 80.00 98.00 80.00 98.00
C 81.06 96.42 78.70 96.20 78.00 96.00
C 77.67 95.91 71.49 95.18 72.00 95.00
C 71.60 95.64 69.88 96.92 70.00 98.00 Z"/>
</g>
<g fill="None" fill-opacity="0.0" stroke="#FCFCFC" stroke-opacity="0.02" stroke-width="0.3"><path d="
M 78.00 96.00 
C 78.70 96.20 81.06 96.42 80.00 98.00
C 80.29 98.48 80.17 101.44 80.00 102.00
C 80.41 101.81 81.00 102.00 81.00 102.00
C 81.92 97.32 80.57 96.39 78.00 96.00 Z"/>
</g>
<g fill="None" fill-opacity="0.0" stroke="#B9CBDE" stroke-opacity="0.11" stroke-width="0.3"><path d="
M 58.00 102.00 
C 58.00 102.50 58.00 103.00 58.00 103.00
C 58.50 103.00 59.00 103.00 59.00 103.00
C 59.00 101.53 59.39 99.41 59.00 98.00
C 58.90 97.65 58.05 97.23 58.00 97.00
C 58.00 98.67 58.00 100.33 58.00 102.00 Z"/>
</g>
<g fill="None" fill-opacity="0.0" stroke="#85AED6" stroke-opacity="0.99" stroke-width="0.3"><path d="
M 59.00 103.00 
C 59.00 103.50 59.00 104.00 59.00 104.00
C 63.00 104.00 67.00 104.00 71.00 104.00
C 70.70 102.06 71.40 99.92 71.00 98.00
C 71.00 98.00 70.50 98.00 70.00 98.00
C 66.61 98.00 62.30 98.73 59.00 98.00
C 59.39 99.41 59.00 101.53 59.00 103.00 Z"/>
</g>
<g fill="None" fill-opacity="0.0" stroke="#E37599" stroke-opacity="0.99" stroke-width="0.3"><path d="
M 71.00 104.00 
C 72.00 104.00 73.00 104.00 74.00 104.00
C 75.00 104.00 76.00 104.00 77.00 104.00
C 77.50 104.00 78.50 103.97 79.00 104.00
C 79.23 103.66 79.00 103.00 79.00 103.00
C 79.00 101.61 78.55 99.31 79.00 98.00
C 76.33 98.00 73.67 98.00 71.00 98.00
C 71.40 99.92 70.70 102.06 71.00 104.00 Z"/>
</g>
<g fill="None" fill-opacity="0.0" stroke="#EBB9C8" stroke-opacity="0.33" stroke-width="0.3"><path d="
M 79.00 103.00 
C 79.12 102.74 79.74 102.12 80.00 102.00
C 80.17 101.44 80.29 98.48 80.00 98.00
C 80.00 98.00 79.50 98.00 79.00 98.00
C 78.55 99.31 79.00 101.61 79.00 103.00 Z"/>
</g>
<g fill="None" fill-opacity="0.0" stroke="#96CBD5" stroke-opacity="0.37" stroke-width="0.3"><path d="
M 81.00 102.00 
C 81.00 102.00 80.41 101.81 80.00 102.00
C 79.74 102.12 79.12 102.74 79.00 103.00
C 79.00 103.00 79.23 103.66 79.00 104.00
C 83.67 104.29 88.46 104.17 87.00 98.00
C 87.00 98.00 86.50 98.00 86.00 98.00
C 86.00 98.00 85.49 98.07 85.00 98.00
C 85.00 99.33 85.00 100.67 85.00 102.00
C 83.71 101.79 82.27 102.27 81.00 102.00 Z"/>
</g>
<g fill="None" fill-opacity="0.0" stroke="#E9A2BB" stroke-opacity="0.58" stroke-width="0.3"><path d="
M 113.00 99.00 
C 113.50 99.00 114.00 99.00 114.00 99.00
C 116.33 99.00 118.67 99.00 121.00 99.00
C 121.50 99.00 122.00 99.00 122.00 99.00
C 122.50 99.00 123.00 99.00 123.00 99.00
C 123.00 98.50 123.00 98.00 123.00 98.00
C 119.71 98.00 116.27 97.70 113.00 98.00
C 113.00 98.00 112.75 98.75 113.00 99.00 Z"/>
</g>
<g fill="None" fill-opacity="0.0" stroke="#F1A4A6" stroke-opacity="0.98" stroke-width="0.3"><path d="
M 123.00 99.00 
C 123.00 99.69 123.45 103.63 123.00 104.00
C 125.60 105.92 133.84 103.04 135.00 104.00
C 135.22 102.06 135.00 99.96 135.00 98.00
C 135.00 98.00 134.50 98.00 134.00 98.00
C 130.33 98.00 126.67 98.00 123.00 98.00
C 123.00 98.00 123.00 98.50 123.00 99.00 Z"/>
</g>
<g fill="None" fill-opacity="0.0" stroke="#E5E2E2" stroke-opacity="0.22" stroke-width="0.3"><path d="
M 133.00 107.00 
C 126.75 106.38 118.51 106.18 112.00 105.00
C 112.08 103.74 114.06 104.44 114.00 103.00
C 114.28 102.31 114.00 100.75 114.00 100.00
C 114.00 99.50 114.00 99.00 114.00 99.00
C 114.00 99.00 113.50 99.00 113.00 99.00
C 113.00 99.00 112.50 99.00 112.00 99.00
C 112.00 99.00 111.26 98.75 111.00 99.00
C 109.22 100.77 112.09 104.25 111.00 107.00
C 118.25 106.33 125.78 107.89 133.00 107.00 Z"/>
</g>
<g fill="None" fill-opacity="0.0" stroke="#2A002A" stroke-opacity="0.02" stroke-width="0.3"><path d="
M 114.00 100.00 
C 116.35 100.43 119.34 100.23 121.00 99.00
C 118.67 99.00 116.33 99.00 114.00 99.00
C 114.00 99.00 114.00 99.50 114.00 100.00 Z"/>
</g>
<g fill="None" fill-opacity="0.0" stroke="#000000" stroke-opacity="0.00" stroke-width="0.3"><path d="
M 114.00 100.00 
C 114.00 100.75 114.28 102.31 114.00 103.00
C 115.56 102.39 120.35 102.63 122.00 103.00
C 121.67 101.94 122.56 99.93 122.00 99.00
C 122.00 99.00 121.50 99.00 121.00 99.00
C 119.34 100.23 116.35 100.43 114.00 100.00 Z"/>
</g>
<g fill="None" fill-opacity="0.0" stroke="#F2E4E6" stroke-opacity="0.08" stroke-width="0.3"><path d="
M 122.00 103.00 
C 122.11 103.35 122.70 103.78 123.00 104.00
C 123.45 103.63 123.00 99.69 123.00 99.00
C 123.00 99.00 122.50 99.00 122.00 99.00
C 122.56 99.93 121.67 101.94 122.00 103.00 Z"/>
</g>
<g fill="None" fill-opacity="0.0" stroke="#D6D4D6" stroke-opacity="0.40" stroke-width="0.3"><path d="
M 59.00 104.00 
C 59.00 104.00 59.00 103.50 59.00 103.00
C 59.00 103.00 58.50 103.00 58.00 103.00
C 49.50 103.00 39.67 103.83 32.00 102.00
C 32.99 105.96 53.30 104.00 59.00 104.00 Z"/>
</g>
<g fill="None" fill-opacity="0.0" stroke="#FBFBFB" stroke-opacity="0.02" stroke-width="0.3"><path d="
M 58.00 103.00 
C 58.00 103.00 58.00 102.50 58.00 102.00
C 49.40 101.22 40.61 102.58 32.00 102.00
C 39.67 103.83 49.50 103.00 58.00 103.00 Z"/>
</g>
<g fill="None" fill-opacity="0.0" stroke="#D7D2D4" stroke-opacity="0.60" stroke-width="0.3"><path d="
M 133.00 107.00 
C 134.11 106.86 134.43 106.94 135.00 106.00
C 134.31 107.14 135.04 103.65 135.00 104.00
C 133.84 103.04 125.60 105.92 123.00 104.00
C 122.70 103.78 122.11 103.35 122.00 103.00
C 120.35 102.63 115.56 102.39 114.00 103.00
C 114.06 104.44 112.08 103.74 112.00 105.00
C 118.51 106.18 126.75 106.38 133.00 107.00 Z"/>
</g>
<g fill="None" fill-opacity="0.0" stroke="#B5C0C9" stroke-opacity="1.00" stroke-width="0.3"><path d="
M 85.00 106.00 
C 83.12 105.82 78.95 104.43 77.00 104.00
C 76.00 104.00 75.00 104.00 74.00 104.00
C 77.71 105.28 80.36 106.00 85.00 106.00 Z"/>
</g>
<g fill="None" fill-opacity="0.0" stroke="#F0EFE1" stroke-opacity="0.16" stroke-width="0.3"><path d="
M 25.00 111.00 
C 25.46 110.86 26.00 111.00 26.00 111.00
C 26.00 110.50 26.00 110.00 26.00 110.00
C 28.91 107.13 26.27 107.09 26.00 105.00
C 25.83 107.25 25.40 108.92 25.00 111.00 Z"/>
</g>
<g fill="None" fill-opacity="0.0" stroke="#F1EBCE" stroke-opacity="0.45" stroke-width="0.3"><path d="
M 34.00 108.00 
C 37.57 108.08 42.48 110.01 46.00 109.00 C 49.52 107.99 55.83 110.73 58.00 110.00
C 58.04 109.46 59.02 109.12 58.00 108.00
C 56.95 107.63 53.44 107.28 57.00 107.00
C 50.71 106.20 40.74 107.13 34.00 108.00 Z"/>
</g>
<g fill="None" fill-opacity="0.0" stroke="#F6F7EB" stroke-opacity="0.02" stroke-width="0.3"><path d="
M 58.00 108.00 
C 58.51 108.18 59.41 109.20 60.00 109.00
C 60.05 108.65 60.68 108.20 61.00 108.00
C 60.46 107.96 58.15 107.15 57.00 107.00
C 53.44 107.28 56.95 107.63 58.00 108.00 Z"/>
</g>
<g fill="None" fill-opacity="0.0" stroke="#FAE381" stroke-opacity="1.00" stroke-width="0.3"><path d="
M 28.00 109.00 
C 40.69 105.98 46.10 118.43 44.00 129.00 C 41.90 139.57 50.08 135.47 56.00 136.00
C 57.18 135.83 57.94 135.56 59.00 135.00
C 56.74 127.16 58.62 118.25 58.00 110.00
C 55.83 110.73 49.52 107.99 46.00 109.00 C 42.48 110.01 37.57 108.08 34.00 108.00
C 31.57 108.31 29.94 107.93 28.00 109.00 Z"/>
</g>
<g fill="None" fill-opacity="0.0" stroke="#F6EEAA" stroke-opacity="0.40" stroke-width="0.3"><path d="
M 58.00 110.00 
C 58.62 118.25 56.74 127.16 59.00 135.00
C 57.94 135.56 57.18 135.83 56.00 136.00
C 55.93 136.01 56.00 137.00 56.00 137.00
C 56.89 136.77 58.71 135.75 59.00 137.00
C 63.19 130.76 58.89 116.72 60.00 109.00
C 59.41 109.20 58.51 108.18 58.00 108.00
C 59.02 109.12 58.04 109.46 58.00 110.00 Z"/>
</g>
<g fill="None" fill-opacity="0.0" stroke="#A3DAD8" stroke-opacity="0.05" stroke-width="0.3"><path d="
M 64.00 131.00 
C 64.13 130.73 64.95 130.35 65.00 130.00
C 65.69 125.18 62.57 113.29 66.00 110.00
C 67.21 108.84 68.23 109.10 70.00 109.00
C 69.77 108.95 69.30 108.22 69.00 108.00
C 60.92 106.83 64.00 126.12 64.00 131.00 Z"/>
</g>
<g fill="None" fill-opacity="0.0" stroke="#A5DBD1" stroke-opacity="0.28" stroke-width="0.3"><path d="
M 70.00 109.00 
C 68.23 109.10 67.21 108.84 66.00 110.00
C 68.61 108.17 74.71 110.80 78.00 110.00 C 81.29 109.20 86.51 110.32 90.00 110.00
C 89.75 109.75 90.00 109.00 90.00 109.00
C 83.12 109.15 77.11 108.59 70.00 109.00 Z"/>
</g>
<g fill="None" fill-opacity="0.0" stroke="#F8F3BE" stroke-opacity="0.28" stroke-width="0.3"><path d="
M 90.00 109.00 
C 90.00 109.00 89.75 109.75 90.00 110.00
C 90.25 110.25 91.00 110.00 91.00 110.00
C 95.39 110.00 103.70 111.44 107.00 109.00
C 104.14 107.37 91.71 106.78 90.00 109.00 Z"/>
</g>
<g fill="None" fill-opacity="0.0" stroke="#ABD6A9" stroke-opacity="0.37" stroke-width="0.3"><path d="
M 111.00 130.00 
C 111.01 129.93 112.00 130.00 112.00 130.00
C 112.50 130.00 113.00 130.00 113.00 130.00
C 113.60 123.39 112.55 116.63 113.00 110.00
C 120.33 110.00 127.67 110.00 135.00 110.00
C 135.00 109.50 135.00 109.00 135.00 109.00
C 134.49 107.38 132.28 108.07 131.00 108.00
C 129.32 108.08 125.27 108.67 123.00 109.00 C 120.73 109.33 115.09 107.70 114.00 108.00
C 108.36 110.06 111.00 125.05 111.00 130.00 Z"/>
</g>
<g fill="None" fill-opacity="0.0" stroke="#A2F3A2" stroke-opacity="0.01" stroke-width="0.3"><path d="
M 131.00 108.00 
C 126.58 107.74 118.12 106.50 114.00 108.00
C 115.09 107.70 120.73 109.33 123.00 109.00 C 125.27 108.67 129.32 108.08 131.00 108.00 Z"/>
</g>
<g fill="None" fill-opacity="0.0" stroke="#F7CE60" stroke-opacity="1.00" stroke-width="0.3"><path d="
M 26.00 110.00 
C 26.00 110.00 26.00 110.50 26.00 111.00
C 26.00 118.05 26.89 121.60 26.00 129.00 C 25.11 136.40 29.06 137.61 36.00 137.00 C 42.94 136.39 48.21 137.00 55.00 137.00
C 55.50 137.00 56.00 137.00 56.00 137.00
C 56.00 137.00 55.93 136.01 56.00 136.00
C 50.08 135.47 41.90 139.57 44.00 129.00 C 46.10 118.43 40.69 105.98 28.00 109.00
C 27.61 109.21 26.23 109.54 26.00 110.00 Z"/>
</g>
<g fill="None" fill-opacity="0.0" stroke="#F8D768" stroke-opacity="0.96" stroke-width="0.3"><path d="
M 91.00 110.00 
C 91.77 118.51 91.77 128.49 91.00 137.00
C 94.00 137.00 97.00 137.00 100.00 137.00
C 99.03 133.10 103.63 127.25 108.00 130.00
C 107.76 128.15 108.81 127.11 109.00 126.00
C 108.77 121.94 110.86 111.76 108.00 109.00
C 108.00 109.00 107.38 109.22 107.00 109.00
C 103.70 111.44 95.39 110.00 91.00 110.00 Z"/>
</g>
<g fill="None" fill-opacity="0.0" stroke="#B8D9AA" stroke-opacity="0.11" stroke-width="0.3"><path d="
M 135.00 110.00 
C 135.00 118.88 134.20 128.17 135.00 137.00
C 135.32 136.76 136.00 137.00 136.00 137.00
C 136.38 132.78 136.25 126.03 136.00 122.00 C 135.75 117.97 137.67 111.57 135.00 109.00
C 135.00 109.00 135.00 109.50 135.00 110.00 Z"/>
</g>
<g fill="None" fill-opacity="0.0" stroke="#7BCEC2" stroke-opacity="0.99" stroke-width="0.3"><path d="
M 65.00 130.00 
C 66.65 129.63 74.90 129.07 74.00 132.00
C 74.17 132.13 74.15 135.76 74.00 136.00
C 77.58 138.65 85.41 136.59 90.00 137.00
C 89.23 128.49 89.23 118.51 90.00 110.00
C 86.51 110.32 81.29 109.20 78.00 110.00 C 74.71 110.80 68.61 108.17 66.00 110.00
C 62.57 113.29 65.69 125.18 65.00 130.00 Z"/>
</g>
<g fill="None" fill-opacity="0.0" stroke="#A6D4AF" stroke-opacity="1.00" stroke-width="0.3"><path d="
M 90.00 137.00 
C 90.25 136.75 91.00 137.00 91.00 137.00
C 91.77 128.49 91.77 118.51 91.00 110.00
C 91.00 110.00 90.25 110.25 90.00 110.00
C 89.23 118.51 89.23 128.49 90.00 137.00 Z"/>
</g>
<g fill="None" fill-opacity="0.0" stroke="#84C77D" stroke-opacity="1.00" stroke-width="0.3"><path d="
M 113.00 130.00 
C 116.33 130.00 119.67 130.00 123.00 130.00
C 123.50 130.00 124.00 130.00 124.00 130.00
C 126.31 129.78 128.68 130.16 131.00 130.00
C 131.00 132.33 131.00 134.67 131.00 137.00
C 132.33 137.00 133.67 137.00 135.00 137.00
C 134.20 128.17 135.00 118.88 135.00 110.00
C 127.67 110.00 120.33 110.00 113.00 110.00
C 112.55 116.63 113.60 123.39 113.00 130.00
M 119.00 116.00 
C 112.25 116.55 119.87 108.41 119.00 116.00 Z"/>
</g>
<g fill="None" fill-opacity="0.0" stroke="#E2E1E0" stroke-opacity="0.62" stroke-width="0.3"><path d="
M 46.00 140.00 
C 48.00 139.81 53.90 139.41 55.00 137.00
C 48.21 137.00 42.94 136.39 36.00 137.00 C 29.06 137.61 25.11 136.40 26.00 129.00 C 26.89 121.60 26.00 118.05 26.00 111.00
C 26.00 111.00 25.46 110.86 25.00 111.00
C 20.52 112.34 23.79 123.08 23.00 127.00 C 22.21 130.92 22.21 140.15 28.00 140.00 C 33.79 139.85 40.17 139.85 46.00 140.00 Z"/>
</g>
<g fill="None" fill-opacity="0.0" stroke="#DDC653" stroke-opacity="1.00" stroke-width="0.3"><path d="
M 119.00 116.00 
C 119.87 108.41 112.25 116.55 119.00 116.00 Z"/>
</g>
<g fill="None" fill-opacity="0.0" stroke="#FBF2D7" stroke-opacity="0.12" stroke-width="0.3"><path d="
M 108.00 130.00 
C 108.16 131.24 108.76 131.24 109.00 132.00
C 109.18 129.71 109.13 128.24 109.00 126.00
C 108.81 127.11 107.76 128.15 108.00 130.00 Z"/>
</g>
<g fill="None" fill-opacity="0.0" stroke="#D0E1E2" stroke-opacity="0.45" stroke-width="0.3"><path d="
M 64.00 131.00 
C 64.00 132.31 63.87 133.70 64.00 135.00
C 63.95 134.87 66.06 137.05 66.00 137.00
C 67.89 137.87 71.71 136.95 73.00 136.00
C 72.50 136.00 72.00 136.00 72.00 136.00
C 70.42 136.36 68.60 135.73 67.00 136.00
C 65.76 132.22 68.98 131.46 72.00 132.00
C 72.49 132.08 73.68 131.76 74.00 132.00
C 74.90 129.07 66.65 129.63 65.00 130.00
C 64.95 130.35 64.13 130.73 64.00 131.00 Z"/>
</g>
<g fill="None" fill-opacity="0.0" stroke="#F1B66B" stroke-opacity="0.91" stroke-width="0.3"><path d="
M 100.00 137.00 
C 103.00 137.00 106.00 137.00 109.00 137.00
C 109.43 135.54 108.88 133.53 109.00 132.00
C 108.76 131.24 108.16 131.24 108.00 130.00
C 103.63 127.25 99.03 133.10 100.00 137.00 Z"/>
</g>
<g fill="None" fill-opacity="0.0" stroke="#E0AEAE" stroke-opacity="0.02" stroke-width="0.3"><path d="
M 111.00 137.00 
C 111.01 137.07 112.00 137.00 112.00 137.00
C 111.69 134.71 112.31 132.29 112.00 130.00
C 112.00 130.00 111.01 129.93 111.00 130.00
C 111.00 132.26 110.70 134.76 111.00 137.00 Z"/>
</g>
<g fill="None" fill-opacity="0.0" stroke="#E1AFBA" stroke-opacity="0.77" stroke-width="0.3"><path d="
M 112.00 137.00 
C 112.50 137.00 113.00 137.00 113.00 137.00
C 113.28 134.93 113.28 132.07 113.00 130.00
C 113.00 130.00 112.50 130.00 112.00 130.00
C 112.31 132.29 111.69 134.71 112.00 137.00 Z"/>
</g>
<g fill="None" fill-opacity="0.0" stroke="#E57189" stroke-opacity="1.00" stroke-width="0.3"><path d="
M 113.00 137.00 
C 116.33 137.00 119.67 137.00 123.00 137.00
C 122.72 134.93 122.72 132.07 123.00 130.00
C 119.67 130.00 116.33 130.00 113.00 130.00
C 113.28 132.07 113.28 134.93 113.00 137.00 Z"/>
</g>
<g fill="None" fill-opacity="0.0" stroke="#E6A968" stroke-opacity="1.00" stroke-width="0.3"><path d="
M 123.00 137.00 
C 123.50 137.00 124.00 137.00 124.00 137.00
C 124.50 137.00 125.00 137.00 125.00 137.00
C 123.86 134.76 123.91 132.56 124.00 130.00
C 124.00 130.00 123.50 130.00 123.00 130.00
C 122.72 132.07 122.72 134.93 123.00 137.00 Z"/>
</g>
<g fill="None" fill-opacity="0.0" stroke="#F1CA48" stroke-opacity="1.00" stroke-width="0.3"><path d="
M 125.00 137.00 
C 127.00 137.00 129.00 137.00 131.00 137.00
C 131.00 134.67 131.00 132.33 131.00 130.00
C 128.68 130.16 126.31 129.78 124.00 130.00
C 123.91 132.56 123.86 134.76 125.00 137.00 Z"/>
</g>
<g fill="None" fill-opacity="0.0" stroke="#000000" stroke-opacity="0.00" stroke-width="0.3"><path d="
M 72.00 136.00 
C 71.85 135.76 71.83 132.13 72.00 132.00
C 68.98 131.46 65.76 132.22 67.00 136.00
C 68.60 135.73 70.42 136.36 72.00 136.00 Z"/>
</g>
<g fill="None" fill-opacity="0.0" stroke="#6ABEBD" stroke-opacity="0.15" stroke-width="0.3"><path d="
M 72.00 136.00 
C 72.00 136.00 72.50 136.00 73.00 136.00
C 73.50 136.00 74.00 136.00 74.00 136.00
C 74.15 135.76 74.17 132.13 74.00 132.00
C 73.68 131.76 72.49 132.08 72.00 132.00
C 71.83 132.13 71.85 135.76 72.00 136.00 Z"/>
</g>
<g fill="None" fill-opacity="0.0" stroke="#E4E4E6" stroke-opacity="0.16" stroke-width="0.3"><path d="
M 73.00 138.00 
C 70.34 137.76 68.01 138.54 66.00 137.00
C 66.06 137.05 63.95 134.87 64.00 135.00
C 64.66 141.89 69.14 138.47 73.00 138.00 Z"/>
</g>
<g fill="None" fill-opacity="0.0" stroke="#E9E8E5" stroke-opacity="0.11" stroke-width="0.3"><path d="
M 56.00 137.00 
C 56.00 137.00 55.50 137.00 55.00 137.00
C 53.90 139.41 48.00 139.81 46.00 140.00
C 49.36 140.09 56.39 140.88 59.00 137.00
C 58.71 135.75 56.89 136.77 56.00 137.00 Z"/>
</g>
<g fill="None" fill-opacity="0.0" stroke="#D8E1E3" stroke-opacity="0.79" stroke-width="0.3"><path d="
M 66.00 137.00 
C 68.01 138.54 70.34 137.76 73.00 138.00
C 78.23 138.47 83.89 138.55 90.00 138.00
C 89.84 137.94 90.00 137.00 90.00 137.00
C 85.41 136.59 77.58 138.65 74.00 136.00
C 74.00 136.00 73.50 136.00 73.00 136.00
C 71.71 136.95 67.89 137.87 66.00 137.00 Z"/>
</g>
<g fill="None" fill-opacity="0.0" stroke="#E4E1DF" stroke-opacity="0.51" stroke-width="0.3"><path d="
M 90.00 138.00 
C 94.08 139.53 107.22 143.08 109.00 137.00
C 106.00 137.00 103.00 137.00 100.00 137.00
C 97.00 137.00 94.00 137.00 91.00 137.00
C 91.00 137.00 90.25 136.75 90.00 137.00
C 90.00 137.00 89.84 137.94 90.00 138.00 Z"/>
</g>
<g fill="None" fill-opacity="0.0" stroke="#E2DEE0" stroke-opacity="0.40" stroke-width="0.3"><path d="
M 125.00 140.00 
C 125.46 139.87 126.62 138.13 127.00 138.00
C 125.30 137.85 125.15 138.07 124.00 137.00
C 124.00 137.00 123.50 137.00 123.00 137.00
C 119.67 137.00 116.33 137.00 113.00 137.00
C 113.00 137.00 112.50 137.00 112.00 137.00
C 112.00 137.00 111.01 137.07 111.00 137.00
C 111.83 141.75 122.18 139.89 125.00 140.00 Z"/>
</g>
<g fill="None" fill-opacity="0.0" stroke="#DEE0D2" stroke-opacity="0.95" stroke-width="0.3"><path d="
M 127.00 138.00 
C 129.68 138.23 133.05 138.44 135.00 137.00
C 133.67 137.00 132.33 137.00 131.00 137.00
C 129.00 137.00 127.00 137.00 125.00 137.00
C 125.00 137.00 124.50 137.00 124.00 137.00
C 125.15 138.07 125.30 137.85 127.00 138.00 Z"/>
</g>
<g fill="None" fill-opacity="0.0" stroke="#EBECE9" stroke-opacity="0.13" stroke-width="0.3"><path d="
M 127.00 138.00 
C 126.62 138.13 125.46 139.87 125.00 140.00
C 127.94 140.12 135.25 141.28 136.00 137.00
C 136.00 137.00 135.32 136.76 135.00 137.00
C 133.05 138.44 129.68 138.23 127.00 138.00 Z"/>
</g>
<g fill="#000000" fill-opacity="0.00" stroke="None">
<path d="
M 0.00 150.00 
L 161.00 150.00
L 161.00 0.00
L 0.00 0.00
L 0.00 150.00
M 136.00 34.00 
C 135.95 35.94 136.74 38.85 135.00 40.00
C 134.86 42.84 132.19 41.82 130.00 42.00
C 126.62 42.28 110.50 43.88 111.00 39.00
C 110.62 37.18 111.00 34.86 111.00 33.00
C 111.00 26.67 111.00 20.33 111.00 14.00
C 111.00 13.50 110.88 12.47 111.00 12.00
C 112.32 6.91 121.34 11.58 126.00 10.00 C 130.66 8.42 137.48 10.56 136.00 17.00 C 134.52 23.44 136.18 27.73 136.00 34.00
M 107.00 41.00 
C 106.38 45.22 93.33 42.60 90.00 42.00
C 85.43 42.09 73.37 47.05 71.00 41.00
C 71.00 48.23 71.65 55.80 71.00 63.00
C 69.84 67.67 61.26 68.09 56.00 68.00 C 50.74 67.91 40.70 68.00 35.00 68.00
C 23.79 68.00 20.47 60.88 23.00 51.00 C 25.53 41.12 17.83 29.98 26.00 24.00
C 26.23 19.95 41.29 22.43 46.00 22.00 C 50.71 21.57 62.64 22.00 68.00 22.00
C 68.50 22.00 69.00 22.00 69.00 22.00
C 69.50 22.00 70.00 22.00 70.00 22.00
C 72.20 19.16 71.48 12.94 76.00 12.00
C 86.09 11.09 97.91 11.09 108.00 12.00
C 110.45 14.36 108.85 23.73 109.00 27.00 C 109.15 30.27 110.49 40.80 107.00 41.00
M 136.00 72.00 
C 135.17 75.86 121.19 74.00 118.00 74.00
C 117.50 74.00 117.00 74.00 117.00 74.00
C 115.10 74.28 111.53 74.46 111.00 72.00
C 110.70 69.76 111.00 67.26 111.00 65.00
C 111.00 60.22 108.10 46.56 112.26 43.26 C 116.42 39.96 130.88 45.20 136.00 43.00
C 136.00 52.67 136.00 62.33 136.00 72.00
M 108.00 76.00 
C 107.68 76.59 107.00 77.29 107.00 78.00
C 107.00 78.32 107.84 79.71 108.00 80.00
C 109.55 82.82 109.52 88.40 109.00 92.00 C 108.48 95.60 110.47 101.70 109.00 105.00
C 107.49 106.81 105.08 107.06 108.00 109.00
C 110.86 111.76 108.77 121.94 109.00 126.00
C 109.13 128.24 109.18 129.71 109.00 132.00
C 108.88 133.53 109.43 135.54 109.00 137.00
C 107.22 143.08 94.08 139.53 90.00 138.00
C 83.89 138.55 78.23 138.47 73.00 138.00
C 69.14 138.47 64.66 141.89 64.00 135.00
C 63.87 133.70 64.00 132.31 64.00 131.00
C 64.00 126.12 60.92 106.83 69.00 108.00
C 66.96 106.49 63.35 106.54 61.00 108.00
C 60.68 108.20 60.05 108.65 60.00 109.00
C 58.89 116.72 63.19 130.76 59.00 137.00
C 56.39 140.88 49.36 140.09 46.00 140.00
C 40.17 139.85 33.79 139.85 28.00 140.00 C 22.21 140.15 22.21 130.92 23.00 127.00 C 23.79 123.08 20.52 112.34 25.00 111.00
C 25.40 108.92 25.83 107.25 26.00 105.00
C 26.83 93.70 21.41 76.53 32.00 70.00
C 32.00 80.67 32.00 91.33 32.00 102.00
C 40.61 102.58 49.40 101.22 58.00 102.00
C 58.00 100.33 58.00 98.67 58.00 97.00
C 58.00 89.82 58.29 83.07 59.00 76.00
C 59.17 74.35 58.87 72.65 59.00 71.00
C 62.65 71.18 67.31 69.65 72.00 69.00
C 73.33 69.09 74.67 68.93 76.00 69.00
C 75.07 62.77 73.40 54.39 77.00 49.00
C 79.98 44.42 90.48 50.01 96.00 48.00 C 101.52 45.99 111.63 48.18 109.00 56.00 C 106.37 63.82 111.70 69.29 108.00 76.00
M 135.00 106.00 
C 134.43 106.94 134.11 106.86 133.00 107.00
C 125.78 107.89 118.25 106.33 111.00 107.00
C 112.09 104.25 109.22 100.77 111.00 99.00
C 110.77 96.41 111.71 89.08 111.00 87.00 C 110.29 84.92 111.84 76.03 113.00 77.00
C 116.04 75.61 129.81 75.88 133.00 77.00
C 137.38 78.48 136.54 85.61 136.00 90.00 C 135.46 94.39 137.88 102.38 135.00 106.00
M 135.00 109.00 
C 137.67 111.57 135.75 117.97 136.00 122.00 C 136.25 126.03 136.38 132.78 136.00 137.00
C 135.25 141.28 127.94 140.12 125.00 140.00
C 122.18 139.89 111.83 141.75 111.00 137.00
C 110.70 134.76 111.00 132.26 111.00 130.00
C 111.00 125.05 108.36 110.06 114.00 108.00
C 118.12 106.50 126.58 107.74 131.00 108.00
C 132.28 108.07 134.49 107.38 135.00 109.00 Z"/>
</g>
<g fill="#F4DAB5" fill-opacity="0.07" stroke="None">
<path d="
M 111.00 12.00 
C 112.83 9.64 119.14 11.07 122.00 11.00 C 124.86 10.93 131.97 9.97 134.00 12.00
C 136.77 13.36 135.00 28.79 135.00 32.00
C 135.00 32.50 135.00 33.50 135.00 34.00
C 135.34 34.23 136.00 34.00 136.00 34.00
C 136.18 27.73 134.52 23.44 136.00 17.00 C 137.48 10.56 130.66 8.42 126.00 10.00 C 121.34 11.58 112.32 6.91 111.00 12.00 Z"/>
</g>
<g fill="#F5E7BC" fill-opacity="0.58" stroke="None">
<path d="
M 111.00 12.00 
C 110.88 12.47 111.00 13.50 111.00 14.00
C 111.34 14.23 112.00 14.00 112.00 14.00
C 113.86 9.91 126.95 12.00 131.00 12.00
C 131.68 12.00 133.40 11.71 134.00 12.00
C 131.97 9.97 124.86 10.93 122.00 11.00 C 119.14 11.07 112.83 9.64 111.00 12.00 Z"/>
</g>
<g fill="#EAE8EA" fill-opacity="0.20" stroke="None">
<path d="
M 70.00 22.00 
C 72.97 25.68 71.00 36.37 71.00 41.00
C 73.37 47.05 85.43 42.09 90.00 42.00
C 86.10 41.30 73.01 44.54 73.01 37.99 C 73.01 31.44 71.39 20.18 75.00 15.00
C 75.19 13.42 75.29 14.07 76.00 13.00
C 76.23 12.65 76.00 12.00 76.00 12.00
C 71.48 12.94 72.20 19.16 70.00 22.00 Z"/>
</g>
<g fill="#C8C9DE" fill-opacity="0.37" stroke="None">
<path d="
M 76.00 13.00 
C 86.09 13.91 97.91 13.91 108.00 13.00
C 108.00 12.50 108.00 12.00 108.00 12.00
C 97.91 11.09 86.09 11.09 76.00 12.00
C 76.00 12.00 76.23 12.65 76.00 13.00 Z"/>
</g>
<g fill="#ACACD0" fill-opacity="0.04" stroke="None">
<path d="
M 108.00 13.00 
C 108.00 21.37 109.19 30.73 108.00 39.00
C 107.95 39.35 107.12 39.74 107.00 40.00
C 106.81 40.41 107.00 41.00 107.00 41.00
C 110.49 40.80 109.15 30.27 109.00 27.00 C 108.85 23.73 110.45 14.36 108.00 12.00
C 108.00 12.00 108.00 12.50 108.00 13.00 Z"/>
</g>
<g fill="#F8D06B" fill-opacity="1.00" stroke="None">
<path d="
M 112.00 14.00 
C 112.53 19.89 112.00 26.08 112.00 32.00
C 112.05 32.23 112.92 32.65 113.00 33.00
C 115.00 33.08 117.00 32.94 119.00 33.00
C 119.00 35.00 119.00 37.00 119.00 39.00
C 121.24 38.70 123.74 39.00 126.00 39.00
C 125.59 36.74 126.31 34.28 126.00 32.00
C 133.45 30.45 129.91 18.29 131.00 12.00
C 126.95 12.00 113.86 9.91 112.00 14.00 Z"/>
</g>
<g fill="#F5BA64" fill-opacity="0.99" stroke="None">
<path d="
M 126.00 39.00 
C 126.50 39.00 127.00 39.00 127.00 39.00
C 126.65 34.89 129.98 29.88 135.00 32.00
C 135.00 28.79 136.77 13.36 134.00 12.00
C 133.40 11.71 131.68 12.00 131.00 12.00
C 129.91 18.29 133.45 30.45 126.00 32.00
C 126.31 34.28 125.59 36.74 126.00 39.00 Z"/>
</g>
<g fill="#A8AAD4" fill-opacity="0.99" stroke="None">
<path d="
M 75.00 15.00 
C 74.40 19.83 75.00 25.13 75.00 30.00
C 75.16 28.93 76.90 26.74 76.00 25.00
C 86.12 25.73 96.60 26.15 107.00 25.00
C 107.64 29.50 105.70 35.33 108.00 39.00
C 109.19 30.73 108.00 21.37 108.00 13.00
C 97.91 13.91 86.09 13.91 76.00 13.00
C 75.29 14.07 75.19 13.42 75.00 15.00 Z"/>
</g>
<g fill="#FADA9F" fill-opacity="0.03" stroke="None">
<path d="
M 111.00 33.00 
C 111.02 32.90 112.00 33.00 112.00 33.00
C 112.00 32.50 112.00 32.00 112.00 32.00
C 112.00 26.08 112.53 19.89 112.00 14.00
C 112.00 14.00 111.34 14.23 111.00 14.00
C 111.00 20.33 111.00 26.67 111.00 33.00 Z"/>
</g>
<g fill="#D8D8DF" fill-opacity="0.81" stroke="None">
<path d="
M 90.00 42.00 
C 93.33 42.60 106.38 45.22 107.00 41.00
C 107.00 41.00 106.81 40.41 107.00 40.00
C 96.55 41.50 85.50 38.87 75.00 40.00
C 75.00 36.67 75.00 33.33 75.00 30.00
C 75.00 25.13 74.40 19.83 75.00 15.00
C 71.39 20.18 73.01 31.44 73.01 37.99 C 73.01 44.54 86.10 41.30 90.00 42.00 Z"/>
</g>
<g fill="#F8EEC9" fill-opacity="0.85" stroke="None">
<path d="
M 26.00 24.00 
C 26.33 23.76 27.00 24.00 27.00 24.00
C 32.64 20.78 40.89 24.51 47.00 23.00 C 53.11 21.49 63.05 25.66 68.00 22.00
C 62.64 22.00 50.71 21.57 46.00 22.00 C 41.29 22.43 26.23 19.95 26.00 24.00 Z"/>
</g>
<g fill="#FAD789" fill-opacity="1.00" stroke="None">
<path d="
M 27.00 24.00 
C 27.87 33.62 27.67 39.89 27.00 50.00 C 26.33 60.11 27.92 65.60 39.00 64.00 C 50.08 62.40 55.40 64.61 66.00 64.00
C 67.87 63.89 68.73 64.30 70.00 63.00
C 69.43 56.73 71.09 48.00 70.00 42.00 C 68.91 36.00 72.82 26.73 69.00 22.00
C 69.00 22.00 68.50 22.00 68.00 22.00
C 63.05 25.66 53.11 21.49 47.00 23.00 C 40.89 24.51 32.64 20.78 27.00 24.00 Z"/>
</g>
<g fill="#F5E3B0" fill-opacity="0.38" stroke="None">
<path d="
M 70.00 63.00 
C 70.24 62.75 71.00 63.00 71.00 63.00
C 71.65 55.80 71.00 48.23 71.00 41.00
C 71.00 36.37 72.97 25.68 70.00 22.00
C 70.00 22.00 69.50 22.00 69.00 22.00
C 72.82 26.73 68.91 36.00 70.00 42.00 C 71.09 48.00 69.43 56.73 70.00 63.00 Z"/>
</g>
<g fill="#E1DDD9" fill-opacity="0.73" stroke="None">
<path d="
M 35.00 68.00 
C 45.05 67.03 57.77 67.35 66.00 64.00
C 55.40 64.61 50.08 62.40 39.00 64.00 C 27.92 65.60 26.33 60.11 27.00 50.00 C 27.67 39.89 27.87 33.62 27.00 24.00
C 27.00 24.00 26.33 23.76 26.00 24.00
C 17.83 29.98 25.53 41.12 23.00 51.00 C 20.47 60.88 23.79 68.00 35.00 68.00 Z"/>
</g>
<g fill="#9899CE" fill-opacity="1.00" stroke="None">
<path d="
M 75.00 30.00 
C 75.00 33.33 75.00 36.67 75.00 40.00
C 85.50 38.87 96.55 41.50 107.00 40.00
C 107.12 39.74 107.95 39.35 108.00 39.00
C 105.70 35.33 107.64 29.50 107.00 25.00
C 96.60 26.15 86.12 25.73 76.00 25.00
C 76.90 26.74 75.16 28.93 75.00 30.00 Z"/>
</g>
<g fill="#9CCF9F" fill-opacity="0.84" stroke="None">
<path d="
M 112.00 33.00 
C 112.00 34.86 111.62 37.18 112.00 39.00
C 112.02 39.10 113.00 39.00 113.00 39.00
C 113.31 37.51 113.35 34.48 113.00 33.00
C 112.92 32.65 112.05 32.23 112.00 32.00
C 112.00 32.00 112.00 32.50 112.00 33.00 Z"/>
</g>
<g fill="#F39855" fill-opacity="0.98" stroke="None">
<path d="
M 127.00 39.00 
C 129.33 39.00 131.67 39.00 134.00 39.00
C 134.50 39.00 135.00 39.00 135.00 39.00
C 135.00 37.33 135.00 35.67 135.00 34.00
C 135.00 33.50 135.00 32.50 135.00 32.00
C 129.98 29.88 126.65 34.89 127.00 39.00 Z"/>
</g>
<g fill="#95D4AA" fill-opacity="0.02" stroke="None">
<path d="
M 111.00 39.00 
C 111.02 39.10 112.00 39.00 112.00 39.00
C 111.62 37.18 112.00 34.86 112.00 33.00
C 112.00 33.00 111.02 32.90 111.00 33.00
C 111.00 34.86 110.62 37.18 111.00 39.00 Z"/>
</g>
<g fill="#76C277" fill-opacity="1.00" stroke="None">
<path d="
M 113.00 39.00 
C 114.94 39.30 117.08 38.60 119.00 39.00
C 119.00 37.00 119.00 35.00 119.00 33.00
C 117.00 32.94 115.00 33.08 113.00 33.00
C 113.35 34.48 113.31 37.51 113.00 39.00 Z"/>
</g>
<g fill="#E8B3A2" fill-opacity="0.07" stroke="None">
<path d="
M 135.00 39.00 
C 135.00 39.50 135.00 40.00 135.00 40.00
C 136.74 38.85 135.95 35.94 136.00 34.00
C 136.00 34.00 135.34 34.23 135.00 34.00
C 135.00 35.67 135.00 37.33 135.00 39.00 Z"/>
</g>
<g fill="#E3E3E3" fill-opacity="0.02" stroke="None">
<path d="
M 130.00 42.00 
C 127.07 41.97 121.60 41.33 118.00 41.00
C 115.44 41.69 112.65 41.43 112.00 39.00
C 112.00 39.00 111.02 39.10 111.00 39.00
C 110.50 43.88 126.62 42.28 130.00 42.00 Z"/>
</g>
<g fill="#DDE3DD" fill-opacity="0.71" stroke="None">
<path d="
M 118.00 41.00 
C 117.96 41.00 118.00 40.00 118.00 40.00
C 116.05 40.24 114.29 40.24 113.00 39.00
C 113.00 39.00 112.02 39.10 112.00 39.00
C 112.65 41.43 115.44 41.69 118.00 41.00 Z"/>
</g>
<g fill="#B8D3BA" fill-opacity="0.99" stroke="None">
<path d="
M 118.00 40.00 
C 118.49 39.94 119.00 40.00 119.00 40.00
C 119.25 39.75 119.00 39.00 119.00 39.00
C 117.08 38.60 114.94 39.30 113.00 39.00
C 114.29 40.24 116.05 40.24 118.00 40.00 Z"/>
</g>
<g fill="#DDC8B7" fill-opacity="0.98" stroke="None">
<path d="
M 119.00 40.00 
C 123.19 40.00 130.85 41.33 134.00 39.00
C 131.67 39.00 129.33 39.00 127.00 39.00
C 127.00 39.00 126.50 39.00 126.00 39.00
C 123.74 39.00 121.24 38.70 119.00 39.00
C 119.00 39.00 119.25 39.75 119.00 40.00 Z"/>
</g>
<g fill="#E2DAD8" fill-opacity="0.48" stroke="None">
<path d="
M 119.00 40.00 
C 119.00 40.00 118.49 39.94 118.00 40.00
C 118.00 40.00 117.96 41.00 118.00 41.00
C 121.60 41.33 127.07 41.97 130.00 42.00
C 132.19 41.82 134.86 42.84 135.00 40.00
C 135.00 40.00 135.00 39.50 135.00 39.00
C 135.00 39.00 134.50 39.00 134.00 39.00
C 130.85 41.33 123.19 40.00 119.00 40.00 Z"/>
</g>
<g fill="#AEDEDF" fill-opacity="0.10" stroke="None">
<path d="
M 111.00 65.00 
C 111.01 64.93 112.00 65.00 112.00 65.00
C 111.62 60.82 110.26 47.74 113.00 45.00
C 114.61 43.39 133.82 40.75 134.92 46.08 C 136.01 51.42 134.44 65.82 135.00 72.00
C 135.50 72.00 136.00 72.00 136.00 72.00
C 136.00 62.33 136.00 52.67 136.00 43.00
C 130.88 45.20 116.42 39.96 112.26 43.26 C 108.10 46.56 111.00 60.22 111.00 65.00 Z"/>
</g>
<g fill="#74D2D3" fill-opacity="0.99" stroke="None">
<path d="
M 113.00 45.00 
C 110.91 47.99 113.00 60.18 113.00 64.00
C 115.83 63.74 122.14 63.07 124.00 65.00
C 124.31 67.29 123.77 69.70 124.00 72.00
C 127.00 72.00 130.00 72.00 133.00 72.00
C 133.50 72.00 134.50 72.00 135.00 72.00
C 134.44 65.82 136.01 51.42 134.92 46.08 C 133.82 40.75 114.61 43.39 113.00 45.00 Z"/>
</g>
<g fill="#A1D8D5" fill-opacity="0.84" stroke="None">
<path d="
M 112.00 65.00 
C 112.02 64.90 113.00 65.00 113.00 65.00
C 113.25 64.75 113.00 64.00 113.00 64.00
C 113.00 60.18 110.91 47.99 113.00 45.00
C 110.26 47.74 111.62 60.82 112.00 65.00 Z"/>
</g>
<g fill="#F1D3B1" fill-opacity="0.30" stroke="None">
<path d="
M 77.00 49.00 
C 76.77 49.35 77.15 50.55 77.00 51.00
C 77.34 51.23 78.00 51.00 78.00 51.00
C 79.76 47.14 90.28 49.00 94.00 49.00
C 98.33 49.00 102.67 49.00 107.00 49.00
C 107.00 50.00 107.00 51.00 107.00 52.00
C 108.40 56.30 108.36 72.80 106.00 76.00
C 105.78 76.30 105.35 76.95 105.00 77.00
C 105.51 76.96 107.01 77.37 108.00 76.00
C 111.70 69.29 106.37 63.82 109.00 56.00 C 111.63 48.18 101.52 45.99 96.00 48.00 C 90.48 50.01 79.98 44.42 77.00 49.00 Z"/>
</g>
<g fill="#F2F1F0" fill-opacity="0.05" stroke="None">
<path d="
M 72.00 69.00 
C 72.03 69.00 72.00 70.00 72.00 70.00
C 73.52 70.48 75.45 69.64 77.00 70.00
C 76.40 63.95 74.69 56.94 77.00 51.00
C 77.15 50.55 76.77 49.35 77.00 49.00
C 73.40 54.39 75.07 62.77 76.00 69.00
C 74.67 68.93 73.33 69.09 72.00 69.00 Z"/>
</g>
<g fill="#F7C977" fill-opacity="1.00" stroke="None">
<path d="
M 78.00 51.00 
C 78.57 57.28 77.57 63.71 78.00 70.00
C 80.33 70.00 82.67 70.00 85.00 70.00
C 85.09 70.02 87.03 71.07 87.00 71.00
C 85.31 63.95 86.88 57.37 87.00 50.00
C 89.19 49.48 92.62 51.14 94.00 49.00
C 90.28 49.00 79.76 47.14 78.00 51.00 Z"/>
</g>
<g fill="#F7B362" fill-opacity="1.00" stroke="None">
<path d="
M 87.00 71.00 
C 87.38 72.58 86.71 74.40 87.00 76.00
C 89.33 76.00 91.67 76.00 94.00 76.00
C 93.00 71.53 94.56 61.83 95.75 58.75 C 96.95 55.68 105.52 49.69 107.00 52.00
C 107.00 51.00 107.00 50.00 107.00 49.00
C 102.67 49.00 98.33 49.00 94.00 49.00
C 92.62 51.14 89.19 49.48 87.00 50.00
C 86.88 57.37 85.31 63.95 87.00 71.00 Z"/>
</g>
<g fill="#E7E6E7" fill-opacity="0.82" stroke="None">
<path d="
M 72.00 70.00 
C 72.92 71.74 73.57 72.82 75.00 74.00
C 71.21 75.33 66.99 73.75 63.00 73.00
C 63.93 76.97 60.85 74.76 59.00 76.00
C 58.29 83.07 58.00 89.82 58.00 97.00
C 58.05 97.23 58.90 97.65 59.00 98.00
C 62.30 98.73 66.61 98.00 70.00 98.00
C 69.88 96.92 71.60 95.64 72.00 95.00
C 73.57 92.50 75.39 91.85 77.00 88.00
C 79.78 88.87 80.50 91.98 84.00 91.00
C 84.53 89.22 85.23 88.66 86.00 92.00
C 86.00 88.06 85.65 83.93 86.00 80.00
C 84.59 80.37 83.61 79.98 83.00 80.00
C 80.25 80.10 77.76 81.43 75.00 81.00
C 74.02 80.85 72.98 81.12 72.00 81.00
C 72.34 77.28 77.28 77.04 79.00 74.00
C 83.03 75.93 84.98 77.91 87.00 80.00
C 89.09 80.47 91.85 80.00 94.00 80.00
C 92.49 80.29 105.31 79.51 107.00 78.00
C 107.00 77.29 107.68 76.59 108.00 76.00
C 107.01 77.37 105.51 76.96 105.00 77.00
C 101.11 77.56 95.60 75.23 92.00 77.00 C 88.40 78.77 82.87 72.37 85.00 70.00
C 82.67 70.00 80.33 70.00 78.00 70.00
C 77.57 63.71 78.57 57.28 78.00 51.00
C 78.00 51.00 77.34 51.23 77.00 51.00
C 74.69 56.94 76.40 63.95 77.00 70.00
C 75.45 69.64 73.52 70.48 72.00 70.00 Z"/>
</g>
<g fill="#F69D51" fill-opacity="1.00" stroke="None">
<path d="
M 94.00 76.00 
C 97.48 76.07 102.71 74.95 106.00 76.00
C 108.36 72.80 108.40 56.30 107.00 52.00
C 105.52 49.69 96.95 55.68 95.75 58.75 C 94.56 61.83 93.00 71.53 94.00 76.00 Z"/>
</g>
<g fill="#ECEAE6" fill-opacity="0.11" stroke="None">
<path d="
M 66.00 64.00 
C 57.77 67.35 45.05 67.03 35.00 68.00
C 40.70 68.00 50.74 67.91 56.00 68.00 C 61.26 68.09 69.84 67.67 71.00 63.00
C 71.00 63.00 70.24 62.75 70.00 63.00
C 68.73 64.30 67.87 63.89 66.00 64.00 Z"/>
</g>
<g fill="#8BCAAE" fill-opacity="1.00" stroke="None">
<path d="
M 113.00 65.00 
C 116.27 65.30 119.71 65.00 123.00 65.00
C 123.50 65.00 124.00 65.00 124.00 65.00
C 122.14 63.07 115.83 63.74 113.00 64.00
C 113.00 64.00 113.25 64.75 113.00 65.00 Z"/>
</g>
<g fill="#EED4A0" fill-opacity="0.03" stroke="None">
<path d="
M 111.00 72.00 
C 111.01 72.07 112.00 72.00 112.00 72.00
C 112.25 71.75 112.00 71.00 112.00 71.00
C 112.00 69.14 112.38 66.82 112.00 65.00
C 112.00 65.00 111.01 64.93 111.00 65.00
C 111.00 67.26 110.70 69.76 111.00 72.00 Z"/>
</g>
<g fill="#DBCFA2" fill-opacity="0.99" stroke="None">
<path d="
M 112.00 71.00 
C 115.46 72.76 120.11 72.00 124.00 72.00
C 123.77 69.70 124.31 67.29 124.00 65.00
C 124.00 65.00 123.50 65.00 123.00 65.00
C 123.25 66.97 122.81 69.02 123.00 71.00
C 119.67 71.00 116.33 71.00 113.00 71.00
C 113.00 69.00 113.00 67.00 113.00 65.00
C 113.00 65.00 112.02 64.90 112.00 65.00
C 112.38 66.82 112.00 69.14 112.00 71.00 Z"/>
</g>
<g fill="#F2CA65" fill-opacity="1.00" stroke="None">
<path d="
M 123.00 65.00 
C 119.71 65.00 116.27 65.30 113.00 65.00
C 113.00 67.00 113.00 69.00 113.00 71.00
C 116.33 71.00 119.67 71.00 123.00 71.00
C 122.81 69.02 123.25 66.97 123.00 65.00 Z"/>
</g>
<g fill="#EAEAEB" fill-opacity="0.27" stroke="None">
<path d="
M 59.00 76.00 
C 60.85 74.76 63.93 76.97 63.00 73.00
C 66.99 73.75 71.21 75.33 75.00 74.00
C 73.57 72.82 72.92 71.74 72.00 70.00
C 72.00 70.00 72.03 69.00 72.00 69.00
C 67.31 69.65 62.65 71.18 59.00 71.00
C 58.87 72.65 59.17 74.35 59.00 76.00 Z"/>
</g>
<g fill="#DCDCDC" fill-opacity="0.75" stroke="None">
<path d="
M 26.00 105.00 
C 26.27 107.09 28.91 107.13 26.00 110.00
C 26.23 109.54 27.61 109.21 28.00 109.00
C 29.94 107.93 31.57 108.31 34.00 108.00
C 40.74 107.13 50.71 106.20 57.00 107.00
C 58.15 107.15 60.46 107.96 61.00 108.00
C 63.35 106.54 66.96 106.49 69.00 108.00
C 69.30 108.22 69.77 108.95 70.00 109.00
C 77.11 108.59 83.12 109.15 90.00 109.00
C 91.71 106.78 104.14 107.37 107.00 109.00
C 107.38 109.22 108.00 109.00 108.00 109.00
C 105.08 107.06 107.49 106.81 109.00 105.00
C 108.92 105.19 107.45 104.85 107.00 105.00
C 100.51 107.24 91.99 106.00 85.00 106.00
C 80.36 106.00 77.71 105.28 74.00 104.00
C 73.00 104.00 72.00 104.00 71.00 104.00
C 67.00 104.00 63.00 104.00 59.00 104.00
C 53.30 104.00 32.99 105.96 32.00 102.00
C 32.00 91.33 32.00 80.67 32.00 70.00
C 21.41 76.53 26.83 93.70 26.00 105.00 Z"/>
</g>
<g fill="#DEC7B1" fill-opacity="1.00" stroke="None">
<path d="
M 105.00 77.00 
C 105.35 76.95 105.78 76.30 106.00 76.00
C 102.71 74.95 97.48 76.07 94.00 76.00
C 91.67 76.00 89.33 76.00 87.00 76.00
C 86.71 74.40 87.38 72.58 87.00 71.00
C 87.03 71.07 85.09 70.02 85.00 70.00
C 82.87 72.37 88.40 78.77 92.00 77.00 C 95.60 75.23 101.11 77.56 105.00 77.00 Z"/>
</g>
<g fill="#DBDCDA" fill-opacity="0.78" stroke="None">
<path d="
M 112.00 72.00 
C 113.78 72.61 115.57 73.28 117.00 74.00
C 117.00 74.00 117.50 74.00 118.00 74.00
C 121.57 71.36 128.98 73.71 133.00 72.00
C 130.00 72.00 127.00 72.00 124.00 72.00
C 120.11 72.00 115.46 72.76 112.00 71.00
C 112.00 71.00 112.25 71.75 112.00 72.00 Z"/>
</g>
<g fill="#EDE6E6" fill-opacity="0.09" stroke="None">
<path d="
M 117.00 74.00 
C 115.57 73.28 113.78 72.61 112.00 72.00
C 112.00 72.00 111.01 72.07 111.00 72.00
C 111.53 74.46 115.10 74.28 117.00 74.00 Z"/>
</g>
<g fill="#DFE3E0" fill-opacity="0.09" stroke="None">
<path d="
M 118.00 74.00 
C 121.19 74.00 135.17 75.86 136.00 72.00
C 136.00 72.00 135.50 72.00 135.00 72.00
C 134.50 72.00 133.50 72.00 133.00 72.00
C 128.98 73.71 121.57 71.36 118.00 74.00 Z"/>
</g>
<g fill="#E6E7E7" fill-opacity="0.21" stroke="None">
<path d="
M 75.00 81.00 
C 78.19 80.64 79.02 75.67 83.00 77.00
C 83.00 78.00 83.00 79.00 83.00 80.00
C 83.61 79.98 84.59 80.37 86.00 80.00
C 86.47 79.88 87.00 80.00 87.00 80.00
C 84.98 77.91 83.03 75.93 79.00 74.00
C 77.28 77.04 72.34 77.28 72.00 81.00
C 72.98 81.12 74.02 80.85 75.00 81.00 Z"/>
</g>
<g fill="#010101" fill-opacity="0.01" stroke="None">
<path d="
M 75.00 81.00 
C 77.76 81.43 80.25 80.10 83.00 80.00
C 83.00 79.00 83.00 78.00 83.00 77.00
C 79.02 75.67 78.19 80.64 75.00 81.00 Z"/>
</g>
<g fill="#F2A7B8" fill-opacity="0.03" stroke="None">
<path d="
M 111.00 99.00 
C 111.26 98.75 112.00 99.00 112.00 99.00
C 111.48 93.21 110.79 84.67 112.00 79.00
C 112.02 78.89 113.03 76.99 113.00 77.00
C 111.84 76.03 110.29 84.92 111.00 87.00 C 111.71 89.08 110.77 96.41 111.00 99.00 Z"/>
</g>
<g fill="#E89FB2" fill-opacity="0.51" stroke="None">
<path d="
M 112.00 79.00 
C 112.00 78.96 113.00 79.00 113.00 79.00
C 120.00 79.00 127.00 79.00 134.00 79.00
C 134.50 79.00 135.00 79.00 135.00 79.00
C 135.03 78.90 133.05 77.02 133.00 77.00
C 129.81 75.88 116.04 75.61 113.00 77.00
C 113.03 76.99 112.02 78.89 112.00 79.00 Z"/>
</g>
<g fill="#E5ADC3" fill-opacity="0.08" stroke="None">
<path d="
M 135.00 79.00 
C 135.56 85.22 135.00 91.75 135.00 98.00
C 135.00 99.96 135.22 102.06 135.00 104.00
C 135.04 103.65 134.31 107.14 135.00 106.00
C 137.88 102.38 135.46 94.39 136.00 90.00 C 136.54 85.61 137.38 78.48 133.00 77.00
C 133.05 77.02 135.03 78.90 135.00 79.00 Z"/>
</g>
<g fill="#C4EBEC" fill-opacity="0.31" stroke="None">
<path d="
M 94.00 80.00 
C 98.33 80.00 102.67 80.00 107.00 80.00
C 107.50 80.00 108.00 80.00 108.00 80.00
C 107.84 79.71 107.00 78.32 107.00 78.00
C 105.31 79.51 92.49 80.29 94.00 80.00 Z"/>
</g>
<g fill="#E898B0" fill-opacity="0.91" stroke="None">
<path d="
M 112.00 99.00 
C 112.50 99.00 113.00 99.00 113.00 99.00
C 112.75 98.75 113.00 98.00 113.00 98.00
C 113.00 91.75 113.56 85.22 113.00 79.00
C 113.00 79.00 112.00 78.96 112.00 79.00
C 110.79 84.67 111.48 93.21 112.00 99.00 Z"/>
</g>
<g fill="#F26085" fill-opacity="1.00" stroke="None">
<path d="
M 113.00 98.00 
C 116.27 97.70 119.71 98.00 123.00 98.00
C 126.67 98.00 130.33 98.00 134.00 98.00
C 133.46 92.01 133.46 84.99 134.00 79.00
C 127.00 79.00 120.00 79.00 113.00 79.00
C 113.56 85.22 113.00 91.75 113.00 98.00 Z"/>
</g>
<g fill="#E56E98" fill-opacity="0.87" stroke="None">
<path d="
M 134.00 98.00 
C 134.50 98.00 135.00 98.00 135.00 98.00
C 135.00 91.75 135.56 85.22 135.00 79.00
C 135.00 79.00 134.50 79.00 134.00 79.00
C 133.46 84.99 133.46 92.01 134.00 98.00 Z"/>
</g>
<g fill="#9FD7D9" fill-opacity="0.98" stroke="None">
<path d="
M 86.00 92.00 
C 86.00 93.86 85.62 96.18 86.00 98.00
C 86.50 98.00 87.00 98.00 87.00 98.00
C 87.51 92.32 87.51 85.68 87.00 80.00
C 87.00 80.00 86.47 79.88 86.00 80.00
C 85.65 83.93 86.00 88.06 86.00 92.00 Z"/>
</g>
<g fill="#22B4B7" fill-opacity="1.00" stroke="None">
<path d="
M 87.00 98.00 
C 88.46 104.17 83.67 104.29 79.00 104.00
C 78.50 103.97 77.50 104.00 77.00 104.00
C 78.95 104.43 83.12 105.82 85.00 106.00
C 91.99 106.00 100.51 107.24 107.00 105.00
C 104.68 99.77 106.48 85.80 107.00 80.00
C 102.67 80.00 98.33 80.00 94.00 80.00
C 91.85 80.00 89.09 80.47 87.00 80.00
C 87.51 85.68 87.51 92.32 87.00 98.00 Z"/>
</g>
<g fill="#61CCCC" fill-opacity="0.29" stroke="None">
<path d="
M 107.00 105.00 
C 107.45 104.85 108.92 105.19 109.00 105.00
C 110.47 101.70 108.48 95.60 109.00 92.00 C 109.52 88.40 109.55 82.82 108.00 80.00
C 108.00 80.00 107.50 80.00 107.00 80.00
C 106.48 85.80 104.68 99.77 107.00 105.00 Z"/>
</g>
<g fill="#000000" fill-opacity="0.00" stroke="None">
<path d="
M 72.00 95.00 
C 71.49 95.18 77.67 95.91 78.00 96.00
C 80.57 96.39 81.92 97.32 81.00 102.00
C 82.27 102.27 83.71 101.79 85.00 102.00
C 85.00 100.67 85.00 99.33 85.00 98.00
C 83.83 97.83 83.06 97.56 82.00 97.00
C 84.24 95.95 84.15 93.38 84.00 91.00
C 80.50 91.98 79.78 88.87 77.00 88.00
C 75.39 91.85 73.57 92.50 72.00 95.00 Z"/>
</g>
<g fill="#E2E4E4" fill-opacity="0.29" stroke="None">
<path d="
M 84.00 91.00 
C 84.15 93.38 84.24 95.95 82.00 97.00
C 83.06 97.56 83.83 97.83 85.00 98.00
C 85.49 98.07 86.00 98.00 86.00 98.00
C 85.62 96.18 86.00 93.86 86.00 92.00
C 85.23 88.66 84.53 89.22 84.00 91.00 Z"/>
</g>
<g fill="#EBE5E7" fill-opacity="0.35" stroke="None">
<path d="
M 70.00 98.00 
C 70.50 98.00 71.00 98.00 71.00 98.00
C 73.67 98.00 76.33 98.00 79.00 98.00
C 79.50 98.00 80.00 98.00 80.00 98.00
C 81.06 96.42 78.70 96.20 78.00 96.00
C 77.67 95.91 71.49 95.18 72.00 95.00
C 71.60 95.64 69.88 96.92 70.00 98.00 Z"/>
</g>
<g fill="#FCFCFC" fill-opacity="0.02" stroke="None">
<path d="
M 78.00 96.00 
C 78.70 96.20 81.06 96.42 80.00 98.00
C 80.29 98.48 80.17 101.44 80.00 102.00
C 80.41 101.81 81.00 102.00 81.00 102.00
C 81.92 97.32 80.57 96.39 78.00 96.00 Z"/>
</g>
<g fill="#B9CBDE" fill-opacity="0.11" stroke="None">
<path d="
M 58.00 102.00 
C 58.00 102.50 58.00 103.00 58.00 103.00
C 58.50 103.00 59.00 103.00 59.00 103.00
C 59.00 101.53 59.39 99.41 59.00 98.00
C 58.90 97.65 58.05 97.23 58.00 97.00
C 58.00 98.67 58.00 100.33 58.00 102.00 Z"/>
</g>
<g fill="#85AED6" fill-opacity="0.99" stroke="None">
<path d="
M 59.00 103.00 
C 59.00 103.50 59.00 104.00 59.00 104.00
C 63.00 104.00 67.00 104.00 71.00 104.00
C 70.70 102.06 71.40 99.92 71.00 98.00
C 71.00 98.00 70.50 98.00 70.00 98.00
C 66.61 98.00 62.30 98.73 59.00 98.00
C 59.39 99.41 59.00 101.53 59.00 103.00 Z"/>
</g>
<g fill="#E37599" fill-opacity="0.99" stroke="None">
<path d="
M 71.00 104.00 
C 72.00 104.00 73.00 104.00 74.00 104.00
C 75.00 104.00 76.00 104.00 77.00 104.00
C 77.50 104.00 78.50 103.97 79.00 104.00
C 79.23 103.66 79.00 103.00 79.00 103.00
C 79.00 101.61 78.55 99.31 79.00 98.00
C 76.33 98.00 73.67 98.00 71.00 98.00
C 71.40 99.92 70.70 102.06 71.00 104.00 Z"/>
</g>
<g fill="#EBB9C8" fill-opacity="0.33" stroke="None">
<path d="
M 79.00 103.00 
C 79.12 102.74 79.74 102.12 80.00 102.00
C 80.17 101.44 80.29 98.48 80.00 98.00
C 80.00 98.00 79.50 98.00 79.00 98.00
C 78.55 99.31 79.00 101.61 79.00 103.00 Z"/>
</g>
<g fill="#96CBD5" fill-opacity="0.37" stroke="None">
<path d="
M 81.00 102.00 
C 81.00 102.00 80.41 101.81 80.00 102.00
C 79.74 102.12 79.12 102.74 79.00 103.00
C 79.00 103.00 79.23 103.66 79.00 104.00
C 83.67 104.29 88.46 104.17 87.00 98.00
C 87.00 98.00 86.50 98.00 86.00 98.00
C 86.00 98.00 85.49 98.07 85.00 98.00
C 85.00 99.33 85.00 100.67 85.00 102.00
C 83.71 101.79 82.27 102.27 81.00 102.00 Z"/>
</g>
<g fill="#E9A2BB" fill-opacity="0.58" stroke="None">
<path d="
M 113.00 99.00 
C 113.50 99.00 114.00 99.00 114.00 99.00
C 116.33 99.00 118.67 99.00 121.00 99.00
C 121.50 99.00 122.00 99.00 122.00 99.00
C 122.50 99.00 123.00 99.00 123.00 99.00
C 123.00 98.50 123.00 98.00 123.00 98.00
C 119.71 98.00 116.27 97.70 113.00 98.00
C 113.00 98.00 112.75 98.75 113.00 99.00 Z"/>
</g>
<g fill="#F1A4A6" fill-opacity="0.98" stroke="None">
<path d="
M 123.00 99.00 
C 123.00 99.69 123.45 103.63 123.00 104.00
C 125.60 105.92 133.84 103.04 135.00 104.00
C 135.22 102.06 135.00 99.96 135.00 98.00
C 135.00 98.00 134.50 98.00 134.00 98.00
C 130.33 98.00 126.67 98.00 123.00 98.00
C 123.00 98.00 123.00 98.50 123.00 99.00 Z"/>
</g>
<g fill="#E5E2E2" fill-opacity="0.22" stroke="None">
<path d="
M 133.00 107.00 
C 126.75 106.38 118.51 106.18 112.00 105.00
C 112.08 103.74 114.06 104.44 114.00 103.00
C 114.28 102.31 114.00 100.75 114.00 100.00
C 114.00 99.50 114.00 99.00 114.00 99.00
C 114.00 99.00 113.50 99.00 113.00 99.00
C 113.00 99.00 112.50 99.00 112.00 99.00
C 112.00 99.00 111.26 98.75 111.00 99.00
C 109.22 100.77 112.09 104.25 111.00 107.00
C 118.25 106.33 125.78 107.89 133.00 107.00 Z"/>
</g>
<g fill="#2A002A" fill-opacity="0.02" stroke="None">
<path d="
M 114.00 100.00 
C 116.35 100.43 119.34 100.23 121.00 99.00
C 118.67 99.00 116.33 99.00 114.00 99.00
C 114.00 99.00 114.00 99.50 114.00 100.00 Z"/>
</g>
<g fill="#000000" fill-opacity="0.00" stroke="None">
<path d="
M 114.00 100.00 
C 114.00 100.75 114.28 102.31 114.00 103.00
C 115.56 102.39 120.35 102.63 122.00 103.00
C 121.67 101.94 122.56 99.93 122.00 99.00
C 122.00 99.00 121.50 99.00 121.00 99.00
C 119.34 100.23 116.35 100.43 114.00 100.00 Z"/>
</g>
<g fill="#F2E4E6" fill-opacity="0.08" stroke="None">
<path d="
M 122.00 103.00 
C 122.11 103.35 122.70 103.78 123.00 104.00
C 123.45 103.63 123.00 99.69 123.00 99.00
C 123.00 99.00 122.50 99.00 122.00 99.00
C 122.56 99.93 121.67 101.94 122.00 103.00 Z"/>
</g>
<g fill="#D6D4D6" fill-opacity="0.40" stroke="None">
<path d="
M 59.00 104.00 
C 59.00 104.00 59.00 103.50 59.00 103.00
C 59.00 103.00 58.50 103.00 58.00 103.00
C 49.50 103.00 39.67 103.83 32.00 102.00
C 32.99 105.96 53.30 104.00 59.00 104.00 Z"/>
</g>
<g fill="#FBFBFB" fill-opacity="0.02" stroke="None">
<path d="
M 58.00 103.00 
C 58.00 103.00 58.00 102.50 58.00 102.00
C 49.40 101.22 40.61 102.58 32.00 102.00
C 39.67 103.83 49.50 103.00 58.00 103.00 Z"/>
</g>
<g fill="#D7D2D4" fill-opacity="0.60" stroke="None">
<path d="
M 133.00 107.00 
C 134.11 106.86 134.43 106.94 135.00 106.00
C 134.31 107.14 135.04 103.65 135.00 104.00
C 133.84 103.04 125.60 105.92 123.00 104.00
C 122.70 103.78 122.11 103.35 122.00 103.00
C 120.35 102.63 115.56 102.39 114.00 103.00
C 114.06 104.44 112.08 103.74 112.00 105.00
C 118.51 106.18 126.75 106.38 133.00 107.00 Z"/>
</g>
<g fill="#B5C0C9" fill-opacity="1.00" stroke="None">
<path d="
M 85.00 106.00 
C 83.12 105.82 78.95 104.43 77.00 104.00
C 76.00 104.00 75.00 104.00 74.00 104.00
C 77.71 105.28 80.36 106.00 85.00 106.00 Z"/>
</g>
<g fill="#F0EFE1" fill-opacity="0.16" stroke="None">
<path d="
M 25.00 111.00 
C 25.46 110.86 26.00 111.00 26.00 111.00
C 26.00 110.50 26.00 110.00 26.00 110.00
C 28.91 107.13 26.27 107.09 26.00 105.00
C 25.83 107.25 25.40 108.92 25.00 111.00 Z"/>
</g>
<g fill="#F1EBCE" fill-opacity="0.45" stroke="None">
<path d="
M 34.00 108.00 
C 37.57 108.08 42.48 110.01 46.00 109.00 C 49.52 107.99 55.83 110.73 58.00 110.00
C 58.04 109.46 59.02 109.12 58.00 108.00
C 56.95 107.63 53.44 107.28 57.00 107.00
C 50.71 106.20 40.74 107.13 34.00 108.00 Z"/>
</g>
<g fill="#F6F7EB" fill-opacity="0.02" stroke="None">
<path d="
M 58.00 108.00 
C 58.51 108.18 59.41 109.20 60.00 109.00
C 60.05 108.65 60.68 108.20 61.00 108.00
C 60.46 107.96 58.15 107.15 57.00 107.00
C 53.44 107.28 56.95 107.63 58.00 108.00 Z"/>
</g>
<g fill="#FAE381" fill-opacity="1.00" stroke="None">
<path d="
M 28.00 109.00 
C 40.69 105.98 46.10 118.43 44.00 129.00 C 41.90 139.57 50.08 135.47 56.00 136.00
C 57.18 135.83 57.94 135.56 59.00 135.00
C 56.74 127.16 58.62 118.25 58.00 110.00
C 55.83 110.73 49.52 107.99 46.00 109.00 C 42.48 110.01 37.57 108.08 34.00 108.00
C 31.57 108.31 29.94 107.93 28.00 109.00 Z"/>
</g>
<g fill="#F6EEAA" fill-opacity="0.40" stroke="None">
<path d="
M 58.00 110.00 
C 58.62 118.25 56.74 127.16 59.00 135.00
C 57.94 135.56 57.18 135.83 56.00 136.00
C 55.93 136.01 56.00 137.00 56.00 137.00
C 56.89 136.77 58.71 135.75 59.00 137.00
C 63.19 130.76 58.89 116.72 60.00 109.00
C 59.41 109.20 58.51 108.18 58.00 108.00
C 59.02 109.12 58.04 109.46 58.00 110.00 Z"/>
</g>
<g fill="#A3DAD8" fill-opacity="0.05" stroke="None">
<path d="
M 64.00 131.00 
C 64.13 130.73 64.95 130.35 65.00 130.00
C 65.69 125.18 62.57 113.29 66.00 110.00
C 67.21 108.84 68.23 109.10 70.00 109.00
C 69.77 108.95 69.30 108.22 69.00 108.00
C 60.92 106.83 64.00 126.12 64.00 131.00 Z"/>
</g>
<g fill="#A5DBD1" fill-opacity="0.28" stroke="None">
<path d="
M 70.00 109.00 
C 68.23 109.10 67.21 108.84 66.00 110.00
C 68.61 108.17 74.71 110.80 78.00 110.00 C 81.29 109.20 86.51 110.32 90.00 110.00
C 89.75 109.75 90.00 109.00 90.00 109.00
C 83.12 109.15 77.11 108.59 70.00 109.00 Z"/>
</g>
<g fill="#F8F3BE" fill-opacity="0.28" stroke="None">
<path d="
M 90.00 109.00 
C 90.00 109.00 89.75 109.75 90.00 110.00
C 90.25 110.25 91.00 110.00 91.00 110.00
C 95.39 110.00 103.70 111.44 107.00 109.00
C 104.14 107.37 91.71 106.78 90.00 109.00 Z"/>
</g>
<g fill="#ABD6A9" fill-opacity="0.37" stroke="None">
<path d="
M 111.00 130.00 
C 111.01 129.93 112.00 130.00 112.00 130.00
C 112.50 130.00 113.00 130.00 113.00 130.00
C 113.60 123.39 112.55 116.63 113.00 110.00
C 120.33 110.00 127.67 110.00 135.00 110.00
C 135.00 109.50 135.00 109.00 135.00 109.00
C 134.49 107.38 132.28 108.07 131.00 108.00
C 129.32 108.08 125.27 108.67 123.00 109.00 C 120.73 109.33 115.09 107.70 114.00 108.00
C 108.36 110.06 111.00 125.05 111.00 130.00 Z"/>
</g>
<g fill="#A2F3A2" fill-opacity="0.01" stroke="None">
<path d="
M 131.00 108.00 
C 126.58 107.74 118.12 106.50 114.00 108.00
C 115.09 107.70 120.73 109.33 123.00 109.00 C 125.27 108.67 129.32 108.08 131.00 108.00 Z"/>
</g>
<g fill="#F7CE60" fill-opacity="1.00" stroke="None">
<path d="
M 26.00 110.00 
C 26.00 110.00 26.00 110.50 26.00 111.00
C 26.00 118.05 26.89 121.60 26.00 129.00 C 25.11 136.40 29.06 137.61 36.00 137.00 C 42.94 136.39 48.21 137.00 55.00 137.00
C 55.50 137.00 56.00 137.00 56.00 137.00
C 56.00 137.00 55.93 136.01 56.00 136.00
C 50.08 135.47 41.90 139.57 44.00 129.00 C 46.10 118.43 40.69 105.98 28.00 109.00
C 27.61 109.21 26.23 109.54 26.00 110.00 Z"/>
</g>
<g fill="#F8D768" fill-opacity="0.96" stroke="None">
<path d="
M 91.00 110.00 
C 91.77 118.51 91.77 128.49 91.00 137.00
C 94.00 137.00 97.00 137.00 100.00 137.00
C 99.03 133.10 103.63 127.25 108.00 130.00
C 107.76 128.15 108.81 127.11 109.00 126.00
C 108.77 121.94 110.86 111.76 108.00 109.00
C 108.00 109.00 107.38 109.22 107.00 109.00
C 103.70 111.44 95.39 110.00 91.00 110.00 Z"/>
</g>
<g fill="#B8D9AA" fill-opacity="0.11" stroke="None">
<path d="
M 135.00 110.00 
C 135.00 118.88 134.20 128.17 135.00 137.00
C 135.32 136.76 136.00 137.00 136.00 137.00
C 136.38 132.78 136.25 126.03 136.00 122.00 C 135.75 117.97 137.67 111.57 135.00 109.00
C 135.00 109.00 135.00 109.50 135.00 110.00 Z"/>
</g>
<g fill="#7BCEC2" fill-opacity="0.99" stroke="None">
<path d="
M 65.00 130.00 
C 66.65 129.63 74.90 129.07 74.00 132.00
C 74.17 132.13 74.15 135.76 74.00 136.00
C 77.58 138.65 85.41 136.59 90.00 137.00
C 89.23 128.49 89.23 118.51 90.00 110.00
C 86.51 110.32 81.29 109.20 78.00 110.00 C 74.71 110.80 68.61 108.17 66.00 110.00
C 62.57 113.29 65.69 125.18 65.00 130.00 Z"/>
</g>
<g fill="#A6D4AF" fill-opacity="1.00" stroke="None">
<path d="
M 90.00 137.00 
C 90.25 136.75 91.00 137.00 91.00 137.00
C 91.77 128.49 91.77 118.51 91.00 110.00
C 91.00 110.00 90.25 110.25 90.00 110.00
C 89.23 118.51 89.23 128.49 90.00 137.00 Z"/>
</g>
<g fill="#84C77D" fill-opacity="1.00" stroke="None">
<path d="
M 113.00 130.00 
C 116.33 130.00 119.67 130.00 123.00 130.00
C 123.50 130.00 124.00 130.00 124.00 130.00
C 126.31 129.78 128.68 130.16 131.00 130.00
C 131.00 132.33 131.00 134.67 131.00 137.00
C 132.33 137.00 133.67 137.00 135.00 137.00
C 134.20 128.17 135.00 118.88 135.00 110.00
C 127.67 110.00 120.33 110.00 113.00 110.00
C 112.55 116.63 113.60 123.39 113.00 130.00
M 119.00 116.00 
C 112.25 116.55 119.87 108.41 119.00 116.00 Z"/>
</g>
<g fill="#E2E1E0" fill-opacity="0.62" stroke="None">
<path d="
M 46.00 140.00 
C 48.00 139.81 53.90 139.41 55.00 137.00
C 48.21 137.00 42.94 136.39 36.00 137.00 C 29.06 137.61 25.11 136.40 26.00 129.00 C 26.89 121.60 26.00 118.05 26.00 111.00
C 26.00 111.00 25.46 110.86 25.00 111.00
C 20.52 112.34 23.79 123.08 23.00 127.00 C 22.21 130.92 22.21 140.15 28.00 140.00 C 33.79 139.85 40.17 139.85 46.00 140.00 Z"/>
</g>
<g fill="#DDC653" fill-opacity="1.00" stroke="None">
<path d="
M 119.00 116.00 
C 119.87 108.41 112.25 116.55 119.00 116.00 Z"/>
</g>
<g fill="#FBF2D7" fill-opacity="0.12" stroke="None">
<path d="
M 108.00 130.00 
C 108.16 131.24 108.76 131.24 109.00 132.00
C 109.18 129.71 109.13 128.24 109.00 126.00
C 108.81 127.11 107.76 128.15 108.00 130.00 Z"/>
</g>
<g fill="#D0E1E2" fill-opacity="0.45" stroke="None">
<path d="
M 64.00 131.00 
C 64.00 132.31 63.87 133.70 64.00 135.00
C 63.95 134.87 66.06 137.05 66.00 137.00
C 67.89 137.87 71.71 136.95 73.00 136.00
C 72.50 136.00 72.00 136.00 72.00 136.00
C 70.42 136.36 68.60 135.73 67.00 136.00
C 65.76 132.22 68.98 131.46 72.00 132.00
C 72.49 132.08 73.68 131.76 74.00 132.00
C 74.90 129.07 66.65 129.63 65.00 130.00
C 64.95 130.35 64.13 130.73 64.00 131.00 Z"/>
</g>
<g fill="#F1B66B" fill-opacity="0.91" stroke="None">
<path d="
M 100.00 137.00 
C 103.00 137.00 106.00 137.00 109.00 137.00
C 109.43 135.54 108.88 133.53 109.00 132.00
C 108.76 131.24 108.16 131.24 108.00 130.00
C 103.63 127.25 99.03 133.10 100.00 137.00 Z"/>
</g>
<g fill="#E0AEAE" fill-opacity="0.02" stroke="None">
<path d="
M 111.00 137.00 
C 111.01 137.07 112.00 137.00 112.00 137.00
C 111.69 134.71 112.31 132.29 112.00 130.00
C 112.00 130.00 111.01 129.93 111.00 130.00
C 111.00 132.26 110.70 134.76 111.00 137.00 Z"/>
</g>
<g fill="#E1AFBA" fill-opacity="0.77" stroke="None">
<path d="
M 112.00 137.00 
C 112.50 137.00 113.00 137.00 113.00 137.00
C 113.28 134.93 113.28 132.07 113.00 130.00
C 113.00 130.00 112.50 130.00 112.00 130.00
C 112.31 132.29 111.69 134.71 112.00 137.00 Z"/>
</g>
<g fill="#E57189" fill-opacity="1.00" stroke="None">
<path d="
M 113.00 137.00 
C 116.33 137.00 119.67 137.00 123.00 137.00
C 122.72 134.93 122.72 132.07 123.00 130.00
C 119.67 130.00 116.33 130.00 113.00 130.00
C 113.28 132.07 113.28 134.93 113.00 137.00 Z"/>
</g>
<g fill="#E6A968" fill-opacity="1.00" stroke="None">
<path d="
M 123.00 137.00 
C 123.50 137.00 124.00 137.00 124.00 137.00
C 124.50 137.00 125.00 137.00 125.00 137.00
C 123.86 134.76 123.91 132.56 124.00 130.00
C 124.00 130.00 123.50 130.00 123.00 130.00
C 122.72 132.07 122.72 134.93 123.00 137.00 Z"/>
</g>
<g fill="#F1CA48" fill-opacity="1.00" stroke="None">
<path d="
M 125.00 137.00 
C 127.00 137.00 129.00 137.00 131.00 137.00
C 131.00 134.67 131.00 132.33 131.00 130.00
C 128.68 130.16 126.31 129.78 124.00 130.00
C 123.91 132.56 123.86 134.76 125.00 137.00 Z"/>
</g>
<g fill="#000000" fill-opacity="0.00" stroke="None">
<path d="
M 72.00 136.00 
C 71.85 135.76 71.83 132.13 72.00 132.00
C 68.98 131.46 65.76 132.22 67.00 136.00
C 68.60 135.73 70.42 136.36 72.00 136.00 Z"/>
</g>
<g fill="#6ABEBD" fill-opacity="0.15" stroke="None">
<path d="
M 72.00 136.00 
C 72.00 136.00 72.50 136.00 73.00 136.00
C 73.50 136.00 74.00 136.00 74.00 136.00
C 74.15 135.76 74.17 132.13 74.00 132.00
C 73.68 131.76 72.49 132.08 72.00 132.00
C 71.83 132.13 71.85 135.76 72.00 136.00 Z"/>
</g>
<g fill="#E4E4E6" fill-opacity="0.16" stroke="None">
<path d="
M 73.00 138.00 
C 70.34 137.76 68.01 138.54 66.00 137.00
C 66.06 137.05 63.95 134.87 64.00 135.00
C 64.66 141.89 69.14 138.47 73.00 138.00 Z"/>
</g>
<g fill="#E9E8E5" fill-opacity="0.11" stroke="None">
<path d="
M 56.00 137.00 
C 56.00 137.00 55.50 137.00 55.00 137.00
C 53.90 139.41 48.00 139.81 46.00 140.00
C 49.36 140.09 56.39 140.88 59.00 137.00
C 58.71 135.75 56.89 136.77 56.00 137.00 Z"/>
</g>
<g fill="#D8E1E3" fill-opacity="0.79" stroke="None">
<path d="
M 66.00 137.00 
C 68.01 138.54 70.34 137.76 73.00 138.00
C 78.23 138.47 83.89 138.55 90.00 138.00
C 89.84 137.94 90.00 137.00 90.00 137.00
C 85.41 136.59 77.58 138.65 74.00 136.00
C 74.00 136.00 73.50 136.00 73.00 136.00
C 71.71 136.95 67.89 137.87 66.00 137.00 Z"/>
</g>
<g fill="#E4E1DF" fill-opacity="0.51" stroke="None">
<path d="
M 90.00 138.00 
C 94.08 139.53 107.22 143.08 109.00 137.00
C 106.00 137.00 103.00 137.00 100.00 137.00
C 97.00 137.00 94.00 137.00 91.00 137.00
C 91.00 137.00 90.25 136.75 90.00 137.00
C 90.00 137.00 89.84 137.94 90.00 138.00 Z"/>
</g>
<g fill="#E2DEE0" fill-opacity="0.40" stroke="None">
<path d="
M 125.00 140.00 
C 125.46 139.87 126.62 138.13 127.00 138.00
C 125.30 137.85 125.15 138.07 124.00 137.00
C 124.00 137.00 123.50 137.00 123.00 137.00
C 119.67 137.00 116.33 137.00 113.00 137.00
C 113.00 137.00 112.50 137.00 112.00 137.00
C 112.00 137.00 111.01 137.07 111.00 137.00
C 111.83 141.75 122.18 139.89 125.00 140.00 Z"/>
</g>
<g fill="#DEE0D2" fill-opacity="0.95" stroke="None">
<path d="
M 127.00 138.00 
C 129.68 138.23 133.05 138.44 135.00 137.00
C 133.67 137.00 132.33 137.00 131.00 137.00
C 129.00 137.00 127.00 137.00 125.00 137.00
C 125.00 137.00 124.50 137.00 124.00 137.00
C 125.15 138.07 125.30 137.85 127.00 138.00 Z"/>
</g>
<g fill="#EBECE9" fill-opacity="0.13" stroke="None">
<path d="
M 127.00 138.00 
C 126.62 138.13 125.46 139.87 125.00 140.00
C 127.94 140.12 135.25 141.28 136.00 137.00
C 136.00 137.00 135.32 136.76 135.00 137.00
C 133.05 138.44 129.68 138.23 127.00 138.00 Z"/>
</g>
</svg>