<svg xmlns="http://www.w3.org/2000/svg" xmlns:v="https://svgstorm.com"
viewBox = "0 0 49 38"
width="49"
height="38">
<g fill="None" fill-opacity="0.0" stroke="#000000" stroke-opacity="0.00" stroke-width="0.3"><path d="
M 0.00 38.00 
L 49.00 38.00
L 49.00 0.00
L 0.00 0.00
L 0.00 38.00
M 30.00 21.00 
C 29.05 22.35 28.18 23.01 27.00 24.00
C 26.74 24.22 26.32 24.80 26.00 25.00
C 19.01 29.32 18.59 31.90 12.25 25.75 C 5.90 19.61 3.72 16.71 9.25 11.25 C 14.77 5.79 17.71 1.08 22.75 6.25 C 27.79 11.41 34.40 14.75 30.00 21.00
M 24.00 32.00 
C 22.35 26.29 30.75 23.71 33.00 20.00
C 33.68 18.68 32.49 16.41 33.00 15.00
C 44.62 10.15 45.77 23.51 44.00 31.00 C 42.23 38.49 27.54 35.66 24.00 32.00 Z"/>
</g>
<g fill="None" fill-opacity="0.0" stroke="#DAA0A0" stroke-opacity="0.90" stroke-width="0.3"><path d="
M 26.00 25.00 
C 26.27 24.79 26.78 24.26 27.00 24.00
C 27.89 22.95 29.20 21.93 30.00 21.00
C 34.40 14.75 27.79 11.41 22.75 6.25 C 17.71 1.08 14.77 5.79 9.25 11.25 C 3.72 16.71 5.90 19.61 12.25 25.75 C 18.59 31.90 19.01 29.32 26.00 25.00
M 18.00 10.00 
C 17.84 10.12 16.76 9.45 18.00 9.00
C 20.42 8.69 19.58 10.56 18.00 10.00
M 12.00 16.00 
C 12.73 16.73 11.29 18.67 10.29 17.63 C 9.30 16.60 11.45 15.45 12.00 16.00
M 20.00 16.00 
C 20.73 16.73 19.29 18.67 18.29 17.63 C 17.30 16.60 19.45 15.45 20.00 16.00
M 26.00 18.00 
C 26.04 17.93 24.08 16.54 26.00 16.00
C 26.34 15.77 27.00 16.00 27.00 16.00
C 28.04 17.19 27.43 19.47 26.00 18.00
M 18.00 25.00 
C 17.03 26.41 16.88 24.68 18.00 24.00
C 20.30 23.71 19.60 24.60 18.00 25.00 Z"/>
</g>
<g fill="None" fill-opacity="0.0" stroke="#D99F9F" stroke-opacity="0.50" stroke-width="0.3"><path d="
M 18.00 10.00 
C 17.94 9.99 18.00 9.00 18.00 9.00
C 16.76 9.45 17.84 10.12 18.00 10.00 Z"/>
</g>
<g fill="None" fill-opacity="0.0" stroke="#000000" stroke-opacity="0.00" stroke-width="0.3"><path d="
M 18.00 10.00 
C 19.58 10.56 20.42 8.69 18.00 9.00
C 18.00 9.00 17.94 9.99 18.00 10.00 Z"/>
</g>
<g fill="None" fill-opacity="0.0" stroke="#DAA0A0" stroke-opacity="0.89" stroke-width="0.3"><path d="
M 33.00 20.00 
C 31.19 23.54 23.12 27.90 24.00 32.00
C 27.54 35.66 42.23 38.49 44.00 31.00 C 45.77 23.51 44.62 10.15 33.00 15.00
C 32.49 16.41 33.68 18.68 33.00 20.00
M 35.00 25.00 
C 33.84 26.03 34.10 25.99 33.00 25.00
C 32.64 24.67 31.71 24.20 33.00 24.00
C 33.25 23.75 34.00 24.00 34.00 24.00
C 35.40 23.19 36.10 24.92 35.00 25.00 Z"/>
</g>
<g fill="None" fill-opacity="0.0" stroke="#000000" stroke-opacity="0.00" stroke-width="0.3"><path d="
M 12.00 16.00 
C 11.45 15.45 9.30 16.60 10.29 17.63 C 11.29 18.67 12.73 16.73 12.00 16.00 Z"/>
</g>
<g fill="None" fill-opacity="0.0" stroke="#000000" stroke-opacity="0.00" stroke-width="0.3"><path d="
M 20.00 16.00 
C 19.45 15.45 17.30 16.60 18.29 17.63 C 19.29 18.67 20.73 16.73 20.00 16.00 Z"/>
</g>
<g fill="None" fill-opacity="0.0" stroke="#DB9F9F" stroke-opacity="0.25" stroke-width="0.3"><path d="
M 26.00 18.00 
C 26.22 17.62 25.77 16.16 26.00 16.00
C 24.08 16.54 26.04 17.93 26.00 18.00 Z"/>
</g>
<g fill="None" fill-opacity="0.0" stroke="#000000" stroke-opacity="0.00" stroke-width="0.3"><path d="
M 26.00 18.00 
C 26.13 17.78 27.74 16.71 27.00 16.00
C 27.00 16.00 26.34 15.77 26.00 16.00
C 25.77 16.16 26.22 17.62 26.00 18.00 Z"/>
</g>
<g fill="None" fill-opacity="0.0" stroke="#DBA0A0" stroke-opacity="0.45" stroke-width="0.3"><path d="
M 26.00 18.00 
C 27.43 19.47 28.04 17.19 27.00 16.00
C 27.74 16.71 26.13 17.78 26.00 18.00 Z"/>
</g>
<g fill="None" fill-opacity="0.0" stroke="#D99F9F" stroke-opacity="0.49" stroke-width="0.3"><path d="
M 24.00 32.00 
C 23.12 27.90 31.19 23.54 33.00 20.00
C 30.75 23.71 22.35 26.29 24.00 32.00 Z"/>
</g>
<g fill="None" fill-opacity="0.0" stroke="#E1A6A5" stroke-opacity="0.07" stroke-width="0.3"><path d="
M 27.00 24.00 
C 28.18 23.01 29.05 22.35 30.00 21.00
C 29.20 21.93 27.89 22.95 27.00 24.00 Z"/>
</g>
<g fill="None" fill-opacity="0.0" stroke="#DBA1A1" stroke-opacity="0.57" stroke-width="0.3"><path d="
M 34.00 24.00 
C 34.35 24.03 34.86 25.01 35.00 25.00
C 36.10 24.92 35.40 23.19 34.00 24.00 Z"/>
</g>
<g fill="None" fill-opacity="0.0" stroke="#DBA2A2" stroke-opacity="0.59" stroke-width="0.3"><path d="
M 18.00 25.00 
C 17.94 24.99 18.00 24.00 18.00 24.00
C 16.88 24.68 17.03 26.41 18.00 25.00 Z"/>
</g>
<g fill="None" fill-opacity="0.0" stroke="#000000" stroke-opacity="0.00" stroke-width="0.3"><path d="
M 18.00 25.00 
C 19.60 24.60 20.30 23.71 18.00 24.00
C 18.00 24.00 17.94 24.99 18.00 25.00 Z"/>
</g>
<g fill="None" fill-opacity="0.0" stroke="#FFFFFF" stroke-opacity="0.00" stroke-width="0.3"><path d="
M 26.00 25.00 
C 26.32 24.80 26.74 24.22 27.00 24.00
C 26.78 24.26 26.27 24.79 26.00 25.00 Z"/>
</g>
<g fill="None" fill-opacity="0.0" stroke="#DAA1A1" stroke-opacity="0.65" stroke-width="0.3"><path d="
M 33.00 25.00 
C 32.77 24.66 33.00 24.00 33.00 24.00
C 31.71 24.20 32.64 24.67 33.00 25.00 Z"/>
</g>
<g fill="None" fill-opacity="0.0" stroke="#000000" stroke-opacity="0.00" stroke-width="0.3"><path d="
M 33.00 25.00 
C 33.16 25.23 34.75 25.25 35.00 25.00
C 34.86 25.01 34.35 24.03 34.00 24.00
C 34.00 24.00 33.25 23.75 33.00 24.00
C 33.00 24.00 32.77 24.66 33.00 25.00 Z"/>
</g>
<g fill="None" fill-opacity="0.0" stroke="#DBA3A3" stroke-opacity="0.15" stroke-width="0.3"><path d="
M 35.00 25.00 
C 34.75 25.25 33.16 25.23 33.00 25.00
C 34.10 25.99 33.84 26.03 35.00 25.00 Z"/>
</g>
<g fill="#000000" fill-opacity="0.00" stroke="None">
<path d="
M 0.00 38.00 
L 49.00 38.00
L 49.00 0.00
L 0.00 0.00
L 0.00 38.00
M 30.00 21.00 
C 29.05 22.35 28.18 23.01 27.00 24.00
C 26.74 24.22 26.32 24.80 26.00 25.00
C 19.01 29.32 18.59 31.90 12.25 25.75 C 5.90 19.61 3.72 16.71 9.25 11.25 C 14.77 5.79 17.71 1.08 22.75 6.25 C 27.79 11.41 34.40 14.75 30.00 21.00
M 24.00 32.00 
C 22.35 26.29 30.75 23.71 33.00 20.00
C 33.68 18.68 32.49 16.41 33.00 15.00
C 44.62 10.15 45.77 23.51 44.00 31.00 C 42.23 38.49 27.54 35.66 24.00 32.00 Z"/>
</g>
<g fill="#DAA0A0" fill-opacity="0.90" stroke="None">
<path d="
M 26.00 25.00 
C 26.27 24.79 26.78 24.26 27.00 24.00
C 27.89 22.95 29.20 21.93 30.00 21.00
C 34.40 14.75 27.79 11.41 22.75 6.25 C 17.71 1.08 14.77 5.79 9.25 11.25 C 3.72 16.71 5.90 19.61 12.25 25.75 C 18.59 31.90 19.01 29.32 26.00 25.00
M 18.00 10.00 
C 17.84 10.12 16.76 9.45 18.00 9.00
C 20.42 8.69 19.58 10.56 18.00 10.00
M 12.00 16.00 
C 12.73 16.73 11.29 18.67 10.29 17.63 C 9.30 16.60 11.45 15.45 12.00 16.00
M 20.00 16.00 
C 20.73 16.73 19.29 18.67 18.29 17.63 C 17.30 16.60 19.45 15.45 20.00 16.00
M 26.00 18.00 
C 26.04 17.93 24.08 16.54 26.00 16.00
C 26.34 15.77 27.00 16.00 27.00 16.00
C 28.04 17.19 27.43 19.47 26.00 18.00
M 18.00 25.00 
C 17.03 26.41 16.88 24.68 18.00 24.00
C 20.30 23.71 19.60 24.60 18.00 25.00 Z"/>
</g>
<g fill="#D99F9F" fill-opacity="0.50" stroke="None">
<path d="
M 18.00 10.00 
C 17.94 9.99 18.00 9.00 18.00 9.00
C 16.76 9.45 17.84 10.12 18.00 10.00 Z"/>
</g>
<g fill="#000000" fill-opacity="0.00" stroke="None">
<path d="
M 18.00 10.00 
C 19.58 10.56 20.42 8.69 18.00 9.00
C 18.00 9.00 17.94 9.99 18.00 10.00 Z"/>
</g>
<g fill="#DAA0A0" fill-opacity="0.89" stroke="None">
<path d="
M 33.00 20.00 
C 31.19 23.54 23.12 27.90 24.00 32.00
C 27.54 35.66 42.23 38.49 44.00 31.00 C 45.77 23.51 44.62 10.15 33.00 15.00
C 32.49 16.41 33.68 18.68 33.00 20.00
M 35.00 25.00 
C 33.84 26.03 34.10 25.99 33.00 25.00
C 32.64 24.67 31.71 24.20 33.00 24.00
C 33.25 23.75 34.00 24.00 34.00 24.00
C 35.40 23.19 36.10 24.92 35.00 25.00 Z"/>
</g>
<g fill="#000000" fill-opacity="0.00" stroke="None">
<path d="
M 12.00 16.00 
C 11.45 15.45 9.30 16.60 10.29 17.63 C 11.29 18.67 12.73 16.73 12.00 16.00 Z"/>
</g>
<g fill="#000000" fill-opacity="0.00" stroke="None">
<path d="
M 20.00 16.00 
C 19.45 15.45 17.30 16.60 18.29 17.63 C 19.29 18.67 20.73 16.73 20.00 16.00 Z"/>
</g>
<g fill="#DB9F9F" fill-opacity="0.25" stroke="None">
<path d="
M 26.00 18.00 
C 26.22 17.62 25.77 16.16 26.00 16.00
C 24.08 16.54 26.04 17.93 26.00 18.00 Z"/>
</g>
<g fill="#000000" fill-opacity="0.00" stroke="None">
<path d="
M 26.00 18.00 
C 26.13 17.78 27.74 16.71 27.00 16.00
C 27.00 16.00 26.34 15.77 26.00 16.00
C 25.77 16.16 26.22 17.62 26.00 18.00 Z"/>
</g>
<g fill="#DBA0A0" fill-opacity="0.45" stroke="None">
<path d="
M 26.00 18.00 
C 27.43 19.47 28.04 17.19 27.00 16.00
C 27.74 16.71 26.13 17.78 26.00 18.00 Z"/>
</g>
<g fill="#D99F9F" fill-opacity="0.49" stroke="None">
<path d="
M 24.00 32.00 
C 23.12 27.90 31.19 23.54 33.00 20.00
C 30.75 23.71 22.35 26.29 24.00 32.00 Z"/>
</g>
<g fill="#E1A6A5" fill-opacity="0.07" stroke="None">
<path d="
M 27.00 24.00 
C 28.18 23.01 29.05 22.35 30.00 21.00
C 29.20 21.93 27.89 22.95 27.00 24.00 Z"/>
</g>
<g fill="#DBA1A1" fill-opacity="0.57" stroke="None">
<path d="
M 34.00 24.00 
C 34.35 24.03 34.86 25.01 35.00 25.00
C 36.10 24.92 35.40 23.19 34.00 24.00 Z"/>
</g>
<g fill="#DBA2A2" fill-opacity="0.59" stroke="None">
<path d="
M 18.00 25.00 
C 17.94 24.99 18.00 24.00 18.00 24.00
C 16.88 24.68 17.03 26.41 18.00 25.00 Z"/>
</g>
<g fill="#000000" fill-opacity="0.00" stroke="None">
<path d="
M 18.00 25.00 
C 19.60 24.60 20.30 23.71 18.00 24.00
C 18.00 24.00 17.94 24.99 18.00 25.00 Z"/>
</g>
<g fill="#FFFFFF" fill-opacity="0.00" stroke="None">
<path d="
M 26.00 25.00 
C 26.32 24.80 26.74 24.22 27.00 24.00
C 26.78 24.26 26.27 24.79 26.00 25.00 Z"/>
</g>
<g fill="#DAA1A1" fill-opacity="0.65" stroke="None">
<path d="
M 33.00 25.00 
C 32.77 24.66 33.00 24.00 33.00 24.00
C 31.71 24.20 32.64 24.67 33.00 25.00 Z"/>
</g>
<g fill="#000000" fill-opacity="0.00" stroke="None">
<path d="
M 33.00 25.00 
C 33.16 25.23 34.75 25.25 35.00 25.00
C 34.86 25.01 34.35 24.03 34.00 24.00
C 34.00 24.00 33.25 23.75 33.00 24.00
C 33.00 24.00 32.77 24.66 33.00 25.00 Z"/>
</g>
<g fill="#DBA3A3" fill-opacity="0.15" stroke="None">
<path d="
M 35.00 25.00 
C 34.75 25.25 33.16 25.23 33.00 25.00
C 34.10 25.99 33.84 26.03 35.00 25.00 Z"/>
</g>
</svg>