<svg xmlns="http://www.w3.org/2000/svg" xmlns:v="https://svgstorm.com"
viewBox = "0 0 44 290"
width="44"
height="290">
<g fill="None" fill-opacity="0.0" stroke="#000000" stroke-opacity="0.00" stroke-width="0.3"><path d="
M 0.00 290.00 
L 44.00 290.00
L 44.00 0.00
L 0.00 0.00
L 0.00 290.00
M 30.00 25.00 
C 30.22 25.67 30.70 27.05 31.00 28.00
C 31.89 28.73 32.64 30.73 33.00 32.00
C 33.65 34.25 33.43 36.69 34.00 39.00
C 35.31 39.41 35.15 41.88 35.00 43.00
C 35.12 43.34 35.78 44.38 36.00 45.00
C 37.50 49.25 38.00 53.99 38.00 59.00
C 38.54 64.59 38.40 71.82 39.00 78.00
C 41.08 80.01 40.00 86.05 40.00 89.00
C 40.00 93.99 40.38 101.64 39.02 106.02 C 37.67 110.41 40.35 119.10 35.00 121.00
C 34.85 125.01 32.91 129.08 32.00 133.00
C 31.71 135.59 32.00 138.39 32.00 141.00
C 32.00 141.50 32.00 142.00 32.00 142.00
C 32.00 146.67 32.00 151.33 32.00 156.00
C 32.00 157.00 32.00 158.00 32.00 159.00
C 32.00 160.67 32.00 162.33 32.00 164.00
C 32.00 165.00 32.00 166.00 32.00 167.00
C 32.00 173.28 33.00 178.78 33.00 185.00
C 33.00 194.64 33.37 204.37 33.00 214.00
C 32.83 218.52 32.19 222.42 32.00 227.00
C 31.59 237.10 32.04 250.45 29.00 260.00
C 28.72 260.89 28.19 262.06 28.00 263.00
C 27.46 265.69 29.11 268.59 26.00 270.00
C 26.00 270.50 26.00 271.00 26.00 271.00
C 31.11 273.74 20.14 293.40 19.00 286.00
C 18.04 285.47 18.28 283.80 18.00 283.00
C 17.50 281.59 16.45 280.41 16.00 279.00
C 15.86 278.55 16.19 277.41 16.00 277.00
C 14.88 274.66 13.27 272.81 15.00 270.00
C 15.22 269.64 15.00 269.00 15.00 269.00
C 11.71 266.48 11.62 253.52 11.00 249.00
C 10.87 248.05 11.00 246.96 11.00 246.00
C 11.00 245.50 11.00 244.50 11.00 244.00
C 11.00 242.69 11.13 241.30 11.00 240.00
C 10.36 233.54 10.00 226.81 10.00 220.00
C 10.00 219.50 10.00 219.00 10.00 219.00
C 8.62 217.38 9.06 215.25 9.00 213.00
C 8.22 185.15 7.19 155.01 9.00 128.00
C 9.03 127.50 9.00 127.00 9.00 127.00
C 5.82 124.56 5.77 119.78 5.00 116.00
C 4.62 114.15 4.43 111.92 4.00 110.00
C 3.65 109.82 3.07 108.37 3.00 108.00
C 2.91 107.52 3.11 106.47 3.00 106.00
C 1.19 98.17 2.00 89.25 2.00 81.00
C 2.00 80.00 2.00 79.00 2.00 78.00
C 2.00 73.45 3.55 69.60 4.00 66.00
C 3.76 64.60 3.94 64.85 4.00 64.00
C 4.22 60.85 4.65 57.88 5.00 55.00
C 5.16 53.70 4.75 52.28 5.00 51.00
C 6.24 44.56 9.33 37.13 11.00 30.00
C 11.28 28.79 11.72 27.85 12.00 27.00
C 12.37 24.87 12.27 23.41 14.00 22.00
C 13.78 21.64 14.00 21.00 14.00 21.00
C 14.10 18.34 14.98 14.69 17.00 13.00
C 16.08 11.64 17.79 10.69 18.00 10.00
C 17.89 9.05 17.68 7.22 19.00 7.00
C 18.77 6.84 19.00 5.50 19.00 5.00
C 19.01 3.46 20.13 2.60 20.00 1.00
C 26.99 4.57 26.90 17.34 30.00 25.00 Z"/>
</g>
<g fill="None" fill-opacity="0.0" stroke="#B5A89E" stroke-opacity="0.18" stroke-width="0.3"><path d="
M 19.00 5.00 
C 19.25 4.75 20.73 5.25 21.00 5.00
C 22.10 2.83 21.80 3.49 22.00 6.00
C 24.18 10.75 25.91 23.87 30.00 27.00
C 30.00 26.50 30.06 25.49 30.00 25.00
C 26.90 17.34 26.99 4.57 20.00 1.00
C 20.13 2.60 19.01 3.46 19.00 5.00 Z"/>
</g>
<g fill="None" fill-opacity="0.0" stroke="#533B31" stroke-opacity="0.97" stroke-width="0.3"><path d="
M 21.00 5.00 
C 20.63 5.72 20.30 6.25 20.00 7.00
C 19.47 8.29 18.45 9.93 18.00 11.00
C 18.00 11.50 18.13 12.54 18.00 13.00
C 17.20 15.89 15.77 18.80 14.00 21.00
C 14.00 21.00 13.78 21.64 14.00 22.00
C 15.31 24.14 12.03 32.32 11.01 36.01 C 9.99 39.69 8.04 46.90 7.00 51.00
C 6.65 52.37 6.30 53.57 6.00 55.00
C 5.48 57.48 4.10 62.02 4.00 64.00
C 3.95 65.07 4.05 67.23 4.00 68.00
C 4.00 71.00 4.00 74.00 4.00 77.00
C 4.00 78.67 4.00 80.33 4.00 82.00
C 4.00 83.00 4.00 84.00 4.00 85.00
C 4.00 88.33 4.00 91.67 4.00 95.00
C 4.30 98.13 5.34 100.72 4.00 104.00
C 3.85 105.13 3.18 105.34 3.00 106.00
C 3.11 106.47 2.91 107.52 3.00 108.00
C 3.11 108.20 6.17 108.25 5.00 110.00
C 5.18 112.24 5.41 113.88 6.00 116.00
C 7.04 119.73 8.35 123.07 9.00 127.00
C 9.00 127.00 9.03 127.50 9.00 128.00
C 11.56 131.16 11.00 135.83 11.00 140.00
C 11.00 153.33 11.00 166.67 11.00 180.00
C 11.00 179.96 12.00 180.00 12.00 180.00
C 12.00 170.67 12.00 161.33 12.00 152.00
C 13.66 176.60 13.67 204.47 12.00 229.00
C 12.00 229.50 12.00 230.00 12.00 230.00
C 12.00 233.08 11.34 237.00 12.00 240.00
C 13.28 240.21 12.93 242.09 13.00 243.00
C 13.09 244.32 13.00 245.68 13.00 247.00
C 13.14 248.03 14.86 251.02 15.00 252.00
C 14.56 250.73 14.96 248.36 15.00 247.00
C 14.67 243.90 14.00 239.77 14.00 236.00
C 14.00 218.00 14.00 200.00 14.00 182.00
C 14.00 172.83 13.17 162.34 15.00 154.00
C 17.33 182.43 15.33 212.82 16.00 242.00
C 16.00 245.29 15.71 248.72 16.00 252.00
C 16.13 253.45 16.95 254.46 17.00 256.00
C 17.06 257.77 17.37 262.68 16.00 259.00
C 15.94 258.84 15.00 259.00 15.00 259.00
C 14.74 259.12 13.98 259.93 14.00 260.00
C 14.62 262.28 14.93 261.81 15.00 264.00
C 16.59 262.85 19.29 263.86 21.00 264.00
C 21.00 263.00 21.00 262.00 21.00 261.00
C 16.92 261.63 16.42 252.59 21.00 254.00
C 13.88 249.29 20.95 237.75 19.00 230.00
C 22.41 233.87 22.20 228.86 22.00 226.00
C 20.87 217.42 16.58 207.49 21.00 199.00
C 17.17 201.56 18.58 194.26 20.00 193.00
C 22.44 186.15 22.70 181.82 20.00 177.00
C 15.97 169.81 18.01 159.06 22.00 153.00
C 19.40 150.30 18.24 146.81 21.00 143.00
C 19.23 141.55 16.78 142.43 15.00 141.00
C 15.00 141.50 15.00 142.00 15.00 142.00
C 14.74 144.38 14.78 146.98 16.00 149.00
C 12.65 147.05 10.33 141.78 13.00 137.00
C 13.50 128.50 7.87 120.19 7.33 112.33 C 6.79 104.46 6.13 98.53 7.00 91.00
C 4.00 83.24 5.70 68.22 7.00 60.00
C 7.12 57.69 7.64 56.08 8.00 54.00
C 10.41 39.98 15.11 26.64 19.00 13.00
C 19.60 20.55 15.03 29.71 14.00 38.00
C 13.84 40.39 14.67 43.33 13.00 46.00
C 15.72 44.66 17.68 41.66 21.00 42.00
C 17.66 37.82 20.82 33.31 18.00 29.00
C 22.42 27.90 21.37 23.78 23.00 21.00
C 22.65 17.49 22.00 13.84 22.00 10.00
C 22.00 8.68 22.10 7.31 22.00 6.00
C 21.80 3.49 22.10 2.83 21.00 5.00 Z"/>
</g>
<g fill="None" fill-opacity="0.0" stroke="#786558" stroke-opacity="0.27" stroke-width="0.3"><path d="
M 19.00 7.00 
C 19.49 6.92 20.00 7.00 20.00 7.00
C 20.30 6.25 20.63 5.72 21.00 5.00
C 20.73 5.25 19.25 4.75 19.00 5.00
C 19.00 5.50 18.77 6.84 19.00 7.00 Z"/>
</g>
<g fill="None" fill-opacity="0.0" stroke="#907B6C" stroke-opacity="0.97" stroke-width="0.3"><path d="
M 22.00 10.00 
C 22.97 15.02 24.78 22.00 26.00 27.00
C 25.91 25.75 25.50 23.48 27.00 23.00
C 28.64 33.17 32.42 42.80 34.00 53.00
C 34.01 52.90 29.67 58.63 35.00 59.00
C 33.86 61.52 32.76 64.08 33.00 67.00
C 33.16 68.28 36.77 73.41 36.00 77.00
C 34.66 74.15 33.56 76.55 32.00 78.00
C 32.54 79.16 33.55 79.82 34.00 81.00
C 35.22 84.22 31.80 89.67 31.74 93.74 C 31.69 97.82 30.47 107.13 34.00 107.00
C 28.06 108.25 35.07 116.41 29.00 118.00
C 26.11 123.90 31.44 136.25 27.00 145.00
C 29.01 145.82 28.47 143.18 30.00 143.00
C 30.00 142.50 30.00 141.50 30.00 141.00
C 30.00 132.57 30.97 126.27 35.00 120.00
C 35.67 115.92 37.70 112.25 38.00 108.00
C 37.98 107.04 37.90 105.01 38.00 104.00
C 38.16 102.37 38.00 100.64 38.00 99.00
C 36.63 100.70 34.24 102.15 35.00 105.00
C 31.79 101.65 34.54 98.86 38.00 97.00
C 38.00 96.00 38.00 95.00 38.00 94.00
C 35.87 89.06 37.00 85.13 37.00 79.00
C 37.00 74.72 36.63 70.26 37.00 66.00
C 37.15 64.30 36.93 64.15 38.00 63.00
C 38.00 62.50 38.00 62.00 38.00 62.00
C 36.47 59.20 33.54 47.28 35.00 45.00
C 34.92 44.51 35.00 44.00 35.00 44.00
C 33.95 42.54 33.51 40.90 33.00 39.00
C 32.58 37.44 31.88 35.87 32.00 34.00
C 31.28 31.81 29.77 31.03 30.00 28.00
C 30.04 27.50 30.00 27.00 30.00 27.00
C 25.91 23.87 24.18 10.75 22.00 6.00
C 22.10 7.31 22.00 8.68 22.00 10.00 Z"/>
</g>
<g fill="None" fill-opacity="0.0" stroke="#A48E8A" stroke-opacity="0.27" stroke-width="0.3"><path d="
M 18.00 10.00 
C 18.06 10.49 18.00 11.00 18.00 11.00
C 18.45 9.93 19.47 8.29 20.00 7.00
C 20.00 7.00 19.49 6.92 19.00 7.00
C 17.68 7.22 17.89 9.05 18.00 10.00 Z"/>
</g>
<g fill="None" fill-opacity="0.0" stroke="#D0CDCD" stroke-opacity="0.05" stroke-width="0.3"><path d="
M 17.00 13.00 
C 17.29 12.75 18.00 13.00 18.00 13.00
C 18.13 12.54 18.00 11.50 18.00 11.00
C 18.00 11.00 18.06 10.49 18.00 10.00
C 17.79 10.69 16.08 11.64 17.00 13.00 Z"/>
</g>
<g fill="None" fill-opacity="0.0" stroke="#BCAFA8" stroke-opacity="1.00" stroke-width="0.3"><path d="
M 23.00 21.00 
C 23.16 22.60 23.08 24.40 23.00 26.00
C 23.14 28.26 25.61 32.34 23.00 34.00
C 29.65 31.47 25.34 40.42 29.00 44.00
C 27.21 44.66 25.04 41.10 24.00 43.00
C 26.06 48.89 27.49 54.93 29.00 61.00
C 27.71 60.56 26.79 59.42 27.00 58.00
C 27.28 60.38 26.22 64.39 28.00 67.00
C 30.01 67.53 31.28 65.50 33.00 67.00
C 32.76 64.08 33.86 61.52 35.00 59.00
C 29.67 58.63 34.01 52.90 34.00 53.00
C 33.75 49.24 29.42 45.14 29.22 40.78 C 29.02 36.42 26.94 30.84 26.00 27.00
C 24.78 22.00 22.97 15.02 22.00 10.00
C 22.00 13.84 22.65 17.49 23.00 21.00 Z"/>
</g>
<g fill="None" fill-opacity="0.0" stroke="#918883" stroke-opacity="0.13" stroke-width="0.3"><path d="
M 14.00 21.00 
C 15.77 18.80 17.20 15.89 18.00 13.00
C 18.00 13.00 17.29 12.75 17.00 13.00
C 14.98 14.69 14.10 18.34 14.00 21.00 Z"/>
</g>
<g fill="None" fill-opacity="0.0" stroke="#C4B7B0" stroke-opacity="1.00" stroke-width="0.3"><path d="
M 8.00 54.00 
C 8.24 53.75 9.00 54.00 9.00 54.00
C 9.46 48.22 12.52 43.09 14.00 38.00
C 15.03 29.71 19.60 20.55 19.00 13.00
C 15.11 26.64 10.41 39.98 8.00 54.00 Z"/>
</g>
<g fill="None" fill-opacity="0.0" stroke="#6D5C55" stroke-opacity="1.00" stroke-width="0.3"><path d="
M 14.00 38.00 
C 12.52 43.09 9.46 48.22 9.00 54.00
C 8.13 64.90 9.82 74.43 8.00 85.00
C 5.70 77.58 7.64 68.18 7.00 60.00
C 5.70 68.22 4.00 83.24 7.00 91.00
C 7.29 91.75 8.73 93.27 9.00 94.00
C 8.53 91.56 9.62 89.24 7.00 88.00
C 11.37 84.01 7.33 71.75 16.00 71.00
C 17.82 75.84 15.15 85.31 22.00 88.00
C 17.85 89.65 22.66 94.21 18.00 94.00
C 22.99 98.83 17.24 95.74 18.00 101.00
C 15.61 100.03 15.68 97.09 15.00 95.00
C 13.73 97.26 14.13 104.67 19.00 103.00
C 17.13 106.08 17.40 109.52 17.20 112.25 C 17.00 114.98 19.54 124.12 16.00 118.00
C 13.52 123.12 16.37 128.83 17.00 134.00
C 17.88 131.22 20.53 130.04 21.00 133.00
C 17.80 134.72 20.18 137.98 19.00 141.00
C 17.46 141.37 16.60 139.57 15.00 140.00
C 14.95 140.49 15.00 141.00 15.00 141.00
C 16.78 142.43 19.23 141.55 21.00 143.00
C 18.24 146.81 19.40 150.30 22.00 153.00
C 18.01 159.06 15.97 169.81 20.00 177.00
C 21.09 166.72 21.57 161.60 24.00 151.00
C 19.15 145.85 22.58 142.59 21.21 136.77 C 19.84 130.95 25.23 121.58 20.00 118.00
C 23.95 113.75 20.93 109.78 22.00 105.00
C 25.18 107.55 23.40 103.77 26.00 104.00
C 25.03 102.15 24.21 99.76 22.00 99.00
C 22.54 97.34 24.56 96.67 25.00 95.00
C 24.60 95.20 24.00 95.00 24.00 95.00
C 20.30 96.25 23.19 92.86 25.00 92.00
C 22.02 90.60 22.99 88.31 21.00 86.00
C 22.69 86.32 24.29 84.68 24.00 83.00
C 24.13 82.53 23.98 81.50 24.00 81.00
C 21.37 76.10 21.51 70.31 22.00 64.00
C 25.65 67.14 21.03 52.81 21.00 49.00
C 20.43 53.55 16.09 58.75 16.00 63.00
C 19.06 63.35 18.19 58.53 21.00 58.00
C 20.70 62.33 17.06 65.60 17.00 70.00
C 15.23 67.02 15.87 67.32 14.00 70.00
C 12.92 68.83 11.88 64.96 10.00 68.00
C 10.18 64.73 12.28 61.11 10.00 58.00
C 13.74 63.15 15.47 60.01 16.00 54.00
C 14.31 57.11 13.95 53.26 11.00 55.00
C 13.19 52.33 14.32 52.81 11.00 51.00
C 14.25 49.93 14.14 44.85 18.00 45.00
C 17.52 46.58 14.79 50.29 18.00 50.00
C 17.53 47.42 20.28 41.37 21.00 47.00
C 21.60 44.89 22.36 42.00 24.00 40.00
C 18.97 36.00 23.11 31.19 23.00 26.00
C 23.08 24.40 23.16 22.60 23.00 21.00
C 21.37 23.78 22.42 27.90 18.00 29.00
C 20.82 33.31 17.66 37.82 21.00 42.00
C 17.68 41.66 15.72 44.66 13.00 46.00
C 14.67 43.33 13.84 40.39 14.00 38.00 Z"/>
</g>
<g fill="None" fill-opacity="0.0" stroke="#8D8583" stroke-opacity="0.15" stroke-width="0.3"><path d="
M 12.00 27.00 
C 11.74 28.50 11.44 28.92 11.00 30.00
C 9.33 37.13 6.24 44.56 5.00 51.00
C 5.32 50.76 6.75 51.25 7.00 51.00
C 8.04 46.90 9.99 39.69 11.01 36.01 C 12.03 32.32 15.31 24.14 14.00 22.00
C 12.27 23.41 12.37 24.87 12.00 27.00 Z"/>
</g>
<g fill="None" fill-opacity="0.0" stroke="#E1D4CA" stroke-opacity="1.00" stroke-width="0.3"><path d="
M 26.00 27.00 
C 26.94 30.84 29.02 36.42 29.22 40.78 C 29.42 45.14 33.75 49.24 34.00 53.00
C 32.42 42.80 28.64 33.17 27.00 23.00
C 25.50 23.48 25.91 25.75 26.00 27.00 Z"/>
</g>
<g fill="None" fill-opacity="0.0" stroke="#DCDD9C" stroke-opacity="0.02" stroke-width="0.3"><path d="
M 30.00 27.00 
C 30.00 27.00 30.04 27.50 30.00 28.00
C 30.25 28.25 31.00 28.00 31.00 28.00
C 30.70 27.05 30.22 25.67 30.00 25.00
C 30.06 25.49 30.00 26.50 30.00 27.00 Z"/>
</g>
<g fill="None" fill-opacity="0.0" stroke="#A2948D" stroke-opacity="1.00" stroke-width="0.3"><path d="
M 21.00 47.00 
C 20.87 47.46 20.85 48.55 21.00 49.00
C 21.03 52.81 25.65 67.14 22.00 64.00
C 21.51 70.31 21.37 76.10 24.00 81.00
C 24.24 75.21 28.99 70.85 25.00 65.00
C 29.95 67.08 28.47 74.67 32.00 68.00
C 34.58 71.71 29.23 74.90 32.00 78.00
C 33.56 76.55 34.66 74.15 36.00 77.00
C 36.77 73.41 33.16 68.28 33.00 67.00
C 31.28 65.50 30.01 67.53 28.00 67.00
C 26.22 64.39 27.28 60.38 27.00 58.00
C 25.41 54.55 20.66 46.34 24.00 43.00
C 25.04 41.10 27.21 44.66 29.00 44.00
C 25.34 40.42 29.65 31.47 23.00 34.00
C 25.61 32.34 23.14 28.26 23.00 26.00
C 23.11 31.19 18.97 36.00 24.00 40.00
C 22.36 42.00 21.60 44.89 21.00 47.00 Z"/>
</g>
<g fill="None" fill-opacity="0.0" stroke="#5F5353" stroke-opacity="0.02" stroke-width="0.3"><path d="
M 11.00 30.00 
C 11.44 28.92 11.74 28.50 12.00 27.00
C 11.72 27.85 11.28 28.79 11.00 30.00 Z"/>
</g>
<g fill="None" fill-opacity="0.0" stroke="#CEB8B0" stroke-opacity="0.28" stroke-width="0.3"><path d="
M 32.00 34.00 
C 32.07 32.93 32.91 32.51 33.00 32.00
C 32.64 30.73 31.89 28.73 31.00 28.00
C 31.00 28.00 30.25 28.25 30.00 28.00
C 29.77 31.03 31.28 31.81 32.00 34.00 Z"/>
</g>
<g fill="None" fill-opacity="0.0" stroke="#CEC7A7" stroke-opacity="0.13" stroke-width="0.3"><path d="
M 32.00 34.00 
C 31.88 35.87 32.58 37.44 33.00 39.00
C 33.09 39.20 34.00 39.00 34.00 39.00
C 33.43 36.69 33.65 34.25 33.00 32.00
C 32.91 32.51 32.07 32.93 32.00 34.00 Z"/>
</g>
<g fill="None" fill-opacity="0.0" stroke="#DCCAC1" stroke-opacity="0.22" stroke-width="0.3"><path d="
M 35.00 44.00 
C 35.00 43.50 35.00 43.00 35.00 43.00
C 35.15 41.88 35.31 39.41 34.00 39.00
C 34.00 39.00 33.09 39.20 33.00 39.00
C 33.51 40.90 33.95 42.54 35.00 44.00 Z"/>
</g>
<g fill="None" fill-opacity="0.0" stroke="#84746B" stroke-opacity="1.00" stroke-width="0.3"><path d="
M 27.00 58.00 
C 26.79 59.42 27.71 60.56 29.00 61.00
C 27.49 54.93 26.06 48.89 24.00 43.00
C 20.66 46.34 25.41 54.55 27.00 58.00 Z"/>
</g>
<g fill="None" fill-opacity="0.0" stroke="#EDA4A2" stroke-opacity="0.02" stroke-width="0.3"><path d="
M 35.00 44.00 
C 35.00 44.00 34.92 44.51 35.00 45.00
C 35.16 46.00 35.89 45.78 36.00 45.00
C 35.78 44.38 35.12 43.34 35.00 43.00
C 35.00 43.00 35.00 43.50 35.00 44.00 Z"/>
</g>
<g fill="None" fill-opacity="0.0" stroke="#55433C" stroke-opacity="1.00" stroke-width="0.3"><path d="
M 21.00 49.00 
C 20.85 48.55 20.87 47.46 21.00 47.00
C 20.28 41.37 17.53 47.42 18.00 50.00
C 14.79 50.29 17.52 46.58 18.00 45.00
C 14.14 44.85 14.25 49.93 11.00 51.00
C 14.32 52.81 13.19 52.33 11.00 55.00
C 13.95 53.26 14.31 57.11 16.00 54.00
C 15.47 60.01 13.74 63.15 10.00 58.00
C 12.28 61.11 10.18 64.73 10.00 68.00
C 11.88 64.96 12.92 68.83 14.00 70.00
C 15.87 67.32 15.23 67.02 17.00 70.00
C 17.06 65.60 20.70 62.33 21.00 58.00
C 18.19 58.53 19.06 63.35 16.00 63.00
C 16.09 58.75 20.43 53.55 21.00 49.00 Z"/>
</g>
<g fill="None" fill-opacity="0.0" stroke="#C3B9A4" stroke-opacity="0.21" stroke-width="0.3"><path d="
M 38.00 62.00 
C 38.00 61.00 38.00 60.00 38.00 59.00
C 38.00 53.99 37.50 49.25 36.00 45.00
C 35.89 45.78 35.16 46.00 35.00 45.00
C 33.54 47.28 36.47 59.20 38.00 62.00 Z"/>
</g>
<g fill="None" fill-opacity="0.0" stroke="#695A59" stroke-opacity="0.18" stroke-width="0.3"><path d="
M 5.00 55.00 
C 5.20 54.76 6.00 55.00 6.00 55.00
C 6.30 53.57 6.65 52.37 7.00 51.00
C 6.75 51.25 5.32 50.76 5.00 51.00
C 4.75 52.28 5.16 53.70 5.00 55.00 Z"/>
</g>
<g fill="None" fill-opacity="0.0" stroke="#A19188" stroke-opacity="1.00" stroke-width="0.3"><path d="
M 7.00 60.00 
C 7.64 68.18 5.70 77.58 8.00 85.00
C 9.82 74.43 8.13 64.90 9.00 54.00
C 9.00 54.00 8.24 53.75 8.00 54.00
C 7.64 56.08 7.12 57.69 7.00 60.00 Z"/>
</g>
<g fill="None" fill-opacity="0.0" stroke="#A9A09A" stroke-opacity="0.15" stroke-width="0.3"><path d="
M 4.00 64.00 
C 4.10 62.02 5.48 57.48 6.00 55.00
C 6.00 55.00 5.20 54.76 5.00 55.00
C 4.65 57.88 4.22 60.85 4.00 64.00 Z"/>
</g>
<g fill="None" fill-opacity="0.0" stroke="#9C8F87" stroke-opacity="0.06" stroke-width="0.3"><path d="
M 38.00 62.00 
C 38.00 62.00 38.00 62.50 38.00 63.00
C 38.00 64.00 38.00 65.00 38.00 66.00
C 38.00 70.00 38.00 74.00 38.00 78.00
C 38.25 77.75 39.00 78.00 39.00 78.00
C 38.40 71.82 38.54 64.59 38.00 59.00
C 38.00 60.00 38.00 61.00 38.00 62.00 Z"/>
</g>
<g fill="None" fill-opacity="0.0" stroke="#877869" stroke-opacity="0.55" stroke-width="0.3"><path d="
M 37.00 66.00 
C 37.00 65.96 38.00 66.00 38.00 66.00
C 38.00 65.00 38.00 64.00 38.00 63.00
C 36.93 64.15 37.15 64.30 37.00 66.00 Z"/>
</g>
<g fill="None" fill-opacity="0.0" stroke="#4E2A20" stroke-opacity="0.33" stroke-width="0.3"><path d="
M 4.00 66.00 
C 4.08 66.49 4.00 67.50 4.00 68.00
C 4.05 67.23 3.95 65.07 4.00 64.00
C 3.94 64.85 3.76 64.60 4.00 66.00 Z"/>
</g>
<g fill="None" fill-opacity="0.0" stroke="#B8ACA5" stroke-opacity="1.00" stroke-width="0.3"><path d="
M 24.00 81.00 
C 23.98 81.50 24.13 82.53 24.00 83.00
C 25.96 83.55 28.74 86.26 32.00 85.00
C 31.70 83.43 32.25 81.39 34.00 81.00
C 33.55 79.82 32.54 79.16 32.00 78.00
C 29.23 74.90 34.58 71.71 32.00 68.00
C 28.47 74.67 29.95 67.08 25.00 65.00
C 28.99 70.85 24.24 75.21 24.00 81.00 Z"/>
</g>
<g fill="None" fill-opacity="0.0" stroke="#7E7878" stroke-opacity="0.03" stroke-width="0.3"><path d="
M 2.00 78.00 
C 2.19 77.59 3.88 77.26 4.00 77.00
C 4.00 74.00 4.00 71.00 4.00 68.00
C 4.00 67.50 4.08 66.49 4.00 66.00
C 3.55 69.60 2.00 73.45 2.00 78.00 Z"/>
</g>
<g fill="None" fill-opacity="0.0" stroke="#7B6A5D" stroke-opacity="0.82" stroke-width="0.3"><path d="
M 37.00 79.00 
C 37.00 78.96 38.00 79.00 38.00 79.00
C 38.00 78.50 38.00 78.00 38.00 78.00
C 38.00 74.00 38.00 70.00 38.00 66.00
C 38.00 66.00 37.00 65.96 37.00 66.00
C 36.63 70.26 37.00 74.72 37.00 79.00 Z"/>
</g>
<g fill="None" fill-opacity="0.0" stroke="#55413A" stroke-opacity="1.00" stroke-width="0.3"><path d="
M 9.00 94.00 
C 10.42 101.33 10.41 109.86 10.98 117.02 C 11.55 124.19 15.86 132.08 15.00 140.00
C 16.60 139.57 17.46 141.37 19.00 141.00
C 20.18 137.98 17.80 134.72 21.00 133.00
C 20.53 130.04 17.88 131.22 17.00 134.00
C 16.37 128.83 13.52 123.12 16.00 118.00
C 19.54 124.12 17.00 114.98 17.20 112.25 C 17.40 109.52 17.13 106.08 19.00 103.00
C 14.13 104.67 13.73 97.26 15.00 95.00
C 15.68 97.09 15.61 100.03 18.00 101.00
C 17.24 95.74 22.99 98.83 18.00 94.00
C 22.66 94.21 17.85 89.65 22.00 88.00
C 15.15 85.31 17.82 75.84 16.00 71.00
C 7.33 71.75 11.37 84.01 7.00 88.00
C 9.62 89.24 8.53 91.56 9.00 94.00 Z"/>
</g>
<g fill="None" fill-opacity="0.0" stroke="#AEA9A7" stroke-opacity="0.11" stroke-width="0.3"><path d="
M 2.00 78.00 
C 2.00 79.00 2.00 80.00 2.00 81.00
C 2.20 81.41 3.87 81.73 4.00 82.00
C 4.00 80.33 4.00 78.67 4.00 77.00
C 3.88 77.26 2.19 77.59 2.00 78.00 Z"/>
</g>
<g fill="None" fill-opacity="0.0" stroke="#AD9D94" stroke-opacity="0.38" stroke-width="0.3"><path d="
M 38.00 79.00 
C 38.00 84.00 38.00 89.00 38.00 94.00
C 38.00 95.00 38.00 96.00 38.00 97.00
C 38.00 97.50 38.00 98.50 38.00 99.00
C 38.00 100.64 38.16 102.37 38.00 104.00
C 38.57 99.81 39.60 93.13 40.00 89.00
C 40.00 86.05 41.08 80.01 39.00 78.00
C 39.00 78.00 38.25 77.75 38.00 78.00
C 38.00 78.00 38.00 78.50 38.00 79.00 Z"/>
</g>
<g fill="None" fill-opacity="0.0" stroke="#765C4B" stroke-opacity="0.99" stroke-width="0.3"><path d="
M 38.00 94.00 
C 38.00 89.00 38.00 84.00 38.00 79.00
C 38.00 79.00 37.00 78.96 37.00 79.00
C 37.00 85.13 35.87 89.06 38.00 94.00 Z"/>
</g>
<g fill="None" fill-opacity="0.0" stroke="#7C7774" stroke-opacity="0.02" stroke-width="0.3"><path d="
M 3.00 106.00 
C 3.18 105.34 3.85 105.13 4.00 104.00
C 4.30 101.76 4.00 99.26 4.00 97.00
C 3.62 93.05 3.12 89.00 4.00 85.00
C 4.00 84.00 4.00 83.00 4.00 82.00
C 3.87 81.73 2.20 81.41 2.00 81.00
C 2.00 89.25 1.19 98.17 3.00 106.00 Z"/>
</g>
<g fill="None" fill-opacity="0.0" stroke="#9D8F88" stroke-opacity="1.00" stroke-width="0.3"><path d="
M 24.00 83.00 
C 24.29 84.68 22.69 86.32 21.00 86.00
C 22.99 88.31 22.02 90.60 25.00 92.00
C 23.19 92.86 20.30 96.25 24.00 95.00
C 24.59 92.15 29.11 89.58 32.00 89.00
C 30.52 92.01 27.37 93.60 25.00 95.00
C 24.56 96.67 22.54 97.34 22.00 99.00
C 24.21 99.76 25.03 102.15 26.00 104.00
C 23.40 103.77 25.18 107.55 22.00 105.00
C 20.93 109.78 23.95 113.75 20.00 118.00
C 25.23 121.58 19.84 130.95 21.21 136.77 C 22.58 142.59 19.15 145.85 24.00 151.00
C 21.57 161.60 21.09 166.72 20.00 177.00
C 22.70 181.82 22.44 186.15 20.00 193.00
C 20.24 194.64 22.04 192.30 23.00 193.00
C 22.62 200.00 19.52 206.87 23.00 214.00
C 23.56 210.92 25.28 208.09 26.00 205.00
C 26.00 189.88 24.64 174.05 26.00 159.00
C 25.64 159.98 24.30 161.40 25.00 163.00
C 19.96 161.38 24.37 157.46 27.00 156.00
C 25.80 153.75 25.91 151.76 25.00 150.00
C 23.95 148.85 23.85 149.95 23.00 148.00
C 22.02 145.75 22.34 144.04 25.00 143.00
C 21.09 139.44 24.64 133.58 24.66 130.32 C 24.68 127.05 21.56 120.19 29.00 118.00
C 35.07 116.41 28.06 108.25 34.00 107.00
C 30.47 107.13 31.69 97.82 31.74 93.74 C 31.80 89.67 35.22 84.22 34.00 81.00
C 32.25 81.39 31.70 83.43 32.00 85.00
C 28.74 86.26 25.96 83.55 24.00 83.00 Z"/>
</g>
<g fill="None" fill-opacity="0.0" stroke="#C6BDBB" stroke-opacity="0.27" stroke-width="0.3"><path d="
M 4.00 97.00 
C 4.00 96.50 4.00 95.50 4.00 95.00
C 4.00 91.67 4.00 88.33 4.00 85.00
C 3.12 89.00 3.62 93.05 4.00 97.00 Z"/>
</g>
<g fill="None" fill-opacity="0.0" stroke="#C4B8B0" stroke-opacity="1.00" stroke-width="0.3"><path d="
M 24.00 95.00 
C 24.00 95.00 24.60 95.20 25.00 95.00
C 27.37 93.60 30.52 92.01 32.00 89.00
C 29.11 89.58 24.59 92.15 24.00 95.00 Z"/>
</g>
<g fill="None" fill-opacity="0.0" stroke="#C0B9AA" stroke-opacity="0.09" stroke-width="0.3"><path d="
M 38.00 104.00 
C 37.82 105.30 38.09 106.69 38.00 108.00
C 37.70 112.25 35.67 115.92 35.00 120.00
C 34.92 120.49 35.00 121.00 35.00 121.00
C 40.35 119.10 37.67 110.41 39.02 106.02 C 40.38 101.64 40.00 93.99 40.00 89.00
C 39.60 93.13 38.57 99.81 38.00 104.00 Z"/>
</g>
<g fill="None" fill-opacity="0.0" stroke="#907F75" stroke-opacity="1.00" stroke-width="0.3"><path d="
M 13.00 137.00 
C 13.23 138.17 14.18 140.97 15.00 142.00
C 15.00 142.00 15.00 141.50 15.00 141.00
C 15.00 141.00 14.95 140.49 15.00 140.00
C 15.86 132.08 11.55 124.19 10.98 117.02 C 10.41 109.86 10.42 101.33 9.00 94.00
C 8.73 93.27 7.29 91.75 7.00 91.00
C 6.13 98.53 6.79 104.46 7.33 112.33 C 7.87 120.19 13.50 128.50 13.00 137.00 Z"/>
</g>
<g fill="None" fill-opacity="0.0" stroke="#51403C" stroke-opacity="0.80" stroke-width="0.3"><path d="
M 4.00 97.00 
C 4.00 99.26 4.30 101.76 4.00 104.00
C 5.34 100.72 4.30 98.13 4.00 95.00
C 4.00 95.50 4.00 96.50 4.00 97.00 Z"/>
</g>
<g fill="None" fill-opacity="0.0" stroke="#715B4E" stroke-opacity="1.00" stroke-width="0.3"><path d="
M 38.00 99.00 
C 38.00 98.50 38.00 97.50 38.00 97.00
C 34.54 98.86 31.79 101.65 35.00 105.00
C 34.24 102.15 36.63 100.70 38.00 99.00 Z"/>
</g>
<g fill="None" fill-opacity="0.0" stroke="#93816F" stroke-opacity="0.80" stroke-width="0.3"><path d="
M 38.00 108.00 
C 38.09 106.69 37.82 105.30 38.00 104.00
C 37.90 105.01 37.98 107.04 38.00 108.00 Z"/>
</g>
<g fill="None" fill-opacity="0.0" stroke="#6D5E3B" stroke-opacity="0.24" stroke-width="0.3"><path d="
M 4.00 110.00 
C 4.40 110.20 5.00 110.00 5.00 110.00
C 6.17 108.25 3.11 108.20 3.00 108.00
C 3.07 108.37 3.65 109.82 4.00 110.00 Z"/>
</g>
<g fill="None" fill-opacity="0.0" stroke="#AFA29C" stroke-opacity="0.15" stroke-width="0.3"><path d="
M 5.00 116.00 
C 5.24 116.25 6.00 116.00 6.00 116.00
C 5.41 113.88 5.18 112.24 5.00 110.00
C 5.00 110.00 4.40 110.20 4.00 110.00
C 4.43 111.92 4.62 114.15 5.00 116.00 Z"/>
</g>
<g fill="None" fill-opacity="0.0" stroke="#8A7A76" stroke-opacity="0.12" stroke-width="0.3"><path d="
M 9.00 127.00 
C 8.35 123.07 7.04 119.73 6.00 116.00
C 6.00 116.00 5.24 116.25 5.00 116.00
C 5.77 119.78 5.82 124.56 9.00 127.00 Z"/>
</g>
<g fill="None" fill-opacity="0.0" stroke="#BFB3AB" stroke-opacity="1.00" stroke-width="0.3"><path d="
M 23.00 148.00 
C 22.94 146.82 25.13 144.05 27.00 145.00
C 27.61 147.44 26.51 148.66 25.00 150.00
C 25.91 151.76 25.80 153.75 27.00 156.00
C 24.37 157.46 19.96 161.38 25.00 163.00
C 24.30 161.40 25.64 159.98 26.00 159.00
C 26.06 158.84 27.00 159.00 27.00 159.00
C 27.50 159.00 28.00 159.00 28.00 159.00
C 28.05 156.61 27.32 153.63 29.00 152.00
C 29.26 151.75 30.00 152.00 30.00 152.00
C 30.00 149.00 30.00 146.00 30.00 143.00
C 28.47 143.18 29.01 145.82 27.00 145.00
C 31.44 136.25 26.11 123.90 29.00 118.00
C 21.56 120.19 24.68 127.05 24.66 130.32 C 24.64 133.58 21.09 139.44 25.00 143.00
C 22.34 144.04 22.02 145.75 23.00 148.00
M 28.00 125.00 
C 26.98 130.80 26.81 136.88 27.00 143.00
C 25.15 137.74 24.46 129.88 28.00 125.00 Z"/>
</g>
<g fill="None" fill-opacity="0.0" stroke="#B8AB9F" stroke-opacity="0.29" stroke-width="0.3"><path d="
M 30.00 141.00 
C 30.05 141.23 30.74 141.88 31.00 142.00
C 31.41 142.19 32.00 142.00 32.00 142.00
C 32.00 142.00 32.00 141.50 32.00 141.00
C 30.07 138.40 31.42 135.48 32.00 133.00
C 32.91 129.08 34.85 125.01 35.00 121.00
C 35.00 121.00 34.92 120.49 35.00 120.00
C 30.97 126.27 30.00 132.57 30.00 141.00 Z"/>
</g>
<g fill="None" fill-opacity="0.0" stroke="#877E78" stroke-opacity="1.00" stroke-width="0.3"><path d="
M 28.00 125.00 
C 24.46 129.88 25.15 137.74 27.00 143.00
C 26.81 136.88 26.98 130.80 28.00 125.00 Z"/>
</g>
<g fill="None" fill-opacity="0.0" stroke="#AEACAB" stroke-opacity="0.04" stroke-width="0.3"><path d="
M 9.00 213.00 
C 9.00 213.04 10.00 213.00 10.00 213.00
C 10.00 188.90 8.75 163.25 11.00 140.00
C 11.00 135.83 11.56 131.16 9.00 128.00
C 7.19 155.01 8.22 185.15 9.00 213.00 Z"/>
</g>
<g fill="None" fill-opacity="0.0" stroke="#FE7F7F" stroke-opacity="0.01" stroke-width="0.3"><path d="
M 32.00 141.00 
C 32.00 138.39 31.71 135.59 32.00 133.00
C 31.42 135.48 30.07 138.40 32.00 141.00 Z"/>
</g>
<g fill="None" fill-opacity="0.0" stroke="#755F51" stroke-opacity="1.00" stroke-width="0.3"><path d="
M 15.00 142.00 
C 14.18 140.97 13.23 138.17 13.00 137.00
C 10.33 141.78 12.65 147.05 16.00 149.00
C 14.78 146.98 14.74 144.38 15.00 142.00 Z"/>
</g>
<g fill="None" fill-opacity="0.0" stroke="#AFA49B" stroke-opacity="0.31" stroke-width="0.3"><path d="
M 10.00 213.00 
C 10.00 215.00 10.00 217.00 10.00 219.00
C 10.00 219.00 10.00 219.50 10.00 220.00
C 10.25 220.25 11.00 220.00 11.00 220.00
C 11.00 206.67 11.00 193.33 11.00 180.00
C 11.00 166.67 11.00 153.33 11.00 140.00
C 8.75 163.25 10.00 188.90 10.00 213.00 Z"/>
</g>
<g fill="None" fill-opacity="0.0" stroke="#786960" stroke-opacity="0.47" stroke-width="0.3"><path d="
M 30.00 143.00 
C 30.00 146.00 30.00 149.00 30.00 152.00
C 30.00 159.67 30.00 167.33 30.00 175.00
C 30.00 174.96 31.00 175.00 31.00 175.00
C 31.00 172.01 31.49 169.32 32.00 167.00
C 32.00 166.00 32.00 165.00 32.00 164.00
C 31.53 161.83 31.54 161.12 32.00 159.00
C 32.00 158.00 32.00 157.00 32.00 156.00
C 31.08 151.82 31.67 146.67 31.00 142.00
C 30.74 141.88 30.05 141.23 30.00 141.00
C 30.00 141.50 30.00 142.50 30.00 143.00 Z"/>
</g>
<g fill="None" fill-opacity="0.0" stroke="#B9B6AE" stroke-opacity="0.02" stroke-width="0.3"><path d="
M 32.00 156.00 
C 32.00 151.33 32.00 146.67 32.00 142.00
C 32.00 142.00 31.41 142.19 31.00 142.00
C 31.67 146.67 31.08 151.82 32.00 156.00 Z"/>
</g>
<g fill="None" fill-opacity="0.0" stroke="#EAE3DC" stroke-opacity="1.00" stroke-width="0.3"><path d="
M 23.00 148.00 
C 23.85 149.95 23.95 148.85 25.00 150.00
C 26.51 148.66 27.61 147.44 27.00 145.00
C 25.13 144.05 22.94 146.82 23.00 148.00 Z"/>
</g>
<g fill="None" fill-opacity="0.0" stroke="#CEB5A4" stroke-opacity="1.00" stroke-width="0.3"><path d="
M 12.00 180.00 
C 12.00 194.00 12.00 208.00 12.00 222.00
C 12.00 224.33 12.00 226.67 12.00 229.00
C 13.67 204.47 13.66 176.60 12.00 152.00
C 12.00 161.33 12.00 170.67 12.00 180.00 Z"/>
</g>
<g fill="None" fill-opacity="0.0" stroke="#EBE1D6" stroke-opacity="1.00" stroke-width="0.3"><path d="
M 28.00 159.00 
C 27.89 164.33 28.00 169.67 28.00 175.00
C 28.00 192.54 27.38 211.27 29.00 228.00
C 29.00 203.02 26.75 176.87 29.00 152.00
C 27.32 153.63 28.05 156.61 28.00 159.00 Z"/>
</g>
<g fill="None" fill-opacity="0.0" stroke="#786050" stroke-opacity="0.95" stroke-width="0.3"><path d="
M 29.00 228.00 
C 29.00 232.20 29.32 250.11 26.00 251.00
C 26.00 251.50 26.00 252.00 26.00 252.00
C 26.97 253.64 26.19 254.12 26.00 256.00
C 25.86 257.40 25.07 260.50 26.00 261.00
C 26.05 260.85 27.00 261.00 27.00 261.00
C 31.08 251.18 30.01 236.19 31.00 226.00
C 30.45 222.18 31.00 217.86 31.00 214.00
C 31.00 203.67 31.00 193.33 31.00 183.00
C 30.80 180.90 30.00 177.77 30.00 175.00
C 30.00 167.33 30.00 159.67 30.00 152.00
C 30.00 152.00 29.26 151.75 29.00 152.00
C 26.75 176.87 29.00 203.02 29.00 228.00 Z"/>
</g>
<g fill="None" fill-opacity="0.0" stroke="#877267" stroke-opacity="1.00" stroke-width="0.3"><path d="
M 14.00 182.00 
C 15.64 198.95 15.63 219.12 14.00 236.00
C 14.00 239.77 14.67 243.90 15.00 247.00
C 15.05 245.13 15.83 243.20 16.00 242.00
C 15.33 212.82 17.33 182.43 15.00 154.00
C 13.17 162.34 14.00 172.83 14.00 182.00 Z"/>
</g>
<g fill="None" fill-opacity="0.0" stroke="#F2EDE7" stroke-opacity="1.00" stroke-width="0.3"><path d="
M 26.00 205.00 
C 26.00 213.57 24.03 220.61 23.00 228.00
C 23.01 229.33 23.00 230.67 23.00 232.00
C 23.00 235.75 22.29 239.99 22.00 243.00
C 22.00 245.33 22.04 247.67 22.00 250.00
C 22.17 251.08 23.89 253.25 23.00 255.00
C 25.95 255.57 24.97 252.77 26.00 252.00
C 26.00 252.00 26.00 251.50 26.00 251.00
C 26.00 225.55 27.00 200.60 27.00 175.00
C 27.00 169.74 27.47 164.24 27.00 159.00
C 27.00 159.00 26.06 158.84 26.00 159.00
C 24.64 174.05 26.00 189.88 26.00 205.00 Z"/>
</g>
<g fill="None" fill-opacity="0.0" stroke="#857D78" stroke-opacity="1.00" stroke-width="0.3"><path d="
M 27.00 175.00 
C 27.00 174.96 28.00 175.00 28.00 175.00
C 28.00 169.67 27.89 164.33 28.00 159.00
C 28.00 159.00 27.50 159.00 27.00 159.00
C 27.47 164.24 27.00 169.74 27.00 175.00 Z"/>
</g>
<g fill="None" fill-opacity="0.0" stroke="#A7A892" stroke-opacity="0.02" stroke-width="0.3"><path d="
M 32.00 164.00 
C 32.00 162.33 32.00 160.67 32.00 159.00
C 31.54 161.12 31.53 161.83 32.00 164.00 Z"/>
</g>
<g fill="None" fill-opacity="0.0" stroke="#BAAC9F" stroke-opacity="0.03" stroke-width="0.3"><path d="
M 31.00 175.00 
C 31.00 177.33 31.00 179.67 31.00 182.00
C 31.44 182.16 32.92 184.69 33.00 185.00
C 33.00 178.78 32.00 173.28 32.00 167.00
C 31.49 169.32 31.00 172.01 31.00 175.00 Z"/>
</g>
<g fill="None" fill-opacity="0.0" stroke="#B0A093" stroke-opacity="1.00" stroke-width="0.3"><path d="
M 26.00 251.00 
C 29.32 250.11 29.00 232.20 29.00 228.00
C 27.38 211.27 28.00 192.54 28.00 175.00
C 28.00 175.00 27.00 174.96 27.00 175.00
C 27.00 200.60 26.00 225.55 26.00 251.00 Z"/>
</g>
<g fill="None" fill-opacity="0.0" stroke="#6B594B" stroke-opacity="0.78" stroke-width="0.3"><path d="
M 31.00 183.00 
C 31.00 182.50 31.00 182.00 31.00 182.00
C 31.00 179.67 31.00 177.33 31.00 175.00
C 31.00 175.00 30.00 174.96 30.00 175.00
C 30.00 177.77 30.80 180.90 31.00 183.00 Z"/>
</g>
<g fill="None" fill-opacity="0.0" stroke="#836C5E" stroke-opacity="0.95" stroke-width="0.3"><path d="
M 11.00 220.00 
C 11.00 220.50 11.00 221.50 11.00 222.00
C 11.34 222.23 12.00 222.00 12.00 222.00
C 12.00 208.00 12.00 194.00 12.00 180.00
C 12.00 180.00 11.00 179.96 11.00 180.00
C 11.00 193.33 11.00 206.67 11.00 220.00 Z"/>
</g>
<g fill="None" fill-opacity="0.0" stroke="#AB978D" stroke-opacity="1.00" stroke-width="0.3"><path d="
M 14.00 236.00 
C 15.63 219.12 15.64 198.95 14.00 182.00
C 14.00 200.00 14.00 218.00 14.00 236.00 Z"/>
</g>
<g fill="None" fill-opacity="0.0" stroke="#C4B4AC" stroke-opacity="0.21" stroke-width="0.3"><path d="
M 31.00 183.00 
C 31.00 193.33 31.00 203.67 31.00 214.00
C 31.08 213.81 32.92 214.19 33.00 214.00
C 33.37 204.37 33.00 194.64 33.00 185.00
C 32.92 184.69 31.44 182.16 31.00 182.00
C 31.00 182.00 31.00 182.50 31.00 183.00 Z"/>
</g>
<g fill="None" fill-opacity="0.0" stroke="#665552" stroke-opacity="1.00" stroke-width="0.3"><path d="
M 22.00 226.00 
C 22.00 224.67 22.00 223.33 22.00 222.00
C 22.01 218.99 22.49 216.80 23.00 214.00
C 19.52 206.87 22.62 200.00 23.00 193.00
C 22.04 192.30 20.24 194.64 20.00 193.00
C 18.58 194.26 17.17 201.56 21.00 199.00
C 16.58 207.49 20.87 217.42 22.00 226.00 Z"/>
</g>
<g fill="None" fill-opacity="0.0" stroke="#BEB2AA" stroke-opacity="1.00" stroke-width="0.3"><path d="
M 23.00 214.00 
C 22.49 216.80 22.01 218.99 22.00 222.00
C 22.11 223.40 22.99 225.93 23.00 228.00
C 24.03 220.61 26.00 213.57 26.00 205.00
C 25.28 208.09 23.56 210.92 23.00 214.00 Z"/>
</g>
<g fill="None" fill-opacity="0.0" stroke="#FEFFEC" stroke-opacity="0.01" stroke-width="0.3"><path d="
M 10.00 219.00 
C 10.00 217.00 10.00 215.00 10.00 213.00
C 10.00 213.00 9.00 213.04 9.00 213.00
C 9.06 215.25 8.62 217.38 10.00 219.00 Z"/>
</g>
<g fill="None" fill-opacity="0.0" stroke="#BFAF9F" stroke-opacity="0.04" stroke-width="0.3"><path d="
M 31.00 226.00 
C 31.05 226.35 31.93 226.76 32.00 227.00
C 32.19 222.42 32.83 218.52 33.00 214.00
C 32.92 214.19 31.08 213.81 31.00 214.00
C 31.00 217.86 30.45 222.18 31.00 226.00 Z"/>
</g>
<g fill="None" fill-opacity="0.0" stroke="#A0968B" stroke-opacity="0.12" stroke-width="0.3"><path d="
M 11.00 240.00 
C 11.11 240.21 12.00 240.00 12.00 240.00
C 11.34 237.00 12.00 233.08 12.00 230.00
C 11.80 227.90 11.00 224.77 11.00 222.00
C 11.00 221.50 11.00 220.50 11.00 220.00
C 11.00 220.00 10.25 220.25 10.00 220.00
C 10.00 226.81 10.36 233.54 11.00 240.00 Z"/>
</g>
<g fill="None" fill-opacity="0.0" stroke="#8F7E6E" stroke-opacity="0.65" stroke-width="0.3"><path d="
M 12.00 230.00 
C 12.00 230.00 12.00 229.50 12.00 229.00
C 12.00 226.67 12.00 224.33 12.00 222.00
C 12.00 222.00 11.34 222.23 11.00 222.00
C 11.00 224.77 11.80 227.90 12.00 230.00 Z"/>
</g>
<g fill="None" fill-opacity="0.0" stroke="#907463" stroke-opacity="1.00" stroke-width="0.3"><path d="
M 22.00 226.00 
C 22.20 228.86 22.41 233.87 19.00 230.00
C 20.95 237.75 13.88 249.29 21.00 254.00
C 16.42 252.59 16.92 261.63 21.00 261.00
C 21.01 257.28 21.93 253.89 22.00 250.00
C 22.04 247.67 22.00 245.33 22.00 243.00
C 22.00 239.18 22.58 235.11 23.00 232.00
C 23.00 230.67 23.01 229.33 23.00 228.00
C 22.99 225.93 22.11 223.40 22.00 222.00
C 22.00 223.33 22.00 224.67 22.00 226.00 Z"/>
</g>
<g fill="None" fill-opacity="0.0" stroke="#B4A49B" stroke-opacity="0.17" stroke-width="0.3"><path d="
M 27.00 261.00 
C 26.55 262.07 26.37 262.92 26.00 264.00
C 25.91 265.20 27.30 266.06 26.00 268.00
C 25.77 268.34 26.00 269.00 26.00 269.00
C 26.00 269.50 26.00 270.00 26.00 270.00
C 29.11 268.59 27.46 265.69 28.00 263.00
C 28.07 262.04 28.47 261.36 29.00 260.00
C 32.04 250.45 31.59 237.10 32.00 227.00
C 31.93 226.76 31.05 226.35 31.00 226.00
C 30.01 236.19 31.08 251.18 27.00 261.00 Z"/>
</g>
<g fill="None" fill-opacity="0.0" stroke="#C0B2A8" stroke-opacity="1.00" stroke-width="0.3"><path d="
M 22.00 243.00 
C 22.29 239.99 23.00 235.75 23.00 232.00
C 22.58 235.11 22.00 239.18 22.00 243.00 Z"/>
</g>
<g fill="None" fill-opacity="0.0" stroke="#604947" stroke-opacity="0.35" stroke-width="0.3"><path d="
M 11.00 244.00 
C 11.17 243.57 12.86 243.28 13.00 243.00
C 12.93 242.09 13.28 240.21 12.00 240.00
C 12.00 240.00 11.11 240.21 11.00 240.00
C 11.13 241.30 11.00 242.69 11.00 244.00 Z"/>
</g>
<g fill="None" fill-opacity="0.0" stroke="#A99687" stroke-opacity="1.00" stroke-width="0.3"><path d="
M 15.00 247.00 
C 14.96 248.36 14.56 250.73 15.00 252.00
C 15.05 252.15 16.00 252.00 16.00 252.00
C 15.71 248.72 16.00 245.29 16.00 242.00
C 15.83 243.20 15.05 245.13 15.00 247.00 Z"/>
</g>
<g fill="None" fill-opacity="0.0" stroke="#97918B" stroke-opacity="0.12" stroke-width="0.3"><path d="
M 11.00 244.00 
C 11.00 244.50 11.00 245.50 11.00 246.00
C 11.53 247.58 11.03 247.80 11.00 249.00
C 11.62 253.52 11.71 266.48 15.00 269.00
C 15.12 268.74 15.96 268.35 16.00 268.00
C 14.14 265.57 15.07 266.29 15.00 264.00
C 14.93 261.81 14.62 262.28 14.00 260.00
C 12.90 255.92 13.00 251.37 13.00 247.00
C 13.00 245.68 13.09 244.32 13.00 243.00
C 12.86 243.28 11.17 243.57 11.00 244.00 Z"/>
</g>
<g fill="None" fill-opacity="0.0" stroke="#8D4646" stroke-opacity="0.02" stroke-width="0.3"><path d="
M 11.00 249.00 
C 11.03 247.80 11.53 247.58 11.00 246.00
C 11.00 246.96 10.87 248.05 11.00 249.00 Z"/>
</g>
<g fill="None" fill-opacity="0.0" stroke="#3D2921" stroke-opacity="0.83" stroke-width="0.3"><path d="
M 14.00 260.00 
C 13.98 259.93 14.74 259.12 15.00 259.00
C 15.42 256.75 14.70 254.28 15.00 252.00
C 14.86 251.02 13.14 248.03 13.00 247.00
C 13.00 251.37 12.90 255.92 14.00 260.00 Z"/>
</g>
<g fill="None" fill-opacity="0.0" stroke="#B3A092" stroke-opacity="0.98" stroke-width="0.3"><path d="
M 21.00 261.00 
C 20.98 265.70 21.00 272.09 21.00 278.00
C 21.27 275.99 22.86 272.71 22.00 270.00
C 23.28 269.47 23.86 270.97 25.00 271.00
C 24.90 269.42 25.36 269.97 26.00 269.00
C 26.00 269.00 25.77 268.34 26.00 268.00
C 25.13 266.33 25.51 265.46 26.00 264.00
C 26.37 262.92 26.55 262.07 27.00 261.00
C 27.00 261.00 26.05 260.85 26.00 261.00
C 25.44 262.75 24.26 265.30 22.00 265.00
C 25.73 262.08 18.36 255.87 26.00 256.00
C 26.19 254.12 26.97 253.64 26.00 252.00
C 24.97 252.77 25.95 255.57 23.00 255.00
C 23.89 253.25 22.17 251.08 22.00 250.00
C 21.93 253.89 21.01 257.28 21.00 261.00 Z"/>
</g>
<g fill="None" fill-opacity="0.0" stroke="#846758" stroke-opacity="1.00" stroke-width="0.3"><path d="
M 15.00 259.00 
C 15.00 259.00 15.94 258.84 16.00 259.00
C 16.20 258.38 16.94 256.29 17.00 256.00
C 16.95 254.46 16.13 253.45 16.00 252.00
C 16.00 252.00 15.05 252.15 15.00 252.00
C 14.70 254.28 15.42 256.75 15.00 259.00 Z"/>
</g>
<g fill="None" fill-opacity="0.0" stroke="#AF9183" stroke-opacity="1.00" stroke-width="0.3"><path d="
M 16.00 259.00 
C 17.37 262.68 17.06 257.77 17.00 256.00
C 16.94 256.29 16.20 258.38 16.00 259.00 Z"/>
</g>
<g fill="None" fill-opacity="0.0" stroke="#E6DBD0" stroke-opacity="1.00" stroke-width="0.3"><path d="
M 26.00 261.00 
C 25.07 260.50 25.86 257.40 26.00 256.00
C 18.36 255.87 25.73 262.08 22.00 265.00
C 24.26 265.30 25.44 262.75 26.00 261.00 Z"/>
</g>
<g fill="None" fill-opacity="0.0" stroke="#C6807F" stroke-opacity="0.02" stroke-width="0.3"><path d="
M 28.00 263.00 
C 28.19 262.06 28.72 260.89 29.00 260.00
C 28.47 261.36 28.07 262.04 28.00 263.00 Z"/>
</g>
<g fill="None" fill-opacity="0.0" stroke="#725545" stroke-opacity="1.00" stroke-width="0.3"><path d="
M 15.00 264.00 
C 14.76 264.17 14.91 265.52 15.00 266.00
C 16.14 267.80 16.48 267.55 17.00 270.00
C 17.04 269.75 18.48 268.07 19.00 268.00
C 17.95 270.51 19.29 273.27 18.00 275.00
C 18.84 277.73 20.12 279.93 20.00 283.00
C 19.98 283.50 20.00 284.50 20.00 285.00
C 20.25 284.75 21.00 285.00 21.00 285.00
C 20.76 284.20 21.00 282.84 21.00 282.00
C 21.00 280.67 21.00 279.33 21.00 278.00
C 21.00 272.09 20.98 265.70 21.00 261.00
C 21.00 262.00 21.00 263.00 21.00 264.00
C 19.29 263.86 16.59 262.85 15.00 264.00 Z"/>
</g>
<g fill="None" fill-opacity="0.0" stroke="#897F79" stroke-opacity="0.44" stroke-width="0.3"><path d="
M 16.00 268.00 
C 16.06 267.49 15.10 266.57 15.00 266.00
C 14.91 265.52 14.76 264.17 15.00 264.00
C 15.07 266.29 14.14 265.57 16.00 268.00 Z"/>
</g>
<g fill="None" fill-opacity="0.0" stroke="#8D7565" stroke-opacity="0.87" stroke-width="0.3"><path d="
M 26.00 268.00 
C 27.30 266.06 25.91 265.20 26.00 264.00
C 25.51 265.46 25.13 266.33 26.00 268.00 Z"/>
</g>
<g fill="None" fill-opacity="0.0" stroke="#44342B" stroke-opacity="0.73" stroke-width="0.3"><path d="
M 16.00 268.00 
C 15.96 268.35 15.12 268.74 15.00 269.00
C 15.00 269.00 15.22 269.64 15.00 270.00
C 16.04 272.38 16.69 274.86 16.00 277.00
C 16.19 277.41 15.86 278.55 16.00 279.00
C 18.28 279.42 18.22 279.54 19.00 283.00
C 19.50 283.00 20.00 283.00 20.00 283.00
C 20.12 279.93 18.84 277.73 18.00 275.00
C 17.46 273.26 17.39 271.82 17.00 270.00
C 16.48 267.55 16.14 267.80 15.00 266.00
C 15.10 266.57 16.06 267.49 16.00 268.00 Z"/>
</g>
<g fill="None" fill-opacity="0.0" stroke="#A89082" stroke-opacity="1.00" stroke-width="0.3"><path d="
M 17.00 270.00 
C 17.39 271.82 17.46 273.26 18.00 275.00
C 19.29 273.27 17.95 270.51 19.00 268.00
C 18.48 268.07 17.04 269.75 17.00 270.00 Z"/>
</g>
<g fill="None" fill-opacity="0.0" stroke="#AB9F93" stroke-opacity="0.47" stroke-width="0.3"><path d="
M 25.00 271.00 
C 25.03 271.50 25.00 272.00 25.00 272.00
C 25.07 271.76 25.97 271.35 26.00 271.00
C 26.00 271.00 26.00 270.50 26.00 270.00
C 26.00 270.00 26.00 269.50 26.00 269.00
C 25.36 269.97 24.90 269.42 25.00 271.00 Z"/>
</g>
<g fill="None" fill-opacity="0.0" stroke="#9E9492" stroke-opacity="0.13" stroke-width="0.3"><path d="
M 16.00 277.00 
C 16.69 274.86 16.04 272.38 15.00 270.00
C 13.27 272.81 14.88 274.66 16.00 277.00 Z"/>
</g>
<g fill="None" fill-opacity="0.0" stroke="#E6D9CF" stroke-opacity="0.95" stroke-width="0.3"><path d="
M 21.00 278.00 
C 21.00 279.33 21.00 280.67 21.00 282.00
C 21.22 281.54 22.82 281.31 23.00 281.00
C 23.62 278.02 24.88 275.09 25.00 272.00
C 25.00 272.00 25.03 271.50 25.00 271.00
C 23.86 270.97 23.28 269.47 22.00 270.00
C 22.86 272.71 21.27 275.99 21.00 278.00 Z"/>
</g>
<g fill="None" fill-opacity="0.0" stroke="#B7A99F" stroke-opacity="0.23" stroke-width="0.3"><path d="
M 25.00 272.00 
C 24.88 275.09 23.62 278.02 23.00 281.00
C 22.84 281.76 22.71 285.59 22.00 286.00
C 22.49 287.84 20.16 286.15 20.00 286.00
C 19.75 286.25 19.00 286.00 19.00 286.00
C 20.14 293.40 31.11 273.74 26.00 271.00
C 25.97 271.35 25.07 271.76 25.00 272.00 Z"/>
</g>
<g fill="None" fill-opacity="0.0" stroke="#A79F9D" stroke-opacity="0.10" stroke-width="0.3"><path d="
M 16.00 279.00 
C 16.45 280.41 17.50 281.59 18.00 283.00
C 18.05 283.15 19.00 283.00 19.00 283.00
C 18.22 279.54 18.28 279.42 16.00 279.00 Z"/>
</g>
<g fill="None" fill-opacity="0.0" stroke="#C6BAAD" stroke-opacity="0.67" stroke-width="0.3"><path d="
M 21.00 282.00 
C 21.00 282.84 20.76 284.20 21.00 285.00
C 21.26 285.12 21.82 286.10 22.00 286.00
C 22.71 285.59 22.84 281.76 23.00 281.00
C 22.82 281.31 21.22 281.54 21.00 282.00 Z"/>
</g>
<g fill="None" fill-opacity="0.0" stroke="#87746C" stroke-opacity="0.14" stroke-width="0.3"><path d="
M 19.00 286.00 
C 19.00 286.00 19.75 286.25 20.00 286.00
C 20.25 285.75 20.00 285.00 20.00 285.00
C 20.00 284.50 19.98 283.50 20.00 283.00
C 20.00 283.00 19.50 283.00 19.00 283.00
C 19.00 283.00 18.05 283.15 18.00 283.00
C 18.28 283.80 18.04 285.47 19.00 286.00 Z"/>
</g>
<g fill="None" fill-opacity="0.0" stroke="#7E7369" stroke-opacity="0.67" stroke-width="0.3"><path d="
M 20.00 286.00 
C 20.16 286.15 22.49 287.84 22.00 286.00
C 21.82 286.10 21.26 285.12 21.00 285.00
C 21.00 285.00 20.25 284.75 20.00 285.00
C 20.00 285.00 20.25 285.75 20.00 286.00 Z"/>
</g>
<g fill="#000000" fill-opacity="0.00" stroke="None">
<path d="
M 0.00 290.00 
L 44.00 290.00
L 44.00 0.00
L 0.00 0.00
L 0.00 290.00
M 30.00 25.00 
C 30.22 25.67 30.70 27.05 31.00 28.00
C 31.89 28.73 32.64 30.73 33.00 32.00
C 33.65 34.25 33.43 36.69 34.00 39.00
C 35.31 39.41 35.15 41.88 35.00 43.00
C 35.12 43.34 35.78 44.38 36.00 45.00
C 37.50 49.25 38.00 53.99 38.00 59.00
C 38.54 64.59 38.40 71.82 39.00 78.00
C 41.08 80.01 40.00 86.05 40.00 89.00
C 40.00 93.99 40.38 101.64 39.02 106.02 C 37.67 110.41 40.35 119.10 35.00 121.00
C 34.85 125.01 32.91 129.08 32.00 133.00
C 31.71 135.59 32.00 138.39 32.00 141.00
C 32.00 141.50 32.00 142.00 32.00 142.00
C 32.00 146.67 32.00 151.33 32.00 156.00
C 32.00 157.00 32.00 158.00 32.00 159.00
C 32.00 160.67 32.00 162.33 32.00 164.00
C 32.00 165.00 32.00 166.00 32.00 167.00
C 32.00 173.28 33.00 178.78 33.00 185.00
C 33.00 194.64 33.37 204.37 33.00 214.00
C 32.83 218.52 32.19 222.42 32.00 227.00
C 31.59 237.10 32.04 250.45 29.00 260.00
C 28.72 260.89 28.19 262.06 28.00 263.00
C 27.46 265.69 29.11 268.59 26.00 270.00
C 26.00 270.50 26.00 271.00 26.00 271.00
C 31.11 273.74 20.14 293.40 19.00 286.00
C 18.04 285.47 18.28 283.80 18.00 283.00
C 17.50 281.59 16.45 280.41 16.00 279.00
C 15.86 278.55 16.19 277.41 16.00 277.00
C 14.88 274.66 13.27 272.81 15.00 270.00
C 15.22 269.64 15.00 269.00 15.00 269.00
C 11.71 266.48 11.62 253.52 11.00 249.00
C 10.87 248.05 11.00 246.96 11.00 246.00
C 11.00 245.50 11.00 244.50 11.00 244.00
C 11.00 242.69 11.13 241.30 11.00 240.00
C 10.36 233.54 10.00 226.81 10.00 220.00
C 10.00 219.50 10.00 219.00 10.00 219.00
C 8.62 217.38 9.06 215.25 9.00 213.00
C 8.22 185.15 7.19 155.01 9.00 128.00
C 9.03 127.50 9.00 127.00 9.00 127.00
C 5.82 124.56 5.77 119.78 5.00 116.00
C 4.62 114.15 4.43 111.92 4.00 110.00
C 3.65 109.82 3.07 108.37 3.00 108.00
C 2.91 107.52 3.11 106.47 3.00 106.00
C 1.19 98.17 2.00 89.25 2.00 81.00
C 2.00 80.00 2.00 79.00 2.00 78.00
C 2.00 73.45 3.55 69.60 4.00 66.00
C 3.76 64.60 3.94 64.85 4.00 64.00
C 4.22 60.85 4.65 57.88 5.00 55.00
C 5.16 53.70 4.75 52.28 5.00 51.00
C 6.24 44.56 9.33 37.13 11.00 30.00
C 11.28 28.79 11.72 27.85 12.00 27.00
C 12.37 24.87 12.27 23.41 14.00 22.00
C 13.78 21.64 14.00 21.00 14.00 21.00
C 14.10 18.34 14.98 14.69 17.00 13.00
C 16.08 11.64 17.79 10.69 18.00 10.00
C 17.89 9.05 17.68 7.22 19.00 7.00
C 18.77 6.84 19.00 5.50 19.00 5.00
C 19.01 3.46 20.13 2.60 20.00 1.00
C 26.99 4.57 26.90 17.34 30.00 25.00 Z"/>
</g>
<g fill="#B5A89E" fill-opacity="0.18" stroke="None">
<path d="
M 19.00 5.00 
C 19.25 4.75 20.73 5.25 21.00 5.00
C 22.10 2.83 21.80 3.49 22.00 6.00
C 24.18 10.75 25.91 23.87 30.00 27.00
C 30.00 26.50 30.06 25.49 30.00 25.00
C 26.90 17.34 26.99 4.57 20.00 1.00
C 20.13 2.60 19.01 3.46 19.00 5.00 Z"/>
</g>
<g fill="#533B31" fill-opacity="0.97" stroke="None">
<path d="
M 21.00 5.00 
C 20.63 5.72 20.30 6.25 20.00 7.00
C 19.47 8.29 18.45 9.93 18.00 11.00
C 18.00 11.50 18.13 12.54 18.00 13.00
C 17.20 15.89 15.77 18.80 14.00 21.00
C 14.00 21.00 13.78 21.64 14.00 22.00
C 15.31 24.14 12.03 32.32 11.01 36.01 C 9.99 39.69 8.04 46.90 7.00 51.00
C 6.65 52.37 6.30 53.57 6.00 55.00
C 5.48 57.48 4.10 62.02 4.00 64.00
C 3.95 65.07 4.05 67.23 4.00 68.00
C 4.00 71.00 4.00 74.00 4.00 77.00
C 4.00 78.67 4.00 80.33 4.00 82.00
C 4.00 83.00 4.00 84.00 4.00 85.00
C 4.00 88.33 4.00 91.67 4.00 95.00
C 4.30 98.13 5.34 100.72 4.00 104.00
C 3.85 105.13 3.18 105.34 3.00 106.00
C 3.11 106.47 2.91 107.52 3.00 108.00
C 3.11 108.20 6.17 108.25 5.00 110.00
C 5.18 112.24 5.41 113.88 6.00 116.00
C 7.04 119.73 8.35 123.07 9.00 127.00
C 9.00 127.00 9.03 127.50 9.00 128.00
C 11.56 131.16 11.00 135.83 11.00 140.00
C 11.00 153.33 11.00 166.67 11.00 180.00
C 11.00 179.96 12.00 180.00 12.00 180.00
C 12.00 170.67 12.00 161.33 12.00 152.00
C 13.66 176.60 13.67 204.47 12.00 229.00
C 12.00 229.50 12.00 230.00 12.00 230.00
C 12.00 233.08 11.34 237.00 12.00 240.00
C 13.28 240.21 12.93 242.09 13.00 243.00
C 13.09 244.32 13.00 245.68 13.00 247.00
C 13.14 248.03 14.86 251.02 15.00 252.00
C 14.56 250.73 14.96 248.36 15.00 247.00
C 14.67 243.90 14.00 239.77 14.00 236.00
C 14.00 218.00 14.00 200.00 14.00 182.00
C 14.00 172.83 13.17 162.34 15.00 154.00
C 17.33 182.43 15.33 212.82 16.00 242.00
C 16.00 245.29 15.71 248.72 16.00 252.00
C 16.13 253.45 16.95 254.46 17.00 256.00
C 17.06 257.77 17.37 262.68 16.00 259.00
C 15.94 258.84 15.00 259.00 15.00 259.00
C 14.74 259.12 13.98 259.93 14.00 260.00
C 14.62 262.28 14.93 261.81 15.00 264.00
C 16.59 262.85 19.29 263.86 21.00 264.00
C 21.00 263.00 21.00 262.00 21.00 261.00
C 16.92 261.63 16.42 252.59 21.00 254.00
C 13.88 249.29 20.95 237.75 19.00 230.00
C 22.41 233.87 22.20 228.86 22.00 226.00
C 20.87 217.42 16.58 207.49 21.00 199.00
C 17.17 201.56 18.58 194.26 20.00 193.00
C 22.44 186.15 22.70 181.82 20.00 177.00
C 15.97 169.81 18.01 159.06 22.00 153.00
C 19.40 150.30 18.24 146.81 21.00 143.00
C 19.23 141.55 16.78 142.43 15.00 141.00
C 15.00 141.50 15.00 142.00 15.00 142.00
C 14.74 144.38 14.78 146.98 16.00 149.00
C 12.65 147.05 10.33 141.78 13.00 137.00
C 13.50 128.50 7.87 120.19 7.33 112.33 C 6.79 104.46 6.13 98.53 7.00 91.00
C 4.00 83.24 5.70 68.22 7.00 60.00
C 7.12 57.69 7.64 56.08 8.00 54.00
C 10.41 39.98 15.11 26.64 19.00 13.00
C 19.60 20.55 15.03 29.71 14.00 38.00
C 13.84 40.39 14.67 43.33 13.00 46.00
C 15.72 44.66 17.68 41.66 21.00 42.00
C 17.66 37.82 20.82 33.31 18.00 29.00
C 22.42 27.90 21.37 23.78 23.00 21.00
C 22.65 17.49 22.00 13.84 22.00 10.00
C 22.00 8.68 22.10 7.31 22.00 6.00
C 21.80 3.49 22.10 2.83 21.00 5.00 Z"/>
</g>
<g fill="#786558" fill-opacity="0.27" stroke="None">
<path d="
M 19.00 7.00 
C 19.49 6.92 20.00 7.00 20.00 7.00
C 20.30 6.25 20.63 5.72 21.00 5.00
C 20.73 5.25 19.25 4.75 19.00 5.00
C 19.00 5.50 18.77 6.84 19.00 7.00 Z"/>
</g>
<g fill="#907B6C" fill-opacity="0.97" stroke="None">
<path d="
M 22.00 10.00 
C 22.97 15.02 24.78 22.00 26.00 27.00
C 25.91 25.75 25.50 23.48 27.00 23.00
C 28.64 33.17 32.42 42.80 34.00 53.00
C 34.01 52.90 29.67 58.63 35.00 59.00
C 33.86 61.52 32.76 64.08 33.00 67.00
C 33.16 68.28 36.77 73.41 36.00 77.00
C 34.66 74.15 33.56 76.55 32.00 78.00
C 32.54 79.16 33.55 79.82 34.00 81.00
C 35.22 84.22 31.80 89.67 31.74 93.74 C 31.69 97.82 30.47 107.13 34.00 107.00
C 28.06 108.25 35.07 116.41 29.00 118.00
C 26.11 123.90 31.44 136.25 27.00 145.00
C 29.01 145.82 28.47 143.18 30.00 143.00
C 30.00 142.50 30.00 141.50 30.00 141.00
C 30.00 132.57 30.97 126.27 35.00 120.00
C 35.67 115.92 37.70 112.25 38.00 108.00
C 37.98 107.04 37.90 105.01 38.00 104.00
C 38.16 102.37 38.00 100.64 38.00 99.00
C 36.63 100.70 34.24 102.15 35.00 105.00
C 31.79 101.65 34.54 98.86 38.00 97.00
C 38.00 96.00 38.00 95.00 38.00 94.00
C 35.87 89.06 37.00 85.13 37.00 79.00
C 37.00 74.72 36.63 70.26 37.00 66.00
C 37.15 64.30 36.93 64.15 38.00 63.00
C 38.00 62.50 38.00 62.00 38.00 62.00
C 36.47 59.20 33.54 47.28 35.00 45.00
C 34.92 44.51 35.00 44.00 35.00 44.00
C 33.95 42.54 33.51 40.90 33.00 39.00
C 32.58 37.44 31.88 35.87 32.00 34.00
C 31.28 31.81 29.77 31.03 30.00 28.00
C 30.04 27.50 30.00 27.00 30.00 27.00
C 25.91 23.87 24.18 10.75 22.00 6.00
C 22.10 7.31 22.00 8.68 22.00 10.00 Z"/>
</g>
<g fill="#A48E8A" fill-opacity="0.27" stroke="None">
<path d="
M 18.00 10.00 
C 18.06 10.49 18.00 11.00 18.00 11.00
C 18.45 9.93 19.47 8.29 20.00 7.00
C 20.00 7.00 19.49 6.92 19.00 7.00
C 17.68 7.22 17.89 9.05 18.00 10.00 Z"/>
</g>
<g fill="#D0CDCD" fill-opacity="0.05" stroke="None">
<path d="
M 17.00 13.00 
C 17.29 12.75 18.00 13.00 18.00 13.00
C 18.13 12.54 18.00 11.50 18.00 11.00
C 18.00 11.00 18.06 10.49 18.00 10.00
C 17.79 10.69 16.08 11.64 17.00 13.00 Z"/>
</g>
<g fill="#BCAFA8" fill-opacity="1.00" stroke="None">
<path d="
M 23.00 21.00 
C 23.16 22.60 23.08 24.40 23.00 26.00
C 23.14 28.26 25.61 32.34 23.00 34.00
C 29.65 31.47 25.34 40.42 29.00 44.00
C 27.21 44.66 25.04 41.10 24.00 43.00
C 26.06 48.89 27.49 54.93 29.00 61.00
C 27.71 60.56 26.79 59.42 27.00 58.00
C 27.28 60.38 26.22 64.39 28.00 67.00
C 30.01 67.53 31.28 65.50 33.00 67.00
C 32.76 64.08 33.86 61.52 35.00 59.00
C 29.67 58.63 34.01 52.90 34.00 53.00
C 33.75 49.24 29.42 45.14 29.22 40.78 C 29.02 36.42 26.94 30.84 26.00 27.00
C 24.78 22.00 22.97 15.02 22.00 10.00
C 22.00 13.84 22.65 17.49 23.00 21.00 Z"/>
</g>
<g fill="#918883" fill-opacity="0.13" stroke="None">
<path d="
M 14.00 21.00 
C 15.77 18.80 17.20 15.89 18.00 13.00
C 18.00 13.00 17.29 12.75 17.00 13.00
C 14.98 14.69 14.10 18.34 14.00 21.00 Z"/>
</g>
<g fill="#C4B7B0" fill-opacity="1.00" stroke="None">
<path d="
M 8.00 54.00 
C 8.24 53.75 9.00 54.00 9.00 54.00
C 9.46 48.22 12.52 43.09 14.00 38.00
C 15.03 29.71 19.60 20.55 19.00 13.00
C 15.11 26.64 10.41 39.98 8.00 54.00 Z"/>
</g>
<g fill="#6D5C55" fill-opacity="1.00" stroke="None">
<path d="
M 14.00 38.00 
C 12.52 43.09 9.46 48.22 9.00 54.00
C 8.13 64.90 9.82 74.43 8.00 85.00
C 5.70 77.58 7.64 68.18 7.00 60.00
C 5.70 68.22 4.00 83.24 7.00 91.00
C 7.29 91.75 8.73 93.27 9.00 94.00
C 8.53 91.56 9.62 89.24 7.00 88.00
C 11.37 84.01 7.33 71.75 16.00 71.00
C 17.82 75.84 15.15 85.31 22.00 88.00
C 17.85 89.65 22.66 94.21 18.00 94.00
C 22.99 98.83 17.24 95.74 18.00 101.00
C 15.61 100.03 15.68 97.09 15.00 95.00
C 13.73 97.26 14.13 104.67 19.00 103.00
C 17.13 106.08 17.40 109.52 17.20 112.25 C 17.00 114.98 19.54 124.12 16.00 118.00
C 13.52 123.12 16.37 128.83 17.00 134.00
C 17.88 131.22 20.53 130.04 21.00 133.00
C 17.80 134.72 20.18 137.98 19.00 141.00
C 17.46 141.37 16.60 139.57 15.00 140.00
C 14.95 140.49 15.00 141.00 15.00 141.00
C 16.78 142.43 19.23 141.55 21.00 143.00
C 18.24 146.81 19.40 150.30 22.00 153.00
C 18.01 159.06 15.97 169.81 20.00 177.00
C 21.09 166.72 21.57 161.60 24.00 151.00
C 19.15 145.85 22.58 142.59 21.21 136.77 C 19.84 130.95 25.23 121.58 20.00 118.00
C 23.95 113.75 20.93 109.78 22.00 105.00
C 25.18 107.55 23.40 103.77 26.00 104.00
C 25.03 102.15 24.21 99.76 22.00 99.00
C 22.54 97.34 24.56 96.67 25.00 95.00
C 24.60 95.20 24.00 95.00 24.00 95.00
C 20.30 96.25 23.19 92.86 25.00 92.00
C 22.02 90.60 22.99 88.31 21.00 86.00
C 22.69 86.32 24.29 84.68 24.00 83.00
C 24.13 82.53 23.98 81.50 24.00 81.00
C 21.37 76.10 21.51 70.31 22.00 64.00
C 25.65 67.14 21.03 52.81 21.00 49.00
C 20.43 53.55 16.09 58.75 16.00 63.00
C 19.06 63.35 18.19 58.53 21.00 58.00
C 20.70 62.33 17.06 65.60 17.00 70.00
C 15.23 67.02 15.87 67.32 14.00 70.00
C 12.92 68.83 11.88 64.96 10.00 68.00
C 10.18 64.73 12.28 61.11 10.00 58.00
C 13.74 63.15 15.47 60.01 16.00 54.00
C 14.31 57.11 13.95 53.26 11.00 55.00
C 13.19 52.33 14.32 52.81 11.00 51.00
C 14.25 49.93 14.14 44.85 18.00 45.00
C 17.52 46.58 14.79 50.29 18.00 50.00
C 17.53 47.42 20.28 41.37 21.00 47.00
C 21.60 44.89 22.36 42.00 24.00 40.00
C 18.97 36.00 23.11 31.19 23.00 26.00
C 23.08 24.40 23.16 22.60 23.00 21.00
C 21.37 23.78 22.42 27.90 18.00 29.00
C 20.82 33.31 17.66 37.82 21.00 42.00
C 17.68 41.66 15.72 44.66 13.00 46.00
C 14.67 43.33 13.84 40.39 14.00 38.00 Z"/>
</g>
<g fill="#8D8583" fill-opacity="0.15" stroke="None">
<path d="
M 12.00 27.00 
C 11.74 28.50 11.44 28.92 11.00 30.00
C 9.33 37.13 6.24 44.56 5.00 51.00
C 5.32 50.76 6.75 51.25 7.00 51.00
C 8.04 46.90 9.99 39.69 11.01 36.01 C 12.03 32.32 15.31 24.14 14.00 22.00
C 12.27 23.41 12.37 24.87 12.00 27.00 Z"/>
</g>
<g fill="#E1D4CA" fill-opacity="1.00" stroke="None">
<path d="
M 26.00 27.00 
C 26.94 30.84 29.02 36.42 29.22 40.78 C 29.42 45.14 33.75 49.24 34.00 53.00
C 32.42 42.80 28.64 33.17 27.00 23.00
C 25.50 23.48 25.91 25.75 26.00 27.00 Z"/>
</g>
<g fill="#DCDD9C" fill-opacity="0.02" stroke="None">
<path d="
M 30.00 27.00 
C 30.00 27.00 30.04 27.50 30.00 28.00
C 30.25 28.25 31.00 28.00 31.00 28.00
C 30.70 27.05 30.22 25.67 30.00 25.00
C 30.06 25.49 30.00 26.50 30.00 27.00 Z"/>
</g>
<g fill="#A2948D" fill-opacity="1.00" stroke="None">
<path d="
M 21.00 47.00 
C 20.87 47.46 20.85 48.55 21.00 49.00
C 21.03 52.81 25.65 67.14 22.00 64.00
C 21.51 70.31 21.37 76.10 24.00 81.00
C 24.24 75.21 28.99 70.85 25.00 65.00
C 29.95 67.08 28.47 74.67 32.00 68.00
C 34.58 71.71 29.23 74.90 32.00 78.00
C 33.56 76.55 34.66 74.15 36.00 77.00
C 36.77 73.41 33.16 68.28 33.00 67.00
C 31.28 65.50 30.01 67.53 28.00 67.00
C 26.22 64.39 27.28 60.38 27.00 58.00
C 25.41 54.55 20.66 46.34 24.00 43.00
C 25.04 41.10 27.21 44.66 29.00 44.00
C 25.34 40.42 29.65 31.47 23.00 34.00
C 25.61 32.34 23.14 28.26 23.00 26.00
C 23.11 31.19 18.97 36.00 24.00 40.00
C 22.36 42.00 21.60 44.89 21.00 47.00 Z"/>
</g>
<g fill="#5F5353" fill-opacity="0.02" stroke="None">
<path d="
M 11.00 30.00 
C 11.44 28.92 11.74 28.50 12.00 27.00
C 11.72 27.85 11.28 28.79 11.00 30.00 Z"/>
</g>
<g fill="#CEB8B0" fill-opacity="0.28" stroke="None">
<path d="
M 32.00 34.00 
C 32.07 32.93 32.91 32.51 33.00 32.00
C 32.64 30.73 31.89 28.73 31.00 28.00
C 31.00 28.00 30.25 28.25 30.00 28.00
C 29.77 31.03 31.28 31.81 32.00 34.00 Z"/>
</g>
<g fill="#CEC7A7" fill-opacity="0.13" stroke="None">
<path d="
M 32.00 34.00 
C 31.88 35.87 32.58 37.44 33.00 39.00
C 33.09 39.20 34.00 39.00 34.00 39.00
C 33.43 36.69 33.65 34.25 33.00 32.00
C 32.91 32.51 32.07 32.93 32.00 34.00 Z"/>
</g>
<g fill="#DCCAC1" fill-opacity="0.22" stroke="None">
<path d="
M 35.00 44.00 
C 35.00 43.50 35.00 43.00 35.00 43.00
C 35.15 41.88 35.31 39.41 34.00 39.00
C 34.00 39.00 33.09 39.20 33.00 39.00
C 33.51 40.90 33.95 42.54 35.00 44.00 Z"/>
</g>
<g fill="#84746B" fill-opacity="1.00" stroke="None">
<path d="
M 27.00 58.00 
C 26.79 59.42 27.71 60.56 29.00 61.00
C 27.49 54.93 26.06 48.89 24.00 43.00
C 20.66 46.34 25.41 54.55 27.00 58.00 Z"/>
</g>
<g fill="#EDA4A2" fill-opacity="0.02" stroke="None">
<path d="
M 35.00 44.00 
C 35.00 44.00 34.92 44.51 35.00 45.00
C 35.16 46.00 35.89 45.78 36.00 45.00
C 35.78 44.38 35.12 43.34 35.00 43.00
C 35.00 43.00 35.00 43.50 35.00 44.00 Z"/>
</g>
<g fill="#55433C" fill-opacity="1.00" stroke="None">
<path d="
M 21.00 49.00 
C 20.85 48.55 20.87 47.46 21.00 47.00
C 20.28 41.37 17.53 47.42 18.00 50.00
C 14.79 50.29 17.52 46.58 18.00 45.00
C 14.14 44.85 14.25 49.93 11.00 51.00
C 14.32 52.81 13.19 52.33 11.00 55.00
C 13.95 53.26 14.31 57.11 16.00 54.00
C 15.47 60.01 13.74 63.15 10.00 58.00
C 12.28 61.11 10.18 64.73 10.00 68.00
C 11.88 64.96 12.92 68.83 14.00 70.00
C 15.87 67.32 15.23 67.02 17.00 70.00
C 17.06 65.60 20.70 62.33 21.00 58.00
C 18.19 58.53 19.06 63.35 16.00 63.00
C 16.09 58.75 20.43 53.55 21.00 49.00 Z"/>
</g>
<g fill="#C3B9A4" fill-opacity="0.21" stroke="None">
<path d="
M 38.00 62.00 
C 38.00 61.00 38.00 60.00 38.00 59.00
C 38.00 53.99 37.50 49.25 36.00 45.00
C 35.89 45.78 35.16 46.00 35.00 45.00
C 33.54 47.28 36.47 59.20 38.00 62.00 Z"/>
</g>
<g fill="#695A59" fill-opacity="0.18" stroke="None">
<path d="
M 5.00 55.00 
C 5.20 54.76 6.00 55.00 6.00 55.00
C 6.30 53.57 6.65 52.37 7.00 51.00
C 6.75 51.25 5.32 50.76 5.00 51.00
C 4.75 52.28 5.16 53.70 5.00 55.00 Z"/>
</g>
<g fill="#A19188" fill-opacity="1.00" stroke="None">
<path d="
M 7.00 60.00 
C 7.64 68.18 5.70 77.58 8.00 85.00
C 9.82 74.43 8.13 64.90 9.00 54.00
C 9.00 54.00 8.24 53.75 8.00 54.00
C 7.64 56.08 7.12 57.69 7.00 60.00 Z"/>
</g>
<g fill="#A9A09A" fill-opacity="0.15" stroke="None">
<path d="
M 4.00 64.00 
C 4.10 62.02 5.48 57.48 6.00 55.00
C 6.00 55.00 5.20 54.76 5.00 55.00
C 4.65 57.88 4.22 60.85 4.00 64.00 Z"/>
</g>
<g fill="#9C8F87" fill-opacity="0.06" stroke="None">
<path d="
M 38.00 62.00 
C 38.00 62.00 38.00 62.50 38.00 63.00
C 38.00 64.00 38.00 65.00 38.00 66.00
C 38.00 70.00 38.00 74.00 38.00 78.00
C 38.25 77.75 39.00 78.00 39.00 78.00
C 38.40 71.82 38.54 64.59 38.00 59.00
C 38.00 60.00 38.00 61.00 38.00 62.00 Z"/>
</g>
<g fill="#877869" fill-opacity="0.55" stroke="None">
<path d="
M 37.00 66.00 
C 37.00 65.96 38.00 66.00 38.00 66.00
C 38.00 65.00 38.00 64.00 38.00 63.00
C 36.93 64.15 37.15 64.30 37.00 66.00 Z"/>
</g>
<g fill="#4E2A20" fill-opacity="0.33" stroke="None">
<path d="
M 4.00 66.00 
C 4.08 66.49 4.00 67.50 4.00 68.00
C 4.05 67.23 3.95 65.07 4.00 64.00
C 3.94 64.85 3.76 64.60 4.00 66.00 Z"/>
</g>
<g fill="#B8ACA5" fill-opacity="1.00" stroke="None">
<path d="
M 24.00 81.00 
C 23.98 81.50 24.13 82.53 24.00 83.00
C 25.96 83.55 28.74 86.26 32.00 85.00
C 31.70 83.43 32.25 81.39 34.00 81.00
C 33.55 79.82 32.54 79.16 32.00 78.00
C 29.23 74.90 34.58 71.71 32.00 68.00
C 28.47 74.67 29.95 67.08 25.00 65.00
C 28.99 70.85 24.24 75.21 24.00 81.00 Z"/>
</g>
<g fill="#7E7878" fill-opacity="0.03" stroke="None">
<path d="
M 2.00 78.00 
C 2.19 77.59 3.88 77.26 4.00 77.00
C 4.00 74.00 4.00 71.00 4.00 68.00
C 4.00 67.50 4.08 66.49 4.00 66.00
C 3.55 69.60 2.00 73.45 2.00 78.00 Z"/>
</g>
<g fill="#7B6A5D" fill-opacity="0.82" stroke="None">
<path d="
M 37.00 79.00 
C 37.00 78.96 38.00 79.00 38.00 79.00
C 38.00 78.50 38.00 78.00 38.00 78.00
C 38.00 74.00 38.00 70.00 38.00 66.00
C 38.00 66.00 37.00 65.96 37.00 66.00
C 36.63 70.26 37.00 74.72 37.00 79.00 Z"/>
</g>
<g fill="#55413A" fill-opacity="1.00" stroke="None">
<path d="
M 9.00 94.00 
C 10.42 101.33 10.41 109.86 10.98 117.02 C 11.55 124.19 15.86 132.08 15.00 140.00
C 16.60 139.57 17.46 141.37 19.00 141.00
C 20.18 137.98 17.80 134.72 21.00 133.00
C 20.53 130.04 17.88 131.22 17.00 134.00
C 16.37 128.83 13.52 123.12 16.00 118.00
C 19.54 124.12 17.00 114.98 17.20 112.25 C 17.40 109.52 17.13 106.08 19.00 103.00
C 14.13 104.67 13.73 97.26 15.00 95.00
C 15.68 97.09 15.61 100.03 18.00 101.00
C 17.24 95.74 22.99 98.83 18.00 94.00
C 22.66 94.21 17.85 89.65 22.00 88.00
C 15.15 85.31 17.82 75.84 16.00 71.00
C 7.33 71.75 11.37 84.01 7.00 88.00
C 9.62 89.24 8.53 91.56 9.00 94.00 Z"/>
</g>
<g fill="#AEA9A7" fill-opacity="0.11" stroke="None">
<path d="
M 2.00 78.00 
C 2.00 79.00 2.00 80.00 2.00 81.00
C 2.20 81.41 3.87 81.73 4.00 82.00
C 4.00 80.33 4.00 78.67 4.00 77.00
C 3.88 77.26 2.19 77.59 2.00 78.00 Z"/>
</g>
<g fill="#AD9D94" fill-opacity="0.38" stroke="None">
<path d="
M 38.00 79.00 
C 38.00 84.00 38.00 89.00 38.00 94.00
C 38.00 95.00 38.00 96.00 38.00 97.00
C 38.00 97.50 38.00 98.50 38.00 99.00
C 38.00 100.64 38.16 102.37 38.00 104.00
C 38.57 99.81 39.60 93.13 40.00 89.00
C 40.00 86.05 41.08 80.01 39.00 78.00
C 39.00 78.00 38.25 77.75 38.00 78.00
C 38.00 78.00 38.00 78.50 38.00 79.00 Z"/>
</g>
<g fill="#765C4B" fill-opacity="0.99" stroke="None">
<path d="
M 38.00 94.00 
C 38.00 89.00 38.00 84.00 38.00 79.00
C 38.00 79.00 37.00 78.96 37.00 79.00
C 37.00 85.13 35.87 89.06 38.00 94.00 Z"/>
</g>
<g fill="#7C7774" fill-opacity="0.02" stroke="None">
<path d="
M 3.00 106.00 
C 3.18 105.34 3.85 105.13 4.00 104.00
C 4.30 101.76 4.00 99.26 4.00 97.00
C 3.62 93.05 3.12 89.00 4.00 85.00
C 4.00 84.00 4.00 83.00 4.00 82.00
C 3.87 81.73 2.20 81.41 2.00 81.00
C 2.00 89.25 1.19 98.17 3.00 106.00 Z"/>
</g>
<g fill="#9D8F88" fill-opacity="1.00" stroke="None">
<path d="
M 24.00 83.00 
C 24.29 84.68 22.69 86.32 21.00 86.00
C 22.99 88.31 22.02 90.60 25.00 92.00
C 23.19 92.86 20.30 96.25 24.00 95.00
C 24.59 92.15 29.11 89.58 32.00 89.00
C 30.52 92.01 27.37 93.60 25.00 95.00
C 24.56 96.67 22.54 97.34 22.00 99.00
C 24.21 99.76 25.03 102.15 26.00 104.00
C 23.40 103.77 25.18 107.55 22.00 105.00
C 20.93 109.78 23.95 113.75 20.00 118.00
C 25.23 121.58 19.84 130.95 21.21 136.77 C 22.58 142.59 19.15 145.85 24.00 151.00
C 21.57 161.60 21.09 166.72 20.00 177.00
C 22.70 181.82 22.44 186.15 20.00 193.00
C 20.24 194.64 22.04 192.30 23.00 193.00
C 22.62 200.00 19.52 206.87 23.00 214.00
C 23.56 210.92 25.28 208.09 26.00 205.00
C 26.00 189.88 24.64 174.05 26.00 159.00
C 25.64 159.98 24.30 161.40 25.00 163.00
C 19.96 161.38 24.37 157.46 27.00 156.00
C 25.80 153.75 25.91 151.76 25.00 150.00
C 23.95 148.85 23.85 149.95 23.00 148.00
C 22.02 145.75 22.34 144.04 25.00 143.00
C 21.09 139.44 24.64 133.58 24.66 130.32 C 24.68 127.05 21.56 120.19 29.00 118.00
C 35.07 116.41 28.06 108.25 34.00 107.00
C 30.47 107.13 31.69 97.82 31.74 93.74 C 31.80 89.67 35.22 84.22 34.00 81.00
C 32.25 81.39 31.70 83.43 32.00 85.00
C 28.74 86.26 25.96 83.55 24.00 83.00 Z"/>
</g>
<g fill="#C6BDBB" fill-opacity="0.27" stroke="None">
<path d="
M 4.00 97.00 
C 4.00 96.50 4.00 95.50 4.00 95.00
C 4.00 91.67 4.00 88.33 4.00 85.00
C 3.12 89.00 3.62 93.05 4.00 97.00 Z"/>
</g>
<g fill="#C4B8B0" fill-opacity="1.00" stroke="None">
<path d="
M 24.00 95.00 
C 24.00 95.00 24.60 95.20 25.00 95.00
C 27.37 93.60 30.52 92.01 32.00 89.00
C 29.11 89.58 24.59 92.15 24.00 95.00 Z"/>
</g>
<g fill="#C0B9AA" fill-opacity="0.09" stroke="None">
<path d="
M 38.00 104.00 
C 37.82 105.30 38.09 106.69 38.00 108.00
C 37.70 112.25 35.67 115.92 35.00 120.00
C 34.92 120.49 35.00 121.00 35.00 121.00
C 40.35 119.10 37.67 110.41 39.02 106.02 C 40.38 101.64 40.00 93.99 40.00 89.00
C 39.60 93.13 38.57 99.81 38.00 104.00 Z"/>
</g>
<g fill="#907F75" fill-opacity="1.00" stroke="None">
<path d="
M 13.00 137.00 
C 13.23 138.17 14.18 140.97 15.00 142.00
C 15.00 142.00 15.00 141.50 15.00 141.00
C 15.00 141.00 14.95 140.49 15.00 140.00
C 15.86 132.08 11.55 124.19 10.98 117.02 C 10.41 109.86 10.42 101.33 9.00 94.00
C 8.73 93.27 7.29 91.75 7.00 91.00
C 6.13 98.53 6.79 104.46 7.33 112.33 C 7.87 120.19 13.50 128.50 13.00 137.00 Z"/>
</g>
<g fill="#51403C" fill-opacity="0.80" stroke="None">
<path d="
M 4.00 97.00 
C 4.00 99.26 4.30 101.76 4.00 104.00
C 5.34 100.72 4.30 98.13 4.00 95.00
C 4.00 95.50 4.00 96.50 4.00 97.00 Z"/>
</g>
<g fill="#715B4E" fill-opacity="1.00" stroke="None">
<path d="
M 38.00 99.00 
C 38.00 98.50 38.00 97.50 38.00 97.00
C 34.54 98.86 31.79 101.65 35.00 105.00
C 34.24 102.15 36.63 100.70 38.00 99.00 Z"/>
</g>
<g fill="#93816F" fill-opacity="0.80" stroke="None">
<path d="
M 38.00 108.00 
C 38.09 106.69 37.82 105.30 38.00 104.00
C 37.90 105.01 37.98 107.04 38.00 108.00 Z"/>
</g>
<g fill="#6D5E3B" fill-opacity="0.24" stroke="None">
<path d="
M 4.00 110.00 
C 4.40 110.20 5.00 110.00 5.00 110.00
C 6.17 108.25 3.11 108.20 3.00 108.00
C 3.07 108.37 3.65 109.82 4.00 110.00 Z"/>
</g>
<g fill="#AFA29C" fill-opacity="0.15" stroke="None">
<path d="
M 5.00 116.00 
C 5.24 116.25 6.00 116.00 6.00 116.00
C 5.41 113.88 5.18 112.24 5.00 110.00
C 5.00 110.00 4.40 110.20 4.00 110.00
C 4.43 111.92 4.62 114.15 5.00 116.00 Z"/>
</g>
<g fill="#8A7A76" fill-opacity="0.12" stroke="None">
<path d="
M 9.00 127.00 
C 8.35 123.07 7.04 119.73 6.00 116.00
C 6.00 116.00 5.24 116.25 5.00 116.00
C 5.77 119.78 5.82 124.56 9.00 127.00 Z"/>
</g>
<g fill="#BFB3AB" fill-opacity="1.00" stroke="None">
<path d="
M 23.00 148.00 
C 22.94 146.82 25.13 144.05 27.00 145.00
C 27.61 147.44 26.51 148.66 25.00 150.00
C 25.91 151.76 25.80 153.75 27.00 156.00
C 24.37 157.46 19.96 161.38 25.00 163.00
C 24.30 161.40 25.64 159.98 26.00 159.00
C 26.06 158.84 27.00 159.00 27.00 159.00
C 27.50 159.00 28.00 159.00 28.00 159.00
C 28.05 156.61 27.32 153.63 29.00 152.00
C 29.26 151.75 30.00 152.00 30.00 152.00
C 30.00 149.00 30.00 146.00 30.00 143.00
C 28.47 143.18 29.01 145.82 27.00 145.00
C 31.44 136.25 26.11 123.90 29.00 118.00
C 21.56 120.19 24.68 127.05 24.66 130.32 C 24.64 133.58 21.09 139.44 25.00 143.00
C 22.34 144.04 22.02 145.75 23.00 148.00
M 28.00 125.00 
C 26.98 130.80 26.81 136.88 27.00 143.00
C 25.15 137.74 24.46 129.88 28.00 125.00 Z"/>
</g>
<g fill="#B8AB9F" fill-opacity="0.29" stroke="None">
<path d="
M 30.00 141.00 
C 30.05 141.23 30.74 141.88 31.00 142.00
C 31.41 142.19 32.00 142.00 32.00 142.00
C 32.00 142.00 32.00 141.50 32.00 141.00
C 30.07 138.40 31.42 135.48 32.00 133.00
C 32.91 129.08 34.85 125.01 35.00 121.00
C 35.00 121.00 34.92 120.49 35.00 120.00
C 30.97 126.27 30.00 132.57 30.00 141.00 Z"/>
</g>
<g fill="#877E78" fill-opacity="1.00" stroke="None">
<path d="
M 28.00 125.00 
C 24.46 129.88 25.15 137.74 27.00 143.00
C 26.81 136.88 26.98 130.80 28.00 125.00 Z"/>
</g>
<g fill="#AEACAB" fill-opacity="0.04" stroke="None">
<path d="
M 9.00 213.00 
C 9.00 213.04 10.00 213.00 10.00 213.00
C 10.00 188.90 8.75 163.25 11.00 140.00
C 11.00 135.83 11.56 131.16 9.00 128.00
C 7.19 155.01 8.22 185.15 9.00 213.00 Z"/>
</g>
<g fill="#FE7F7F" fill-opacity="0.01" stroke="None">
<path d="
M 32.00 141.00 
C 32.00 138.39 31.71 135.59 32.00 133.00
C 31.42 135.48 30.07 138.40 32.00 141.00 Z"/>
</g>
<g fill="#755F51" fill-opacity="1.00" stroke="None">
<path d="
M 15.00 142.00 
C 14.18 140.97 13.23 138.17 13.00 137.00
C 10.33 141.78 12.65 147.05 16.00 149.00
C 14.78 146.98 14.74 144.38 15.00 142.00 Z"/>
</g>
<g fill="#AFA49B" fill-opacity="0.31" stroke="None">
<path d="
M 10.00 213.00 
C 10.00 215.00 10.00 217.00 10.00 219.00
C 10.00 219.00 10.00 219.50 10.00 220.00
C 10.25 220.25 11.00 220.00 11.00 220.00
C 11.00 206.67 11.00 193.33 11.00 180.00
C 11.00 166.67 11.00 153.33 11.00 140.00
C 8.75 163.25 10.00 188.90 10.00 213.00 Z"/>
</g>
<g fill="#786960" fill-opacity="0.47" stroke="None">
<path d="
M 30.00 143.00 
C 30.00 146.00 30.00 149.00 30.00 152.00
C 30.00 159.67 30.00 167.33 30.00 175.00
C 30.00 174.96 31.00 175.00 31.00 175.00
C 31.00 172.01 31.49 169.32 32.00 167.00
C 32.00 166.00 32.00 165.00 32.00 164.00
C 31.53 161.83 31.54 161.12 32.00 159.00
C 32.00 158.00 32.00 157.00 32.00 156.00
C 31.08 151.82 31.67 146.67 31.00 142.00
C 30.74 141.88 30.05 141.23 30.00 141.00
C 30.00 141.50 30.00 142.50 30.00 143.00 Z"/>
</g>
<g fill="#B9B6AE" fill-opacity="0.02" stroke="None">
<path d="
M 32.00 156.00 
C 32.00 151.33 32.00 146.67 32.00 142.00
C 32.00 142.00 31.41 142.19 31.00 142.00
C 31.67 146.67 31.08 151.82 32.00 156.00 Z"/>
</g>
<g fill="#EAE3DC" fill-opacity="1.00" stroke="None">
<path d="
M 23.00 148.00 
C 23.85 149.95 23.95 148.85 25.00 150.00
C 26.51 148.66 27.61 147.44 27.00 145.00
C 25.13 144.05 22.94 146.82 23.00 148.00 Z"/>
</g>
<g fill="#CEB5A4" fill-opacity="1.00" stroke="None">
<path d="
M 12.00 180.00 
C 12.00 194.00 12.00 208.00 12.00 222.00
C 12.00 224.33 12.00 226.67 12.00 229.00
C 13.67 204.47 13.66 176.60 12.00 152.00
C 12.00 161.33 12.00 170.67 12.00 180.00 Z"/>
</g>
<g fill="#EBE1D6" fill-opacity="1.00" stroke="None">
<path d="
M 28.00 159.00 
C 27.89 164.33 28.00 169.67 28.00 175.00
C 28.00 192.54 27.38 211.27 29.00 228.00
C 29.00 203.02 26.75 176.87 29.00 152.00
C 27.32 153.63 28.05 156.61 28.00 159.00 Z"/>
</g>
<g fill="#786050" fill-opacity="0.95" stroke="None">
<path d="
M 29.00 228.00 
C 29.00 232.20 29.32 250.11 26.00 251.00
C 26.00 251.50 26.00 252.00 26.00 252.00
C 26.97 253.64 26.19 254.12 26.00 256.00
C 25.86 257.40 25.07 260.50 26.00 261.00
C 26.05 260.85 27.00 261.00 27.00 261.00
C 31.08 251.18 30.01 236.19 31.00 226.00
C 30.45 222.18 31.00 217.86 31.00 214.00
C 31.00 203.67 31.00 193.33 31.00 183.00
C 30.80 180.90 30.00 177.77 30.00 175.00
C 30.00 167.33 30.00 159.67 30.00 152.00
C 30.00 152.00 29.26 151.75 29.00 152.00
C 26.75 176.87 29.00 203.02 29.00 228.00 Z"/>
</g>
<g fill="#877267" fill-opacity="1.00" stroke="None">
<path d="
M 14.00 182.00 
C 15.64 198.95 15.63 219.12 14.00 236.00
C 14.00 239.77 14.67 243.90 15.00 247.00
C 15.05 245.13 15.83 243.20 16.00 242.00
C 15.33 212.82 17.33 182.43 15.00 154.00
C 13.17 162.34 14.00 172.83 14.00 182.00 Z"/>
</g>
<g fill="#F2EDE7" fill-opacity="1.00" stroke="None">
<path d="
M 26.00 205.00 
C 26.00 213.57 24.03 220.61 23.00 228.00
C 23.01 229.33 23.00 230.67 23.00 232.00
C 23.00 235.75 22.29 239.99 22.00 243.00
C 22.00 245.33 22.04 247.67 22.00 250.00
C 22.17 251.08 23.89 253.25 23.00 255.00
C 25.95 255.57 24.97 252.77 26.00 252.00
C 26.00 252.00 26.00 251.50 26.00 251.00
C 26.00 225.55 27.00 200.60 27.00 175.00
C 27.00 169.74 27.47 164.24 27.00 159.00
C 27.00 159.00 26.06 158.84 26.00 159.00
C 24.64 174.05 26.00 189.88 26.00 205.00 Z"/>
</g>
<g fill="#857D78" fill-opacity="1.00" stroke="None">
<path d="
M 27.00 175.00 
C 27.00 174.96 28.00 175.00 28.00 175.00
C 28.00 169.67 27.89 164.33 28.00 159.00
C 28.00 159.00 27.50 159.00 27.00 159.00
C 27.47 164.24 27.00 169.74 27.00 175.00 Z"/>
</g>
<g fill="#A7A892" fill-opacity="0.02" stroke="None">
<path d="
M 32.00 164.00 
C 32.00 162.33 32.00 160.67 32.00 159.00
C 31.54 161.12 31.53 161.83 32.00 164.00 Z"/>
</g>
<g fill="#BAAC9F" fill-opacity="0.03" stroke="None">
<path d="
M 31.00 175.00 
C 31.00 177.33 31.00 179.67 31.00 182.00
C 31.44 182.16 32.92 184.69 33.00 185.00
C 33.00 178.78 32.00 173.28 32.00 167.00
C 31.49 169.32 31.00 172.01 31.00 175.00 Z"/>
</g>
<g fill="#B0A093" fill-opacity="1.00" stroke="None">
<path d="
M 26.00 251.00 
C 29.32 250.11 29.00 232.20 29.00 228.00
C 27.38 211.27 28.00 192.54 28.00 175.00
C 28.00 175.00 27.00 174.96 27.00 175.00
C 27.00 200.60 26.00 225.55 26.00 251.00 Z"/>
</g>
<g fill="#6B594B" fill-opacity="0.78" stroke="None">
<path d="
M 31.00 183.00 
C 31.00 182.50 31.00 182.00 31.00 182.00
C 31.00 179.67 31.00 177.33 31.00 175.00
C 31.00 175.00 30.00 174.96 30.00 175.00
C 30.00 177.77 30.80 180.90 31.00 183.00 Z"/>
</g>
<g fill="#836C5E" fill-opacity="0.95" stroke="None">
<path d="
M 11.00 220.00 
C 11.00 220.50 11.00 221.50 11.00 222.00
C 11.34 222.23 12.00 222.00 12.00 222.00
C 12.00 208.00 12.00 194.00 12.00 180.00
C 12.00 180.00 11.00 179.96 11.00 180.00
C 11.00 193.33 11.00 206.67 11.00 220.00 Z"/>
</g>
<g fill="#AB978D" fill-opacity="1.00" stroke="None">
<path d="
M 14.00 236.00 
C 15.63 219.12 15.64 198.95 14.00 182.00
C 14.00 200.00 14.00 218.00 14.00 236.00 Z"/>
</g>
<g fill="#C4B4AC" fill-opacity="0.21" stroke="None">
<path d="
M 31.00 183.00 
C 31.00 193.33 31.00 203.67 31.00 214.00
C 31.08 213.81 32.92 214.19 33.00 214.00
C 33.37 204.37 33.00 194.64 33.00 185.00
C 32.92 184.69 31.44 182.16 31.00 182.00
C 31.00 182.00 31.00 182.50 31.00 183.00 Z"/>
</g>
<g fill="#665552" fill-opacity="1.00" stroke="None">
<path d="
M 22.00 226.00 
C 22.00 224.67 22.00 223.33 22.00 222.00
C 22.01 218.99 22.49 216.80 23.00 214.00
C 19.52 206.87 22.62 200.00 23.00 193.00
C 22.04 192.30 20.24 194.64 20.00 193.00
C 18.58 194.26 17.17 201.56 21.00 199.00
C 16.58 207.49 20.87 217.42 22.00 226.00 Z"/>
</g>
<g fill="#BEB2AA" fill-opacity="1.00" stroke="None">
<path d="
M 23.00 214.00 
C 22.49 216.80 22.01 218.99 22.00 222.00
C 22.11 223.40 22.99 225.93 23.00 228.00
C 24.03 220.61 26.00 213.57 26.00 205.00
C 25.28 208.09 23.56 210.92 23.00 214.00 Z"/>
</g>
<g fill="#FEFFEC" fill-opacity="0.01" stroke="None">
<path d="
M 10.00 219.00 
C 10.00 217.00 10.00 215.00 10.00 213.00
C 10.00 213.00 9.00 213.04 9.00 213.00
C 9.06 215.25 8.62 217.38 10.00 219.00 Z"/>
</g>
<g fill="#BFAF9F" fill-opacity="0.04" stroke="None">
<path d="
M 31.00 226.00 
C 31.05 226.35 31.93 226.76 32.00 227.00
C 32.19 222.42 32.83 218.52 33.00 214.00
C 32.92 214.19 31.08 213.81 31.00 214.00
C 31.00 217.86 30.45 222.18 31.00 226.00 Z"/>
</g>
<g fill="#A0968B" fill-opacity="0.12" stroke="None">
<path d="
M 11.00 240.00 
C 11.11 240.21 12.00 240.00 12.00 240.00
C 11.34 237.00 12.00 233.08 12.00 230.00
C 11.80 227.90 11.00 224.77 11.00 222.00
C 11.00 221.50 11.00 220.50 11.00 220.00
C 11.00 220.00 10.25 220.25 10.00 220.00
C 10.00 226.81 10.36 233.54 11.00 240.00 Z"/>
</g>
<g fill="#8F7E6E" fill-opacity="0.65" stroke="None">
<path d="
M 12.00 230.00 
C 12.00 230.00 12.00 229.50 12.00 229.00
C 12.00 226.67 12.00 224.33 12.00 222.00
C 12.00 222.00 11.34 222.23 11.00 222.00
C 11.00 224.77 11.80 227.90 12.00 230.00 Z"/>
</g>
<g fill="#907463" fill-opacity="1.00" stroke="None">
<path d="
M 22.00 226.00 
C 22.20 228.86 22.41 233.87 19.00 230.00
C 20.95 237.75 13.88 249.29 21.00 254.00
C 16.42 252.59 16.92 261.63 21.00 261.00
C 21.01 257.28 21.93 253.89 22.00 250.00
C 22.04 247.67 22.00 245.33 22.00 243.00
C 22.00 239.18 22.58 235.11 23.00 232.00
C 23.00 230.67 23.01 229.33 23.00 228.00
C 22.99 225.93 22.11 223.40 22.00 222.00
C 22.00 223.33 22.00 224.67 22.00 226.00 Z"/>
</g>
<g fill="#B4A49B" fill-opacity="0.17" stroke="None">
<path d="
M 27.00 261.00 
C 26.55 262.07 26.37 262.92 26.00 264.00
C 25.91 265.20 27.30 266.06 26.00 268.00
C 25.77 268.34 26.00 269.00 26.00 269.00
C 26.00 269.50 26.00 270.00 26.00 270.00
C 29.11 268.59 27.46 265.69 28.00 263.00
C 28.07 262.04 28.47 261.36 29.00 260.00
C 32.04 250.45 31.59 237.10 32.00 227.00
C 31.93 226.76 31.05 226.35 31.00 226.00
C 30.01 236.19 31.08 251.18 27.00 261.00 Z"/>
</g>
<g fill="#C0B2A8" fill-opacity="1.00" stroke="None">
<path d="
M 22.00 243.00 
C 22.29 239.99 23.00 235.75 23.00 232.00
C 22.58 235.11 22.00 239.18 22.00 243.00 Z"/>
</g>
<g fill="#604947" fill-opacity="0.35" stroke="None">
<path d="
M 11.00 244.00 
C 11.17 243.57 12.86 243.28 13.00 243.00
C 12.93 242.09 13.28 240.21 12.00 240.00
C 12.00 240.00 11.11 240.21 11.00 240.00
C 11.13 241.30 11.00 242.69 11.00 244.00 Z"/>
</g>
<g fill="#A99687" fill-opacity="1.00" stroke="None">
<path d="
M 15.00 247.00 
C 14.96 248.36 14.56 250.73 15.00 252.00
C 15.05 252.15 16.00 252.00 16.00 252.00
C 15.71 248.72 16.00 245.29 16.00 242.00
C 15.83 243.20 15.05 245.13 15.00 247.00 Z"/>
</g>
<g fill="#97918B" fill-opacity="0.12" stroke="None">
<path d="
M 11.00 244.00 
C 11.00 244.50 11.00 245.50 11.00 246.00
C 11.53 247.58 11.03 247.80 11.00 249.00
C 11.62 253.52 11.71 266.48 15.00 269.00
C 15.12 268.74 15.96 268.35 16.00 268.00
C 14.14 265.57 15.07 266.29 15.00 264.00
C 14.93 261.81 14.62 262.28 14.00 260.00
C 12.90 255.92 13.00 251.37 13.00 247.00
C 13.00 245.68 13.09 244.32 13.00 243.00
C 12.86 243.28 11.17 243.57 11.00 244.00 Z"/>
</g>
<g fill="#8D4646" fill-opacity="0.02" stroke="None">
<path d="
M 11.00 249.00 
C 11.03 247.80 11.53 247.58 11.00 246.00
C 11.00 246.96 10.87 248.05 11.00 249.00 Z"/>
</g>
<g fill="#3D2921" fill-opacity="0.83" stroke="None">
<path d="
M 14.00 260.00 
C 13.98 259.93 14.74 259.12 15.00 259.00
C 15.42 256.75 14.70 254.28 15.00 252.00
C 14.86 251.02 13.14 248.03 13.00 247.00
C 13.00 251.37 12.90 255.92 14.00 260.00 Z"/>
</g>
<g fill="#B3A092" fill-opacity="0.98" stroke="None">
<path d="
M 21.00 261.00 
C 20.98 265.70 21.00 272.09 21.00 278.00
C 21.27 275.99 22.86 272.71 22.00 270.00
C 23.28 269.47 23.86 270.97 25.00 271.00
C 24.90 269.42 25.36 269.97 26.00 269.00
C 26.00 269.00 25.77 268.34 26.00 268.00
C 25.13 266.33 25.51 265.46 26.00 264.00
C 26.37 262.92 26.55 262.07 27.00 261.00
C 27.00 261.00 26.05 260.85 26.00 261.00
C 25.44 262.75 24.26 265.30 22.00 265.00
C 25.73 262.08 18.36 255.87 26.00 256.00
C 26.19 254.12 26.97 253.64 26.00 252.00
C 24.97 252.77 25.95 255.57 23.00 255.00
C 23.89 253.25 22.17 251.08 22.00 250.00
C 21.93 253.89 21.01 257.28 21.00 261.00 Z"/>
</g>
<g fill="#846758" fill-opacity="1.00" stroke="None">
<path d="
M 15.00 259.00 
C 15.00 259.00 15.94 258.84 16.00 259.00
C 16.20 258.38 16.94 256.29 17.00 256.00
C 16.95 254.46 16.13 253.45 16.00 252.00
C 16.00 252.00 15.05 252.15 15.00 252.00
C 14.70 254.28 15.42 256.75 15.00 259.00 Z"/>
</g>
<g fill="#AF9183" fill-opacity="1.00" stroke="None">
<path d="
M 16.00 259.00 
C 17.37 262.68 17.06 257.77 17.00 256.00
C 16.94 256.29 16.20 258.38 16.00 259.00 Z"/>
</g>
<g fill="#E6DBD0" fill-opacity="1.00" stroke="None">
<path d="
M 26.00 261.00 
C 25.07 260.50 25.86 257.40 26.00 256.00
C 18.36 255.87 25.73 262.08 22.00 265.00
C 24.26 265.30 25.44 262.75 26.00 261.00 Z"/>
</g>
<g fill="#C6807F" fill-opacity="0.02" stroke="None">
<path d="
M 28.00 263.00 
C 28.19 262.06 28.72 260.89 29.00 260.00
C 28.47 261.36 28.07 262.04 28.00 263.00 Z"/>
</g>
<g fill="#725545" fill-opacity="1.00" stroke="None">
<path d="
M 15.00 264.00 
C 14.76 264.17 14.91 265.52 15.00 266.00
C 16.14 267.80 16.48 267.55 17.00 270.00
C 17.04 269.75 18.48 268.07 19.00 268.00
C 17.95 270.51 19.29 273.27 18.00 275.00
C 18.84 277.73 20.12 279.93 20.00 283.00
C 19.98 283.50 20.00 284.50 20.00 285.00
C 20.25 284.75 21.00 285.00 21.00 285.00
C 20.76 284.20 21.00 282.84 21.00 282.00
C 21.00 280.67 21.00 279.33 21.00 278.00
C 21.00 272.09 20.98 265.70 21.00 261.00
C 21.00 262.00 21.00 263.00 21.00 264.00
C 19.29 263.86 16.59 262.85 15.00 264.00 Z"/>
</g>
<g fill="#897F79" fill-opacity="0.44" stroke="None">
<path d="
M 16.00 268.00 
C 16.06 267.49 15.10 266.57 15.00 266.00
C 14.91 265.52 14.76 264.17 15.00 264.00
C 15.07 266.29 14.14 265.57 16.00 268.00 Z"/>
</g>
<g fill="#8D7565" fill-opacity="0.87" stroke="None">
<path d="
M 26.00 268.00 
C 27.30 266.06 25.91 265.20 26.00 264.00
C 25.51 265.46 25.13 266.33 26.00 268.00 Z"/>
</g>
<g fill="#44342B" fill-opacity="0.73" stroke="None">
<path d="
M 16.00 268.00 
C 15.96 268.35 15.12 268.74 15.00 269.00
C 15.00 269.00 15.22 269.64 15.00 270.00
C 16.04 272.38 16.69 274.86 16.00 277.00
C 16.19 277.41 15.86 278.55 16.00 279.00
C 18.28 279.42 18.22 279.54 19.00 283.00
C 19.50 283.00 20.00 283.00 20.00 283.00
C 20.12 279.93 18.84 277.73 18.00 275.00
C 17.46 273.26 17.39 271.82 17.00 270.00
C 16.48 267.55 16.14 267.80 15.00 266.00
C 15.10 266.57 16.06 267.49 16.00 268.00 Z"/>
</g>
<g fill="#A89082" fill-opacity="1.00" stroke="None">
<path d="
M 17.00 270.00 
C 17.39 271.82 17.46 273.26 18.00 275.00
C 19.29 273.27 17.95 270.51 19.00 268.00
C 18.48 268.07 17.04 269.75 17.00 270.00 Z"/>
</g>
<g fill="#AB9F93" fill-opacity="0.47" stroke="None">
<path d="
M 25.00 271.00 
C 25.03 271.50 25.00 272.00 25.00 272.00
C 25.07 271.76 25.97 271.35 26.00 271.00
C 26.00 271.00 26.00 270.50 26.00 270.00
C 26.00 270.00 26.00 269.50 26.00 269.00
C 25.36 269.97 24.90 269.42 25.00 271.00 Z"/>
</g>
<g fill="#9E9492" fill-opacity="0.13" stroke="None">
<path d="
M 16.00 277.00 
C 16.69 274.86 16.04 272.38 15.00 270.00
C 13.27 272.81 14.88 274.66 16.00 277.00 Z"/>
</g>
<g fill="#E6D9CF" fill-opacity="0.95" stroke="None">
<path d="
M 21.00 278.00 
C 21.00 279.33 21.00 280.67 21.00 282.00
C 21.22 281.54 22.82 281.31 23.00 281.00
C 23.62 278.02 24.88 275.09 25.00 272.00
C 25.00 272.00 25.03 271.50 25.00 271.00
C 23.86 270.97 23.28 269.47 22.00 270.00
C 22.86 272.71 21.27 275.99 21.00 278.00 Z"/>
</g>
<g fill="#B7A99F" fill-opacity="0.23" stroke="None">
<path d="
M 25.00 272.00 
C 24.88 275.09 23.62 278.02 23.00 281.00
C 22.84 281.76 22.71 285.59 22.00 286.00
C 22.49 287.84 20.16 286.15 20.00 286.00
C 19.75 286.25 19.00 286.00 19.00 286.00
C 20.14 293.40 31.11 273.74 26.00 271.00
C 25.97 271.35 25.07 271.76 25.00 272.00 Z"/>
</g>
<g fill="#A79F9D" fill-opacity="0.10" stroke="None">
<path d="
M 16.00 279.00 
C 16.45 280.41 17.50 281.59 18.00 283.00
C 18.05 283.15 19.00 283.00 19.00 283.00
C 18.22 279.54 18.28 279.42 16.00 279.00 Z"/>
</g>
<g fill="#C6BAAD" fill-opacity="0.67" stroke="None">
<path d="
M 21.00 282.00 
C 21.00 282.84 20.76 284.20 21.00 285.00
C 21.26 285.12 21.82 286.10 22.00 286.00
C 22.71 285.59 22.84 281.76 23.00 281.00
C 22.82 281.31 21.22 281.54 21.00 282.00 Z"/>
</g>
<g fill="#87746C" fill-opacity="0.14" stroke="None">
<path d="
M 19.00 286.00 
C 19.00 286.00 19.75 286.25 20.00 286.00
C 20.25 285.75 20.00 285.00 20.00 285.00
C 20.00 284.50 19.98 283.50 20.00 283.00
C 20.00 283.00 19.50 283.00 19.00 283.00
C 19.00 283.00 18.05 283.15 18.00 283.00
C 18.28 283.80 18.04 285.47 19.00 286.00 Z"/>
</g>
<g fill="#7E7369" fill-opacity="0.67" stroke="None">
<path d="
M 20.00 286.00 
C 20.16 286.15 22.49 287.84 22.00 286.00
C 21.82 286.10 21.26 285.12 21.00 285.00
C 21.00 285.00 20.25 284.75 20.00 285.00
C 20.00 285.00 20.25 285.75 20.00 286.00 Z"/>
</g>
</svg>