<svg xmlns="http://www.w3.org/2000/svg" xmlns:v="https://svgstorm.com"
viewBox = "0 0 27 31"
width="27"
height="31">
<g fill="None" fill-opacity="0.0" stroke="#000000" stroke-opacity="0.00" stroke-width="0.3"><path d="
M 0.00 31.00 
L 27.00 31.00
L 27.00 0.00
L 0.00 0.00
L 0.00 31.00
M 17.00 16.00 
C 16.79 16.38 17.20 17.60 17.00 18.00
C 20.95 14.56 21.25 11.07 20.00 6.00
C 29.44 8.07 26.06 25.10 17.00 22.00
C 19.54 23.20 18.21 27.57 16.00 25.00
C 15.61 24.79 15.00 25.00 15.00 25.00
C 14.74 26.16 14.63 27.81 13.00 28.00
C 11.59 24.50 12.17 24.23 9.00 26.00
C 8.54 22.35 3.30 21.49 2.03 16.97 C 0.75 12.45 1.94 7.68 7.00 6.00
C 5.89 10.06 5.44 15.72 10.00 18.00
C 9.80 17.60 10.21 16.38 10.00 16.00
C 7.11 10.93 9.09 7.23 13.00 3.00
C 17.13 5.59 21.28 11.88 17.00 16.00 Z"/>
</g>
<g fill="None" fill-opacity="0.0" stroke="#020202" stroke-opacity="0.84" stroke-width="0.3"><path d="
M 10.00 16.00 
C 10.73 17.25 12.44 18.46 13.00 20.00
C 11.72 20.27 10.28 19.23 10.00 18.00
C 5.44 15.72 5.89 10.06 7.00 6.00
C 1.94 7.68 0.75 12.45 2.03 16.97 C 3.30 21.49 8.54 22.35 9.00 26.00
C 12.17 24.23 11.59 24.50 13.00 28.00
C 14.63 27.81 14.74 26.16 15.00 25.00
C 13.44 23.01 15.00 23.16 16.00 25.00
C 18.21 27.57 19.54 23.20 17.00 22.00
C 26.06 25.10 29.44 8.07 20.00 6.00
C 21.25 11.07 20.95 14.56 17.00 18.00
C 16.38 19.20 15.56 20.28 14.00 20.00
C 15.16 18.72 15.61 16.86 17.00 16.00
C 21.28 11.88 17.13 5.59 13.00 3.00
C 9.09 7.23 7.11 10.93 10.00 16.00
M 12.00 10.00 
C 12.05 11.33 11.96 12.67 12.00 14.00
C 10.40 13.47 11.28 11.25 11.00 10.00
C 10.87 9.83 11.72 8.65 12.00 10.00
M 16.00 10.00 
C 16.17 10.16 16.08 12.73 16.00 13.00
C 15.72 13.97 15.23 13.80 15.00 13.00
C 14.83 12.84 14.92 10.27 15.00 10.00
C 15.28 9.03 15.77 9.20 16.00 10.00
M 11.00 21.00 
C 12.79 22.79 10.23 20.23 11.00 21.00
M 13.00 23.00 
C 13.74 23.74 12.18 22.18 13.00 23.00 Z"/>
</g>
<g fill="None" fill-opacity="0.0" stroke="#020202" stroke-opacity="0.50" stroke-width="0.3"><path d="
M 11.00 10.00 
C 11.00 9.98 12.00 10.00 12.00 10.00
C 11.72 8.65 10.87 9.83 11.00 10.00 Z"/>
</g>
<g fill="None" fill-opacity="0.0" stroke="#020202" stroke-opacity="0.47" stroke-width="0.3"><path d="
M 15.00 10.00 
C 15.27 9.75 16.00 10.00 16.00 10.00
C 15.77 9.20 15.28 9.03 15.00 10.00 Z"/>
</g>
<g fill="None" fill-opacity="0.0" stroke="#000000" stroke-opacity="0.00" stroke-width="0.3"><path d="
M 12.00 10.00 
C 12.00 10.00 11.00 9.98 11.00 10.00
C 11.28 11.25 10.40 13.47 12.00 14.00
C 11.96 12.67 12.05 11.33 12.00 10.00 Z"/>
</g>
<g fill="None" fill-opacity="0.0" stroke="#000000" stroke-opacity="0.00" stroke-width="0.3"><path d="
M 15.00 13.00 
C 15.27 13.25 16.00 13.00 16.00 13.00
C 16.08 12.73 16.17 10.16 16.00 10.00
C 16.00 10.00 15.27 9.75 15.00 10.00
C 14.92 10.27 14.83 12.84 15.00 13.00 Z"/>
</g>
<g fill="None" fill-opacity="0.0" stroke="#040404" stroke-opacity="0.26" stroke-width="0.3"><path d="
M 16.00 13.00 
C 16.00 13.00 15.27 13.25 15.00 13.00
C 15.23 13.80 15.72 13.97 16.00 13.00 Z"/>
</g>
<g fill="None" fill-opacity="0.0" stroke="#020202" stroke-opacity="0.35" stroke-width="0.3"><path d="
M 10.00 18.00 
C 10.28 19.23 11.72 20.27 13.00 20.00
C 12.44 18.46 10.73 17.25 10.00 16.00
C 10.21 16.38 9.80 17.60 10.00 18.00 Z"/>
</g>
<g fill="None" fill-opacity="0.0" stroke="#020202" stroke-opacity="0.35" stroke-width="0.3"><path d="
M 17.00 18.00 
C 17.20 17.60 16.79 16.38 17.00 16.00
C 15.61 16.86 15.16 18.72 14.00 20.00
C 15.56 20.28 16.38 19.20 17.00 18.00 Z"/>
</g>
<g fill="None" fill-opacity="0.0" stroke="#000000" stroke-opacity="0.08" stroke-width="0.3"><path d="
M 11.00 21.00 
C 10.23 20.23 12.79 22.79 11.00 21.00 Z"/>
</g>
<g fill="None" fill-opacity="0.0" stroke="#020202" stroke-opacity="0.42" stroke-width="0.3"><path d="
M 13.00 23.00 
C 12.18 22.18 13.74 23.74 13.00 23.00 Z"/>
</g>
<g fill="None" fill-opacity="0.0" stroke="#000000" stroke-opacity="0.29" stroke-width="0.3"><path d="
M 15.00 25.00 
C 15.00 25.00 15.61 24.79 16.00 25.00
C 15.00 23.16 13.44 23.01 15.00 25.00 Z"/>
</g>
<g fill="#000000" fill-opacity="0.00" stroke="None">
<path d="
M 0.00 31.00 
L 27.00 31.00
L 27.00 0.00
L 0.00 0.00
L 0.00 31.00
M 17.00 16.00 
C 16.79 16.38 17.20 17.60 17.00 18.00
C 20.95 14.56 21.25 11.07 20.00 6.00
C 29.44 8.07 26.06 25.10 17.00 22.00
C 19.54 23.20 18.21 27.57 16.00 25.00
C 15.61 24.79 15.00 25.00 15.00 25.00
C 14.74 26.16 14.63 27.81 13.00 28.00
C 11.59 24.50 12.17 24.23 9.00 26.00
C 8.54 22.35 3.30 21.49 2.03 16.97 C 0.75 12.45 1.94 7.68 7.00 6.00
C 5.89 10.06 5.44 15.72 10.00 18.00
C 9.80 17.60 10.21 16.38 10.00 16.00
C 7.11 10.93 9.09 7.23 13.00 3.00
C 17.13 5.59 21.28 11.88 17.00 16.00 Z"/>
</g>
<g fill="#020202" fill-opacity="0.84" stroke="None">
<path d="
M 10.00 16.00 
C 10.73 17.25 12.44 18.46 13.00 20.00
C 11.72 20.27 10.28 19.23 10.00 18.00
C 5.44 15.72 5.89 10.06 7.00 6.00
C 1.94 7.68 0.75 12.45 2.03 16.97 C 3.30 21.49 8.54 22.35 9.00 26.00
C 12.17 24.23 11.59 24.50 13.00 28.00
C 14.63 27.81 14.74 26.16 15.00 25.00
C 13.44 23.01 15.00 23.16 16.00 25.00
C 18.21 27.57 19.54 23.20 17.00 22.00
C 26.06 25.10 29.44 8.07 20.00 6.00
C 21.25 11.07 20.95 14.56 17.00 18.00
C 16.38 19.20 15.56 20.28 14.00 20.00
C 15.16 18.72 15.61 16.86 17.00 16.00
C 21.28 11.88 17.13 5.59 13.00 3.00
C 9.09 7.23 7.11 10.93 10.00 16.00
M 12.00 10.00 
C 12.05 11.33 11.96 12.67 12.00 14.00
C 10.40 13.47 11.28 11.25 11.00 10.00
C 10.87 9.83 11.72 8.65 12.00 10.00
M 16.00 10.00 
C 16.17 10.16 16.08 12.73 16.00 13.00
C 15.72 13.97 15.23 13.80 15.00 13.00
C 14.83 12.84 14.92 10.27 15.00 10.00
C 15.28 9.03 15.77 9.20 16.00 10.00
M 11.00 21.00 
C 12.79 22.79 10.23 20.23 11.00 21.00
M 13.00 23.00 
C 13.74 23.74 12.18 22.18 13.00 23.00 Z"/>
</g>
<g fill="#020202" fill-opacity="0.50" stroke="None">
<path d="
M 11.00 10.00 
C 11.00 9.98 12.00 10.00 12.00 10.00
C 11.72 8.65 10.87 9.83 11.00 10.00 Z"/>
</g>
<g fill="#020202" fill-opacity="0.47" stroke="None">
<path d="
M 15.00 10.00 
C 15.27 9.75 16.00 10.00 16.00 10.00
C 15.77 9.20 15.28 9.03 15.00 10.00 Z"/>
</g>
<g fill="#000000" fill-opacity="0.00" stroke="None">
<path d="
M 12.00 10.00 
C 12.00 10.00 11.00 9.98 11.00 10.00
C 11.28 11.25 10.40 13.47 12.00 14.00
C 11.96 12.67 12.05 11.33 12.00 10.00 Z"/>
</g>
<g fill="#000000" fill-opacity="0.00" stroke="None">
<path d="
M 15.00 13.00 
C 15.27 13.25 16.00 13.00 16.00 13.00
C 16.08 12.73 16.17 10.16 16.00 10.00
C 16.00 10.00 15.27 9.75 15.00 10.00
C 14.92 10.27 14.83 12.84 15.00 13.00 Z"/>
</g>
<g fill="#040404" fill-opacity="0.26" stroke="None">
<path d="
M 16.00 13.00 
C 16.00 13.00 15.27 13.25 15.00 13.00
C 15.23 13.80 15.72 13.97 16.00 13.00 Z"/>
</g>
<g fill="#020202" fill-opacity="0.35" stroke="None">
<path d="
M 10.00 18.00 
C 10.28 19.23 11.72 20.27 13.00 20.00
C 12.44 18.46 10.73 17.25 10.00 16.00
C 10.21 16.38 9.80 17.60 10.00 18.00 Z"/>
</g>
<g fill="#020202" fill-opacity="0.35" stroke="None">
<path d="
M 17.00 18.00 
C 17.20 17.60 16.79 16.38 17.00 16.00
C 15.61 16.86 15.16 18.72 14.00 20.00
C 15.56 20.28 16.38 19.20 17.00 18.00 Z"/>
</g>
<g fill="#000000" fill-opacity="0.08" stroke="None">
<path d="
M 11.00 21.00 
C 10.23 20.23 12.79 22.79 11.00 21.00 Z"/>
</g>
<g fill="#020202" fill-opacity="0.42" stroke="None">
<path d="
M 13.00 23.00 
C 12.18 22.18 13.74 23.74 13.00 23.00 Z"/>
</g>
<g fill="#000000" fill-opacity="0.29" stroke="None">
<path d="
M 15.00 25.00 
C 15.00 25.00 15.61 24.79 16.00 25.00
C 15.00 23.16 13.44 23.01 15.00 25.00 Z"/>
</g>
</svg>