<svg xmlns="http://www.w3.org/2000/svg" xmlns:v="https://svgstorm.com"
viewBox = "0 0 48 35"
width="48"
height="35">
<g fill="None" fill-opacity="0.0" stroke="#000000" stroke-opacity="0.00" stroke-width="0.3"><path d="
M 0.00 35.00 
L 21.00 35.00
C 2.69 31.85 2.81 3.10 21.00 0.00
L 0.00 0.00
L 0.00 35.00 Z"/>
</g>
<g fill="None" fill-opacity="0.0" stroke="#9898D8" stroke-opacity="0.93" stroke-width="0.3"><path d="
M 21.00 35.00 
L 22.00 35.00
C 22.47 33.66 25.58 33.43 26.00 35.00
L 27.00 35.00
C 45.31 31.85 45.19 3.10 27.00 0.00
L 26.00 0.00
C 25.53 1.34 22.42 1.57 22.00 0.00
L 21.00 0.00
C 2.81 3.10 2.69 31.85 21.00 35.00
M 26.00 7.00 
C 25.98 12.43 24.56 19.12 31.00 21.00
C 23.78 30.30 16.24 6.46 26.00 7.00 Z"/>
</g>
<g fill="None" fill-opacity="0.0" stroke="#9A97D9" stroke-opacity="0.36" stroke-width="0.3"><path d="
M 26.00 0.00 
L 22.00 0.00
C 22.42 1.57 25.53 1.34 26.00 0.00 Z"/>
</g>
<g fill="None" fill-opacity="0.0" stroke="#000000" stroke-opacity="0.00" stroke-width="0.3"><path d="
M 27.00 35.00 
L 48.00 35.00
L 48.00 0.00
L 27.00 0.00
C 45.19 3.10 45.31 31.85 27.00 35.00 Z"/>
</g>
<g fill="None" fill-opacity="0.0" stroke="#000000" stroke-opacity="0.00" stroke-width="0.3"><path d="
M 26.00 7.00 
C 16.24 6.46 23.78 30.30 31.00 21.00
C 24.56 19.12 25.98 12.43 26.00 7.00 Z"/>
</g>
<g fill="None" fill-opacity="0.0" stroke="#9A97D9" stroke-opacity="0.36" stroke-width="0.3"><path d="
M 22.00 35.00 
L 26.00 35.00
C 25.58 33.43 22.47 33.66 22.00 35.00 Z"/>
</g>
<g fill="#000000" fill-opacity="0.00" stroke="None">
<path d="
M 0.00 35.00 
L 21.00 35.00
C 2.69 31.85 2.81 3.10 21.00 0.00
L 0.00 0.00
L 0.00 35.00 Z"/>
</g>
<g fill="#9898D8" fill-opacity="0.93" stroke="None">
<path d="
M 21.00 35.00 
L 22.00 35.00
C 22.47 33.66 25.58 33.43 26.00 35.00
L 27.00 35.00
C 45.31 31.85 45.19 3.10 27.00 0.00
L 26.00 0.00
C 25.53 1.34 22.42 1.57 22.00 0.00
L 21.00 0.00
C 2.81 3.10 2.69 31.85 21.00 35.00
M 26.00 7.00 
C 25.98 12.43 24.56 19.12 31.00 21.00
C 23.78 30.30 16.24 6.46 26.00 7.00 Z"/>
</g>
<g fill="#9A97D9" fill-opacity="0.36" stroke="None">
<path d="
M 26.00 0.00 
L 22.00 0.00
C 22.42 1.57 25.53 1.34 26.00 0.00 Z"/>
</g>
<g fill="#000000" fill-opacity="0.00" stroke="None">
<path d="
M 27.00 35.00 
L 48.00 35.00
L 48.00 0.00
L 27.00 0.00
C 45.19 3.10 45.31 31.85 27.00 35.00 Z"/>
</g>
<g fill="#000000" fill-opacity="0.00" stroke="None">
<path d="
M 26.00 7.00 
C 16.24 6.46 23.78 30.30 31.00 21.00
C 24.56 19.12 25.98 12.43 26.00 7.00 Z"/>
</g>
<g fill="#9A97D9" fill-opacity="0.36" stroke="None">
<path d="
M 22.00 35.00 
L 26.00 35.00
C 25.58 33.43 22.47 33.66 22.00 35.00 Z"/>
</g>
</svg>