<svg xmlns="http://www.w3.org/2000/svg" xmlns:v="https://svgstorm.com"
viewBox = "0 0 40 40"
width="40"
height="40">
<g fill="None" fill-opacity="0.0" stroke="#000000" stroke-opacity="0.00" stroke-width="0.3"><path d="
M 0.00 40.00 
L 40.00 40.00
L 40.00 0.00
L 0.00 0.00
L 0.00 40.00
M 25.00 3.00 
C 45.73 7.29 37.01 42.95 15.78 36.22 C -5.45 29.49 2.61 -1.64 25.00 3.00 Z"/>
</g>
<g fill="None" fill-opacity="0.0" stroke="#F51406" stroke-opacity="0.88" stroke-width="0.3"><path d="
M 25.00 3.00 
C 2.61 -1.64 -5.45 29.49 15.78 36.22 C 37.01 42.95 45.73 7.29 25.00 3.00
M 19.00 18.00 
C 22.53 18.14 23.47 12.83 27.00 13.00
C 26.84 15.64 23.98 17.62 22.00 19.00
C 21.86 22.53 27.17 23.47 27.00 27.00
C 24.36 26.84 22.38 23.98 21.00 22.00
C 17.47 21.86 16.53 27.17 13.00 27.00
C 13.16 24.36 16.02 22.38 18.00 21.00
C 18.14 17.47 12.83 16.53 13.00 13.00
C 15.64 13.16 17.62 16.02 19.00 18.00 Z"/>
</g>
<g fill="None" fill-opacity="0.0" stroke="#000000" stroke-opacity="0.00" stroke-width="0.3"><path d="
M 19.00 18.00 
C 17.62 16.02 15.64 13.16 13.00 13.00
C 12.83 16.53 18.14 17.47 18.00 21.00
C 16.02 22.38 13.16 24.36 13.00 27.00
C 16.53 27.17 17.47 21.86 21.00 22.00
C 22.38 23.98 24.36 26.84 27.00 27.00
C 27.17 23.47 21.86 22.53 22.00 19.00
C 23.98 17.62 26.84 15.64 27.00 13.00
C 23.47 12.83 22.53 18.14 19.00 18.00 Z"/>
</g>
<g fill="#000000" fill-opacity="0.00" stroke="None">
<path d="
M 0.00 40.00 
L 40.00 40.00
L 40.00 0.00
L 0.00 0.00
L 0.00 40.00
M 25.00 3.00 
C 45.73 7.29 37.01 42.95 15.78 36.22 C -5.45 29.49 2.61 -1.64 25.00 3.00 Z"/>
</g>
<g fill="#F51406" fill-opacity="0.88" stroke="None">
<path d="
M 25.00 3.00 
C 2.61 -1.64 -5.45 29.49 15.78 36.22 C 37.01 42.95 45.73 7.29 25.00 3.00
M 19.00 18.00 
C 22.53 18.14 23.47 12.83 27.00 13.00
C 26.84 15.64 23.98 17.62 22.00 19.00
C 21.86 22.53 27.17 23.47 27.00 27.00
C 24.36 26.84 22.38 23.98 21.00 22.00
C 17.47 21.86 16.53 27.17 13.00 27.00
C 13.16 24.36 16.02 22.38 18.00 21.00
C 18.14 17.47 12.83 16.53 13.00 13.00
C 15.64 13.16 17.62 16.02 19.00 18.00 Z"/>
</g>
<g fill="#000000" fill-opacity="0.00" stroke="None">
<path d="
M 19.00 18.00 
C 17.62 16.02 15.64 13.16 13.00 13.00
C 12.83 16.53 18.14 17.47 18.00 21.00
C 16.02 22.38 13.16 24.36 13.00 27.00
C 16.53 27.17 17.47 21.86 21.00 22.00
C 22.38 23.98 24.36 26.84 27.00 27.00
C 27.17 23.47 21.86 22.53 22.00 19.00
C 23.98 17.62 26.84 15.64 27.00 13.00
C 23.47 12.83 22.53 18.14 19.00 18.00 Z"/>
</g>
</svg>