<svg xmlns="http://www.w3.org/2000/svg" xmlns:v="https://svgstorm.com"
viewBox = "0 0 28 32"
width="28"
height="32">
<g fill="None" fill-opacity="0.0" stroke="#000000" stroke-opacity="0.00" stroke-width="0.3"><path d="
M 0.00 24.00 
C 0.50 24.00 1.00 24.00 1.00 24.00
C 1.50 21.43 3.76 19.33 6.00 18.00
C 1.09 3.94 21.30 10.40 25.00 3.00
C 26.25 3.30 26.71 4.83 28.00 5.00
L 28.00 0.00
L 0.00 0.00
L 0.00 24.00 Z"/>
</g>
<g fill="None" fill-opacity="0.0" stroke="#80A9EC" stroke-opacity="0.86" stroke-width="0.3"><path d="
M 1.00 24.00 
C 0.91 24.48 1.00 25.00 1.00 25.00
C 0.97 25.35 0.34 25.84 0.00 26.00
L 0.00 28.00
C 3.18 29.88 4.11 23.96 6.00 22.00
C 6.83 21.14 6.26 21.21 7.00 22.00
C 13.39 31.13 24.24 25.23 28.00 17.00
L 28.00 16.00
C 26.81 15.99 26.83 14.01 28.00 14.00
L 28.00 5.00
C 26.71 4.83 26.25 3.30 25.00 3.00
C 21.30 10.40 1.09 3.94 6.00 18.00
C 3.76 19.33 1.50 21.43 1.00 24.00
M 19.00 13.00 
C 15.01 15.79 12.81 11.90 19.00 13.00
M 13.00 14.00 
C 13.61 14.61 11.34 12.34 13.00 14.00
M 10.00 15.00 
C 10.74 15.74 9.18 14.18 10.00 15.00
M 8.00 16.00 
C 8.74 16.74 7.18 15.18 8.00 16.00 Z"/>
</g>
<g fill="None" fill-opacity="0.0" stroke="#000000" stroke-opacity="0.00" stroke-width="0.3"><path d="
M 19.00 13.00 
C 12.81 11.90 15.01 15.79 19.00 13.00 Z"/>
</g>
<g fill="None" fill-opacity="0.0" stroke="#000000" stroke-opacity="0.00" stroke-width="0.3"><path d="
M 13.00 14.00 
C 11.34 12.34 13.61 14.61 13.00 14.00 Z"/>
</g>
<g fill="None" fill-opacity="0.0" stroke="#81ADF0" stroke-opacity="0.42" stroke-width="0.3"><path d="
M 28.00 16.00 
L 28.00 14.00
C 26.83 14.01 26.81 15.99 28.00 16.00 Z"/>
</g>
<g fill="None" fill-opacity="0.0" stroke="#000000" stroke-opacity="0.00" stroke-width="0.3"><path d="
M 10.00 15.00 
C 9.18 14.18 10.74 15.74 10.00 15.00 Z"/>
</g>
<g fill="None" fill-opacity="0.0" stroke="#000000" stroke-opacity="0.00" stroke-width="0.3"><path d="
M 8.00 16.00 
C 7.18 15.18 8.74 16.74 8.00 16.00 Z"/>
</g>
<g fill="None" fill-opacity="0.0" stroke="#000000" stroke-opacity="0.00" stroke-width="0.3"><path d="
M 7.00 22.00 
C 6.84 21.77 6.00 22.00 6.00 22.00
C 4.11 23.96 3.18 29.88 0.00 28.00
L 0.00 32.00
L 28.00 32.00
L 28.00 17.00
C 24.24 25.23 13.39 31.13 7.00 22.00 Z"/>
</g>
<g fill="None" fill-opacity="0.0" stroke="#82ACEE" stroke-opacity="0.53" stroke-width="0.3"><path d="
M 6.00 22.00 
C 6.00 22.00 6.84 21.77 7.00 22.00
C 6.26 21.21 6.83 21.14 6.00 22.00 Z"/>
</g>
<g fill="None" fill-opacity="0.0" stroke="#7FACF0" stroke-opacity="0.13" stroke-width="0.3"><path d="
M 0.00 25.00 
C 0.50 25.00 1.00 25.00 1.00 25.00
C 1.00 25.00 0.91 24.48 1.00 24.00
C 1.00 24.00 0.50 24.00 0.00 24.00
L 0.00 25.00 Z"/>
</g>
<g fill="None" fill-opacity="0.0" stroke="#81ACF0" stroke-opacity="0.52" stroke-width="0.3"><path d="
M 0.00 26.00 
C 0.34 25.84 0.97 25.35 1.00 25.00
C 1.00 25.00 0.50 25.00 0.00 25.00
L 0.00 26.00 Z"/>
</g>
<g fill="#000000" fill-opacity="0.00" stroke="None">
<path d="
M 0.00 24.00 
C 0.50 24.00 1.00 24.00 1.00 24.00
C 1.50 21.43 3.76 19.33 6.00 18.00
C 1.09 3.94 21.30 10.40 25.00 3.00
C 26.25 3.30 26.71 4.83 28.00 5.00
L 28.00 0.00
L 0.00 0.00
L 0.00 24.00 Z"/>
</g>
<g fill="#80A9EC" fill-opacity="0.86" stroke="None">
<path d="
M 1.00 24.00 
C 0.91 24.48 1.00 25.00 1.00 25.00
C 0.97 25.35 0.34 25.84 0.00 26.00
L 0.00 28.00
C 3.18 29.88 4.11 23.96 6.00 22.00
C 6.83 21.14 6.26 21.21 7.00 22.00
C 13.39 31.13 24.24 25.23 28.00 17.00
L 28.00 16.00
C 26.81 15.99 26.83 14.01 28.00 14.00
L 28.00 5.00
C 26.71 4.83 26.25 3.30 25.00 3.00
C 21.30 10.40 1.09 3.94 6.00 18.00
C 3.76 19.33 1.50 21.43 1.00 24.00
M 19.00 13.00 
C 15.01 15.79 12.81 11.90 19.00 13.00
M 13.00 14.00 
C 13.61 14.61 11.34 12.34 13.00 14.00
M 10.00 15.00 
C 10.74 15.74 9.18 14.18 10.00 15.00
M 8.00 16.00 
C 8.74 16.74 7.18 15.18 8.00 16.00 Z"/>
</g>
<g fill="#000000" fill-opacity="0.00" stroke="None">
<path d="
M 19.00 13.00 
C 12.81 11.90 15.01 15.79 19.00 13.00 Z"/>
</g>
<g fill="#000000" fill-opacity="0.00" stroke="None">
<path d="
M 13.00 14.00 
C 11.34 12.34 13.61 14.61 13.00 14.00 Z"/>
</g>
<g fill="#81ADF0" fill-opacity="0.42" stroke="None">
<path d="
M 28.00 16.00 
L 28.00 14.00
C 26.83 14.01 26.81 15.99 28.00 16.00 Z"/>
</g>
<g fill="#000000" fill-opacity="0.00" stroke="None">
<path d="
M 10.00 15.00 
C 9.18 14.18 10.74 15.74 10.00 15.00 Z"/>
</g>
<g fill="#000000" fill-opacity="0.00" stroke="None">
<path d="
M 8.00 16.00 
C 7.18 15.18 8.74 16.74 8.00 16.00 Z"/>
</g>
<g fill="#000000" fill-opacity="0.00" stroke="None">
<path d="
M 7.00 22.00 
C 6.84 21.77 6.00 22.00 6.00 22.00
C 4.11 23.96 3.18 29.88 0.00 28.00
L 0.00 32.00
L 28.00 32.00
L 28.00 17.00
C 24.24 25.23 13.39 31.13 7.00 22.00 Z"/>
</g>
<g fill="#82ACEE" fill-opacity="0.53" stroke="None">
<path d="
M 6.00 22.00 
C 6.00 22.00 6.84 21.77 7.00 22.00
C 6.26 21.21 6.83 21.14 6.00 22.00 Z"/>
</g>
<g fill="#7FACF0" fill-opacity="0.13" stroke="None">
<path d="
M 0.00 25.00 
C 0.50 25.00 1.00 25.00 1.00 25.00
C 1.00 25.00 0.91 24.48 1.00 24.00
C 1.00 24.00 0.50 24.00 0.00 24.00
L 0.00 25.00 Z"/>
</g>
<g fill="#81ACF0" fill-opacity="0.52" stroke="None">
<path d="
M 0.00 26.00 
C 0.34 25.84 0.97 25.35 1.00 25.00
C 1.00 25.00 0.50 25.00 0.00 25.00
L 0.00 26.00 Z"/>
</g>
</svg>