<svg xmlns="http://www.w3.org/2000/svg" xmlns:v="https://svgstorm.com"
viewBox = "0 0 21 32"
width="21"
height="32">
<g fill="None" fill-opacity="0.0" stroke="#000000" stroke-opacity="0.00" stroke-width="0.3"><path d="
M 0.00 32.00 
L 21.00 32.00
L 21.00 0.00
L 0.00 0.00
L 0.00 32.00
M 16.00 5.00 
C 11.30 11.30 19.69 18.83 19.99 24.01 C 20.29 29.19 0.66 29.18 1.03 23.97 C 1.40 18.76 9.62 11.36 5.00 5.00
C 8.67 5.00 12.33 5.00 16.00 5.00 Z"/>
</g>
<g fill="None" fill-opacity="0.0" stroke="#388D3B" stroke-opacity="0.78" stroke-width="0.3"><path d="
M 16.00 5.00 
C 12.33 5.00 8.67 5.00 5.00 5.00
C 9.62 11.36 1.40 18.76 1.03 23.97 C 0.66 29.18 20.29 29.19 19.99 24.01 C 19.69 18.83 11.30 11.30 16.00 5.00
M 11.00 8.00 
C 11.06 11.53 10.26 15.37 13.00 18.00
C 5.54 20.28 10.79 11.52 11.00 8.00 Z"/>
</g>
<g fill="None" fill-opacity="0.0" stroke="#000000" stroke-opacity="0.00" stroke-width="0.3"><path d="
M 11.00 8.00 
C 10.79 11.52 5.54 20.28 13.00 18.00
C 10.26 15.37 11.06 11.53 11.00 8.00 Z"/>
</g>
<g fill="#000000" fill-opacity="0.00" stroke="None">
<path d="
M 0.00 32.00 
L 21.00 32.00
L 21.00 0.00
L 0.00 0.00
L 0.00 32.00
M 16.00 5.00 
C 11.30 11.30 19.69 18.83 19.99 24.01 C 20.29 29.19 0.66 29.18 1.03 23.97 C 1.40 18.76 9.62 11.36 5.00 5.00
C 8.67 5.00 12.33 5.00 16.00 5.00 Z"/>
</g>
<g fill="#388D3B" fill-opacity="0.78" stroke="None">
<path d="
M 16.00 5.00 
C 12.33 5.00 8.67 5.00 5.00 5.00
C 9.62 11.36 1.40 18.76 1.03 23.97 C 0.66 29.18 20.29 29.19 19.99 24.01 C 19.69 18.83 11.30 11.30 16.00 5.00
M 11.00 8.00 
C 11.06 11.53 10.26 15.37 13.00 18.00
C 5.54 20.28 10.79 11.52 11.00 8.00 Z"/>
</g>
<g fill="#000000" fill-opacity="0.00" stroke="None">
<path d="
M 11.00 8.00 
C 10.79 11.52 5.54 20.28 13.00 18.00
C 10.26 15.37 11.06 11.53 11.00 8.00 Z"/>
</g>
</svg>