<svg xmlns="http://www.w3.org/2000/svg" xmlns:v="https://svgstorm.com"
viewBox = "0 0 28 32"
width="28"
height="32">
<g fill="None" fill-opacity="0.0" stroke="#000000" stroke-opacity="0.00" stroke-width="0.3"><path d="
M 0.00 6.00 
C 3.56 5.11 8.54 3.86 12.00 6.00
C 12.32 6.20 12.74 6.88 13.00 7.00
C 13.95 7.42 15.19 6.31 16.00 6.00
C 19.82 4.55 24.16 4.62 28.00 6.00
L 28.00 0.00
L 0.00 0.00
L 0.00 6.00 Z"/>
</g>
<g fill="None" fill-opacity="0.0" stroke="#DEE0E4" stroke-opacity="0.95" stroke-width="0.3"><path d="
M 0.00 6.00 
L 0.00 26.00
C 4.54 25.42 8.74 26.49 13.00 27.00
C 10.60 21.59 14.30 12.83 13.00 7.00
C 12.95 6.77 12.27 6.21 12.00 6.00
C 8.54 3.86 3.56 5.11 0.00 6.00 Z"/>
</g>
<g fill="None" fill-opacity="0.0" stroke="#DEE0E4" stroke-opacity="0.95" stroke-width="0.3"><path d="
M 16.00 6.00 
C 11.58 10.42 17.36 21.69 15.00 27.00
C 19.20 26.50 23.50 25.42 28.00 26.00
L 28.00 6.00
C 24.16 4.62 19.82 4.55 16.00 6.00 Z"/>
</g>
<g fill="None" fill-opacity="0.0" stroke="#DDDFE3" stroke-opacity="0.50" stroke-width="0.3"><path d="
M 13.00 7.00 
C 12.74 6.88 12.32 6.20 12.00 6.00
C 12.27 6.21 12.95 6.77 13.00 7.00 Z"/>
</g>
<g fill="None" fill-opacity="0.0" stroke="#DFDFE3" stroke-opacity="0.25" stroke-width="0.3"><path d="
M 13.00 7.00 
C 14.30 12.83 10.60 21.59 13.00 27.00
C 13.49 27.06 14.51 27.06 15.00 27.00
C 17.36 21.69 11.58 10.42 16.00 6.00
C 15.19 6.31 13.95 7.42 13.00 7.00 Z"/>
</g>
<g fill="None" fill-opacity="0.0" stroke="#000000" stroke-opacity="0.00" stroke-width="0.3"><path d="
M 0.00 32.00 
L 28.00 32.00
L 28.00 26.00
C 23.50 25.42 19.20 26.50 15.00 27.00
C 14.51 27.06 13.49 27.06 13.00 27.00
C 8.74 26.49 4.54 25.42 0.00 26.00
L 0.00 32.00 Z"/>
</g>
<g fill="#000000" fill-opacity="0.00" stroke="None">
<path d="
M 0.00 6.00 
C 3.56 5.11 8.54 3.86 12.00 6.00
C 12.32 6.20 12.74 6.88 13.00 7.00
C 13.95 7.42 15.19 6.31 16.00 6.00
C 19.82 4.55 24.16 4.62 28.00 6.00
L 28.00 0.00
L 0.00 0.00
L 0.00 6.00 Z"/>
</g>
<g fill="#DEE0E4" fill-opacity="0.95" stroke="None">
<path d="
M 0.00 6.00 
L 0.00 26.00
C 4.54 25.42 8.74 26.49 13.00 27.00
C 10.60 21.59 14.30 12.83 13.00 7.00
C 12.95 6.77 12.27 6.21 12.00 6.00
C 8.54 3.86 3.56 5.11 0.00 6.00 Z"/>
</g>
<g fill="#DEE0E4" fill-opacity="0.95" stroke="None">
<path d="
M 16.00 6.00 
C 11.58 10.42 17.36 21.69 15.00 27.00
C 19.20 26.50 23.50 25.42 28.00 26.00
L 28.00 6.00
C 24.16 4.62 19.82 4.55 16.00 6.00 Z"/>
</g>
<g fill="#DDDFE3" fill-opacity="0.50" stroke="None">
<path d="
M 13.00 7.00 
C 12.74 6.88 12.32 6.20 12.00 6.00
C 12.27 6.21 12.95 6.77 13.00 7.00 Z"/>
</g>
<g fill="#DFDFE3" fill-opacity="0.25" stroke="None">
<path d="
M 13.00 7.00 
C 14.30 12.83 10.60 21.59 13.00 27.00
C 13.49 27.06 14.51 27.06 15.00 27.00
C 17.36 21.69 11.58 10.42 16.00 6.00
C 15.19 6.31 13.95 7.42 13.00 7.00 Z"/>
</g>
<g fill="#000000" fill-opacity="0.00" stroke="None">
<path d="
M 0.00 32.00 
L 28.00 32.00
L 28.00 26.00
C 23.50 25.42 19.20 26.50 15.00 27.00
C 14.51 27.06 13.49 27.06 13.00 27.00
C 8.74 26.49 4.54 25.42 0.00 26.00
L 0.00 32.00 Z"/>
</g>
</svg>