<svg xmlns="http://www.w3.org/2000/svg" xmlns:v="https://svgstorm.com"
viewBox = "0 0 34 32"
width="34"
height="32">
<g fill="None" fill-opacity="0.0" stroke="#000000" stroke-opacity="0.00" stroke-width="0.3"><path d="
M 0.00 32.00 
L 34.00 32.00
L 34.00 0.00
L 0.00 0.00
L 0.00 32.00
M 29.00 4.00 
C 29.00 12.00 29.00 20.00 29.00 28.00
C 21.00 28.00 13.00 28.00 5.00 28.00
C 5.00 20.00 5.00 12.00 5.00 4.00
C 13.00 4.00 21.00 4.00 29.00 4.00 Z"/>
</g>
<g fill="None" fill-opacity="0.0" stroke="#A69244" stroke-opacity="0.94" stroke-width="0.3"><path d="
M 29.00 4.00 
C 21.00 4.00 13.00 4.00 5.00 4.00
C 5.00 12.00 5.00 20.00 5.00 28.00
C 13.00 28.00 21.00 28.00 29.00 28.00
C 29.00 20.00 29.00 12.00 29.00 4.00
M 20.00 9.00 
C 21.43 9.20 22.54 10.58 24.00 9.00
C 23.41 13.97 20.58 13.17 19.00 10.00
C 18.27 9.04 18.13 9.87 19.00 9.00
C 20.22 7.78 18.97 8.69 20.00 9.00
M 16.00 11.00 
C 16.25 11.26 16.00 12.00 16.00 12.00
C 14.48 13.57 10.49 13.55 9.00 12.00
C 9.17 9.00 14.45 9.40 16.00 11.00
M 25.00 13.00 
C 25.25 13.33 24.00 14.31 24.00 13.00
C 23.75 12.67 25.00 11.69 25.00 13.00
M 24.00 14.00 
C 24.74 14.74 23.18 13.18 24.00 14.00
M 16.00 20.00 
C 16.97 18.59 17.12 20.32 16.00 21.00
C 11.03 22.49 14.03 23.45 9.00 21.00
C 13.21 17.56 11.30 17.98 16.00 20.00
M 25.00 18.00 
C 25.25 18.26 25.00 19.00 25.00 19.00
C 23.47 20.58 18.18 21.09 18.00 18.00
C 19.52 16.42 23.51 16.46 25.00 18.00
M 25.00 21.00 
C 21.96 26.62 15.60 19.07 25.00 21.00 Z"/>
</g>
<g fill="None" fill-opacity="0.0" stroke="#A69246" stroke-opacity="0.33" stroke-width="0.3"><path d="
M 19.00 9.00 
C 19.25 8.75 20.00 9.00 20.00 9.00
C 18.97 8.69 20.22 7.78 19.00 9.00 Z"/>
</g>
<g fill="None" fill-opacity="0.0" stroke="#A69444" stroke-opacity="0.62" stroke-width="0.3"><path d="
M 19.00 10.00 
C 18.75 9.71 19.00 9.00 19.00 9.00
C 18.13 9.87 18.27 9.04 19.00 10.00 Z"/>
</g>
<g fill="None" fill-opacity="0.0" stroke="#110F03" stroke-opacity="0.02" stroke-width="0.3"><path d="
M 19.00 10.00 
C 20.58 13.17 23.41 13.97 24.00 9.00
C 22.54 10.58 21.43 9.20 20.00 9.00
C 20.00 9.00 19.25 8.75 19.00 9.00
C 19.00 9.00 18.75 9.71 19.00 10.00 Z"/>
</g>
<g fill="None" fill-opacity="0.0" stroke="#A69244" stroke-opacity="0.29" stroke-width="0.3"><path d="
M 9.00 12.00 
C 9.24 12.25 10.00 12.00 10.00 12.00
C 11.31 10.88 14.06 10.54 16.00 11.00
C 14.45 9.40 9.17 9.00 9.00 12.00 Z"/>
</g>
<g fill="None" fill-opacity="0.0" stroke="#000000" stroke-opacity="0.00" stroke-width="0.3"><path d="
M 10.00 12.00 
C 11.86 12.00 14.18 12.38 16.00 12.00
C 16.00 12.00 16.25 11.26 16.00 11.00
C 14.06 10.54 11.31 10.88 10.00 12.00 Z"/>
</g>
<g fill="None" fill-opacity="0.0" stroke="#A69345" stroke-opacity="0.76" stroke-width="0.3"><path d="
M 16.00 12.00 
C 14.18 12.38 11.86 12.00 10.00 12.00
C 10.00 12.00 9.24 12.25 9.00 12.00
C 10.49 13.55 14.48 13.57 16.00 12.00 Z"/>
</g>
<g fill="None" fill-opacity="0.0" stroke="#A69345" stroke-opacity="0.73" stroke-width="0.3"><path d="
M 24.00 13.00 
C 24.19 12.76 25.00 13.00 25.00 13.00
C 25.00 11.69 23.75 12.67 24.00 13.00 Z"/>
</g>
<g fill="None" fill-opacity="0.0" stroke="#A69346" stroke-opacity="0.39" stroke-width="0.3"><path d="
M 25.00 13.00 
C 25.00 13.00 24.19 12.76 24.00 13.00
C 24.00 14.31 25.25 13.33 25.00 13.00 Z"/>
</g>
<g fill="None" fill-opacity="0.0" stroke="#A69246" stroke-opacity="0.72" stroke-width="0.3"><path d="
M 24.00 14.00 
C 23.18 13.18 24.74 14.74 24.00 14.00 Z"/>
</g>
<g fill="None" fill-opacity="0.0" stroke="#000000" stroke-opacity="0.00" stroke-width="0.3"><path d="
M 16.00 21.00 
C 16.14 20.96 16.00 20.00 16.00 20.00
C 11.30 17.98 13.21 17.56 9.00 21.00
C 14.03 23.45 11.03 22.49 16.00 21.00 Z"/>
</g>
<g fill="None" fill-opacity="0.0" stroke="#A69345" stroke-opacity="0.76" stroke-width="0.3"><path d="
M 18.00 18.00 
C 18.00 18.03 19.00 18.00 19.00 18.00
C 20.86 18.00 23.18 17.62 25.00 18.00
C 23.51 16.46 19.52 16.42 18.00 18.00 Z"/>
</g>
<g fill="None" fill-opacity="0.0" stroke="#A79344" stroke-opacity="0.29" stroke-width="0.3"><path d="
M 25.00 19.00 
C 22.96 19.49 20.36 19.16 19.00 18.00
C 19.00 18.00 18.00 18.03 18.00 18.00
C 18.18 21.09 23.47 20.58 25.00 19.00 Z"/>
</g>
<g fill="None" fill-opacity="0.0" stroke="#000000" stroke-opacity="0.00" stroke-width="0.3"><path d="
M 25.00 19.00 
C 25.00 19.00 25.25 18.26 25.00 18.00
C 23.18 17.62 20.86 18.00 19.00 18.00
C 20.36 19.16 22.96 19.49 25.00 19.00 Z"/>
</g>
<g fill="None" fill-opacity="0.0" stroke="#A79345" stroke-opacity="0.71" stroke-width="0.3"><path d="
M 16.00 20.00 
C 16.00 20.00 16.14 20.96 16.00 21.00
C 17.12 20.32 16.97 18.59 16.00 20.00 Z"/>
</g>
<g fill="None" fill-opacity="0.0" stroke="#000000" stroke-opacity="0.00" stroke-width="0.3"><path d="
M 25.00 21.00 
C 15.60 19.07 21.96 26.62 25.00 21.00 Z"/>
</g>
<g fill="#000000" fill-opacity="0.00" stroke="None">
<path d="
M 0.00 32.00 
L 34.00 32.00
L 34.00 0.00
L 0.00 0.00
L 0.00 32.00
M 29.00 4.00 
C 29.00 12.00 29.00 20.00 29.00 28.00
C 21.00 28.00 13.00 28.00 5.00 28.00
C 5.00 20.00 5.00 12.00 5.00 4.00
C 13.00 4.00 21.00 4.00 29.00 4.00 Z"/>
</g>
<g fill="#A69244" fill-opacity="0.94" stroke="None">
<path d="
M 29.00 4.00 
C 21.00 4.00 13.00 4.00 5.00 4.00
C 5.00 12.00 5.00 20.00 5.00 28.00
C 13.00 28.00 21.00 28.00 29.00 28.00
C 29.00 20.00 29.00 12.00 29.00 4.00
M 20.00 9.00 
C 21.43 9.20 22.54 10.58 24.00 9.00
C 23.41 13.97 20.58 13.17 19.00 10.00
C 18.27 9.04 18.13 9.87 19.00 9.00
C 20.22 7.78 18.97 8.69 20.00 9.00
M 16.00 11.00 
C 16.25 11.26 16.00 12.00 16.00 12.00
C 14.48 13.57 10.49 13.55 9.00 12.00
C 9.17 9.00 14.45 9.40 16.00 11.00
M 25.00 13.00 
C 25.25 13.33 24.00 14.31 24.00 13.00
C 23.75 12.67 25.00 11.69 25.00 13.00
M 24.00 14.00 
C 24.74 14.74 23.18 13.18 24.00 14.00
M 16.00 20.00 
C 16.97 18.59 17.12 20.32 16.00 21.00
C 11.03 22.49 14.03 23.45 9.00 21.00
C 13.21 17.56 11.30 17.98 16.00 20.00
M 25.00 18.00 
C 25.25 18.26 25.00 19.00 25.00 19.00
C 23.47 20.58 18.18 21.09 18.00 18.00
C 19.52 16.42 23.51 16.46 25.00 18.00
M 25.00 21.00 
C 21.96 26.62 15.60 19.07 25.00 21.00 Z"/>
</g>
<g fill="#A69246" fill-opacity="0.33" stroke="None">
<path d="
M 19.00 9.00 
C 19.25 8.75 20.00 9.00 20.00 9.00
C 18.97 8.69 20.22 7.78 19.00 9.00 Z"/>
</g>
<g fill="#A69444" fill-opacity="0.62" stroke="None">
<path d="
M 19.00 10.00 
C 18.75 9.71 19.00 9.00 19.00 9.00
C 18.13 9.87 18.27 9.04 19.00 10.00 Z"/>
</g>
<g fill="#110F03" fill-opacity="0.02" stroke="None">
<path d="
M 19.00 10.00 
C 20.58 13.17 23.41 13.97 24.00 9.00
C 22.54 10.58 21.43 9.20 20.00 9.00
C 20.00 9.00 19.25 8.75 19.00 9.00
C 19.00 9.00 18.75 9.71 19.00 10.00 Z"/>
</g>
<g fill="#A69244" fill-opacity="0.29" stroke="None">
<path d="
M 9.00 12.00 
C 9.24 12.25 10.00 12.00 10.00 12.00
C 11.31 10.88 14.06 10.54 16.00 11.00
C 14.45 9.40 9.17 9.00 9.00 12.00 Z"/>
</g>
<g fill="#000000" fill-opacity="0.00" stroke="None">
<path d="
M 10.00 12.00 
C 11.86 12.00 14.18 12.38 16.00 12.00
C 16.00 12.00 16.25 11.26 16.00 11.00
C 14.06 10.54 11.31 10.88 10.00 12.00 Z"/>
</g>
<g fill="#A69345" fill-opacity="0.76" stroke="None">
<path d="
M 16.00 12.00 
C 14.18 12.38 11.86 12.00 10.00 12.00
C 10.00 12.00 9.24 12.25 9.00 12.00
C 10.49 13.55 14.48 13.57 16.00 12.00 Z"/>
</g>
<g fill="#A69345" fill-opacity="0.73" stroke="None">
<path d="
M 24.00 13.00 
C 24.19 12.76 25.00 13.00 25.00 13.00
C 25.00 11.69 23.75 12.67 24.00 13.00 Z"/>
</g>
<g fill="#A69346" fill-opacity="0.39" stroke="None">
<path d="
M 25.00 13.00 
C 25.00 13.00 24.19 12.76 24.00 13.00
C 24.00 14.31 25.25 13.33 25.00 13.00 Z"/>
</g>
<g fill="#A69246" fill-opacity="0.72" stroke="None">
<path d="
M 24.00 14.00 
C 23.18 13.18 24.74 14.74 24.00 14.00 Z"/>
</g>
<g fill="#000000" fill-opacity="0.00" stroke="None">
<path d="
M 16.00 21.00 
C 16.14 20.96 16.00 20.00 16.00 20.00
C 11.30 17.98 13.21 17.56 9.00 21.00
C 14.03 23.45 11.03 22.49 16.00 21.00 Z"/>
</g>
<g fill="#A69345" fill-opacity="0.76" stroke="None">
<path d="
M 18.00 18.00 
C 18.00 18.03 19.00 18.00 19.00 18.00
C 20.86 18.00 23.18 17.62 25.00 18.00
C 23.51 16.46 19.52 16.42 18.00 18.00 Z"/>
</g>
<g fill="#A79344" fill-opacity="0.29" stroke="None">
<path d="
M 25.00 19.00 
C 22.96 19.49 20.36 19.16 19.00 18.00
C 19.00 18.00 18.00 18.03 18.00 18.00
C 18.18 21.09 23.47 20.58 25.00 19.00 Z"/>
</g>
<g fill="#000000" fill-opacity="0.00" stroke="None">
<path d="
M 25.00 19.00 
C 25.00 19.00 25.25 18.26 25.00 18.00
C 23.18 17.62 20.86 18.00 19.00 18.00
C 20.36 19.16 22.96 19.49 25.00 19.00 Z"/>
</g>
<g fill="#A79345" fill-opacity="0.71" stroke="None">
<path d="
M 16.00 20.00 
C 16.00 20.00 16.14 20.96 16.00 21.00
C 17.12 20.32 16.97 18.59 16.00 20.00 Z"/>
</g>
<g fill="#000000" fill-opacity="0.00" stroke="None">
<path d="
M 25.00 21.00 
C 15.60 19.07 21.96 26.62 25.00 21.00 Z"/>
</g>
</svg>