<svg xmlns="http://www.w3.org/2000/svg" xmlns:v="https://svgstorm.com"
viewBox = "0 0 21 32"
width="21"
height="32">
<g fill="None" fill-opacity="0.0" stroke="#000000" stroke-opacity="0.00" stroke-width="0.3"><path d="
M 0.00 32.00 
L 21.00 32.00
L 21.00 0.00
L 0.00 0.00
L 0.00 32.00
M 12.00 5.00 
C 18.01 6.28 23.28 16.67 19.22 22.22 C 15.17 27.77 4.32 26.67 1.08 20.92 C -2.15 15.16 4.90 3.49 12.00 5.00 Z"/>
</g>
<g fill="None" fill-opacity="0.0" stroke="#0188D1" stroke-opacity="0.85" stroke-width="0.3"><path d="
M 12.00 5.00 
C 4.90 3.49 -2.15 15.16 1.08 20.92 C 4.32 26.67 15.17 27.77 19.22 22.22 C 23.28 16.67 18.01 6.28 12.00 5.00
M 11.00 10.00 
C 10.81 10.24 10.00 10.00 10.00 10.00
C 9.01 8.05 12.01 8.00 11.00 10.00
M 5.00 13.00 
C 5.00 13.00 3.75 14.53 4.00 13.00
C 3.97 12.98 4.70 12.21 5.00 12.00
C 6.02 10.52 5.76 12.22 5.00 13.00
M 16.00 12.00 
C 16.02 11.97 16.73 12.84 17.00 13.00
C 17.90 14.17 15.97 12.97 16.00 13.00
C 15.10 12.09 14.70 11.11 16.00 12.00
M 12.00 13.00 
C 14.67 14.42 12.51 20.46 9.32 18.66 C 6.13 16.86 8.92 11.35 12.00 13.00
M 5.00 20.00 
C 4.91 20.09 3.91 19.09 4.00 19.00
C 5.29 18.08 6.84 20.39 5.00 20.00
M 17.00 19.00 
C 17.08 19.08 16.09 20.09 16.00 20.00
C 14.21 20.66 15.61 17.93 17.00 19.00
M 11.00 22.00 
C 12.79 23.79 10.23 21.23 11.00 22.00 Z"/>
</g>
<g fill="None" fill-opacity="0.0" stroke="#0087D1" stroke-opacity="0.22" stroke-width="0.3"><path d="
M 10.00 10.00 
C 9.28 9.07 11.62 9.20 11.00 10.00
C 12.01 8.00 9.01 8.05 10.00 10.00 Z"/>
</g>
<g fill="None" fill-opacity="0.0" stroke="#000000" stroke-opacity="0.00" stroke-width="0.3"><path d="
M 10.00 10.00 
C 10.00 10.00 10.81 10.24 11.00 10.00
C 11.62 9.20 9.28 9.07 10.00 10.00 Z"/>
</g>
<g fill="None" fill-opacity="0.0" stroke="#0287CF" stroke-opacity="0.50" stroke-width="0.3"><path d="
M 5.00 12.00 
C 5.23 12.36 5.00 13.00 5.00 13.00
C 5.76 12.22 6.02 10.52 5.00 12.00 Z"/>
</g>
<g fill="None" fill-opacity="0.0" stroke="#0287CF" stroke-opacity="0.50" stroke-width="0.3"><path d="
M 16.00 13.00 
C 15.75 12.75 16.00 12.00 16.00 12.00
C 14.70 11.11 15.10 12.09 16.00 13.00 Z"/>
</g>
<g fill="None" fill-opacity="0.0" stroke="#000000" stroke-opacity="0.00" stroke-width="0.3"><path d="
M 4.00 13.00 
C 4.19 12.76 5.00 13.00 5.00 13.00
C 5.00 13.00 5.23 12.36 5.00 12.00
C 4.70 12.21 3.97 12.98 4.00 13.00 Z"/>
</g>
<g fill="None" fill-opacity="0.0" stroke="#000000" stroke-opacity="0.00" stroke-width="0.3"><path d="
M 16.00 13.00 
C 16.25 13.25 17.00 13.00 17.00 13.00
C 16.73 12.84 16.02 11.97 16.00 12.00
C 16.00 12.00 15.75 12.75 16.00 13.00 Z"/>
</g>
<g fill="None" fill-opacity="0.0" stroke="#038AD3" stroke-opacity="0.30" stroke-width="0.3"><path d="
M 5.00 13.00 
C 5.00 13.00 4.19 12.76 4.00 13.00
C 3.75 14.53 5.00 13.00 5.00 13.00 Z"/>
</g>
<g fill="None" fill-opacity="0.0" stroke="#000000" stroke-opacity="0.00" stroke-width="0.3"><path d="
M 12.00 13.00 
C 8.92 11.35 6.13 16.86 9.32 18.66 C 12.51 20.46 14.67 14.42 12.00 13.00
M 12.00 15.00 
C 12.09 15.99 11.93 17.01 12.00 18.00
C 8.78 19.68 7.55 13.51 11.00 14.00
C 11.09 13.91 12.08 14.92 12.00 15.00 Z"/>
</g>
<g fill="None" fill-opacity="0.0" stroke="#038AD3" stroke-opacity="0.30" stroke-width="0.3"><path d="
M 17.00 13.00 
C 17.00 13.00 16.25 13.25 16.00 13.00
C 15.97 12.97 17.90 14.17 17.00 13.00 Z"/>
</g>
<g fill="None" fill-opacity="0.0" stroke="#0088D0" stroke-opacity="0.47" stroke-width="0.3"><path d="
M 12.00 15.00 
C 11.91 15.09 10.92 14.08 11.00 14.00
C 7.55 13.51 8.78 19.68 12.00 18.00
C 11.93 17.01 12.09 15.99 12.00 15.00 Z"/>
</g>
<g fill="None" fill-opacity="0.0" stroke="#008ED4" stroke-opacity="0.07" stroke-width="0.3"><path d="
M 12.00 15.00 
C 12.08 14.92 11.09 13.91 11.00 14.00
C 10.92 14.08 11.91 15.09 12.00 15.00 Z"/>
</g>
<g fill="None" fill-opacity="0.0" stroke="#0288D0" stroke-opacity="0.42" stroke-width="0.3"><path d="
M 4.00 19.00 
C 4.08 18.92 5.08 19.92 5.00 20.00
C 6.84 20.39 5.29 18.08 4.00 19.00 Z"/>
</g>
<g fill="None" fill-opacity="0.0" stroke="#0288D1" stroke-opacity="0.44" stroke-width="0.3"><path d="
M 16.00 20.00 
C 15.92 19.92 16.91 18.91 17.00 19.00
C 15.61 17.93 14.21 20.66 16.00 20.00 Z"/>
</g>
<g fill="None" fill-opacity="0.0" stroke="#000000" stroke-opacity="0.00" stroke-width="0.3"><path d="
M 5.00 20.00 
C 5.08 19.92 4.08 18.92 4.00 19.00
C 3.91 19.09 4.91 20.09 5.00 20.00 Z"/>
</g>
<g fill="None" fill-opacity="0.0" stroke="#000000" stroke-opacity="0.00" stroke-width="0.3"><path d="
M 16.00 20.00 
C 16.09 20.09 17.08 19.08 17.00 19.00
C 16.91 18.91 15.92 19.92 16.00 20.00 Z"/>
</g>
<g fill="None" fill-opacity="0.0" stroke="#000000" stroke-opacity="0.00" stroke-width="0.3"><path d="
M 11.00 22.00 
C 10.23 21.23 12.79 23.79 11.00 22.00 Z"/>
</g>
<g fill="#000000" fill-opacity="0.00" stroke="None">
<path d="
M 0.00 32.00 
L 21.00 32.00
L 21.00 0.00
L 0.00 0.00
L 0.00 32.00
M 12.00 5.00 
C 18.01 6.28 23.28 16.67 19.22 22.22 C 15.17 27.77 4.32 26.67 1.08 20.92 C -2.15 15.16 4.90 3.49 12.00 5.00 Z"/>
</g>
<g fill="#0188D1" fill-opacity="0.85" stroke="None">
<path d="
M 12.00 5.00 
C 4.90 3.49 -2.15 15.16 1.08 20.92 C 4.32 26.67 15.17 27.77 19.22 22.22 C 23.28 16.67 18.01 6.28 12.00 5.00
M 11.00 10.00 
C 10.81 10.24 10.00 10.00 10.00 10.00
C 9.01 8.05 12.01 8.00 11.00 10.00
M 5.00 13.00 
C 5.00 13.00 3.75 14.53 4.00 13.00
C 3.97 12.98 4.70 12.21 5.00 12.00
C 6.02 10.52 5.76 12.22 5.00 13.00
M 16.00 12.00 
C 16.02 11.97 16.73 12.84 17.00 13.00
C 17.90 14.17 15.97 12.97 16.00 13.00
C 15.10 12.09 14.70 11.11 16.00 12.00
M 12.00 13.00 
C 14.67 14.42 12.51 20.46 9.32 18.66 C 6.13 16.86 8.92 11.35 12.00 13.00
M 5.00 20.00 
C 4.91 20.09 3.91 19.09 4.00 19.00
C 5.29 18.08 6.84 20.39 5.00 20.00
M 17.00 19.00 
C 17.08 19.08 16.09 20.09 16.00 20.00
C 14.21 20.66 15.61 17.93 17.00 19.00
M 11.00 22.00 
C 12.79 23.79 10.23 21.23 11.00 22.00 Z"/>
</g>
<g fill="#0087D1" fill-opacity="0.22" stroke="None">
<path d="
M 10.00 10.00 
C 9.28 9.07 11.62 9.20 11.00 10.00
C 12.01 8.00 9.01 8.05 10.00 10.00 Z"/>
</g>
<g fill="#000000" fill-opacity="0.00" stroke="None">
<path d="
M 10.00 10.00 
C 10.00 10.00 10.81 10.24 11.00 10.00
C 11.62 9.20 9.28 9.07 10.00 10.00 Z"/>
</g>
<g fill="#0287CF" fill-opacity="0.50" stroke="None">
<path d="
M 5.00 12.00 
C 5.23 12.36 5.00 13.00 5.00 13.00
C 5.76 12.22 6.02 10.52 5.00 12.00 Z"/>
</g>
<g fill="#0287CF" fill-opacity="0.50" stroke="None">
<path d="
M 16.00 13.00 
C 15.75 12.75 16.00 12.00 16.00 12.00
C 14.70 11.11 15.10 12.09 16.00 13.00 Z"/>
</g>
<g fill="#000000" fill-opacity="0.00" stroke="None">
<path d="
M 4.00 13.00 
C 4.19 12.76 5.00 13.00 5.00 13.00
C 5.00 13.00 5.23 12.36 5.00 12.00
C 4.70 12.21 3.97 12.98 4.00 13.00 Z"/>
</g>
<g fill="#000000" fill-opacity="0.00" stroke="None">
<path d="
M 16.00 13.00 
C 16.25 13.25 17.00 13.00 17.00 13.00
C 16.73 12.84 16.02 11.97 16.00 12.00
C 16.00 12.00 15.75 12.75 16.00 13.00 Z"/>
</g>
<g fill="#038AD3" fill-opacity="0.30" stroke="None">
<path d="
M 5.00 13.00 
C 5.00 13.00 4.19 12.76 4.00 13.00
C 3.75 14.53 5.00 13.00 5.00 13.00 Z"/>
</g>
<g fill="#000000" fill-opacity="0.00" stroke="None">
<path d="
M 12.00 13.00 
C 8.92 11.35 6.13 16.86 9.32 18.66 C 12.51 20.46 14.67 14.42 12.00 13.00
M 12.00 15.00 
C 12.09 15.99 11.93 17.01 12.00 18.00
C 8.78 19.68 7.55 13.51 11.00 14.00
C 11.09 13.91 12.08 14.92 12.00 15.00 Z"/>
</g>
<g fill="#038AD3" fill-opacity="0.30" stroke="None">
<path d="
M 17.00 13.00 
C 17.00 13.00 16.25 13.25 16.00 13.00
C 15.97 12.97 17.90 14.17 17.00 13.00 Z"/>
</g>
<g fill="#0088D0" fill-opacity="0.47" stroke="None">
<path d="
M 12.00 15.00 
C 11.91 15.09 10.92 14.08 11.00 14.00
C 7.55 13.51 8.78 19.68 12.00 18.00
C 11.93 17.01 12.09 15.99 12.00 15.00 Z"/>
</g>
<g fill="#008ED4" fill-opacity="0.07" stroke="None">
<path d="
M 12.00 15.00 
C 12.08 14.92 11.09 13.91 11.00 14.00
C 10.92 14.08 11.91 15.09 12.00 15.00 Z"/>
</g>
<g fill="#0288D0" fill-opacity="0.42" stroke="None">
<path d="
M 4.00 19.00 
C 4.08 18.92 5.08 19.92 5.00 20.00
C 6.84 20.39 5.29 18.08 4.00 19.00 Z"/>
</g>
<g fill="#0288D1" fill-opacity="0.44" stroke="None">
<path d="
M 16.00 20.00 
C 15.92 19.92 16.91 18.91 17.00 19.00
C 15.61 17.93 14.21 20.66 16.00 20.00 Z"/>
</g>
<g fill="#000000" fill-opacity="0.00" stroke="None">
<path d="
M 5.00 20.00 
C 5.08 19.92 4.08 18.92 4.00 19.00
C 3.91 19.09 4.91 20.09 5.00 20.00 Z"/>
</g>
<g fill="#000000" fill-opacity="0.00" stroke="None">
<path d="
M 16.00 20.00 
C 16.09 20.09 17.08 19.08 17.00 19.00
C 16.91 18.91 15.92 19.92 16.00 20.00 Z"/>
</g>
<g fill="#000000" fill-opacity="0.00" stroke="None">
<path d="
M 11.00 22.00 
C 10.23 21.23 12.79 23.79 11.00 22.00 Z"/>
</g>
</svg>